SplineFontDB: 3.0
FontName: LibraSans-Bold
FullName: LibraSans-Bold
FamilyName: Libra Sans
Weight: Bold
Copyright: Libra Sans, created by Stefan Peev, Context Ltd., is based on Liberation Sans (ver. 2.00.1), which (on its turn) is based on Arimo (designed by Steve Matteson). Libra Sans offers improved pan-European WGL character set and multilingual support for Cyrillic Script. Libra Sans is a free-to-use non-commercial font released under the SIL Open Font License \\(OFL\\).

StartChar: .notdef
Encoding: 65536 -1 0
Width: 750
Flags: MW
HStem: 0 37<137 612 137 649> 651 37<137 612 137 137>
VStem: 100 37<37 651 37 688> 612 37<37 651 651 651>
LayerCount: 2
Fore
SplineSet
100 0 m 1
 100 688 l 1
 649 688 l 1
 649 0 l 1
 100 0 l 1
612 651 m 1
 137 651 l 1
 137 37 l 1
 612 37 l 1
 612 651 l 1
EndSplineSet
EndChar

StartChar: exclam
Encoding: 33 33 2
Width: 333
GlyphClass: 2
Flags: MW
HStem: 0 132<94 235 94 235> 668 20G<94 238 238 238>
VStem: 94 141<0 132 0 132> 102 128
LayerCount: 2
Fore
SplineSet
238 688 m 1xd0
 222 208 l 1
 110 208 l 1
 94 688 l 1
 238 688 l 1xd0
235 0 m 1xe0
 94 0 l 1
 94 132 l 1
 235 132 l 1
 235 0 l 1xe0
EndSplineSet
EndChar

StartChar: quotedbl
Encoding: 34 34 3
Width: 474
GlyphClass: 2
Flags: MW
HStem: 438 250<79 186 79 79 287 394 287 287>
VStem: 72 120 280 120
LayerCount: 2
Fore
SplineSet
408 688 m 1
 394 438 l 1
 287 438 l 1
 274 688 l 1
 408 688 l 1
199 688 m 1
 186 438 l 1
 79 438 l 1
 66 688 l 1
 199 688 l 1
EndSplineSet
EndChar

StartChar: numbersign
Encoding: 35 35 4
Width: 556
GlyphClass: 2
Flags: MW
HStem: 0 21G<54 129 54 54 279 355 279 279> 186 73<17 93 17 109 184 318 17 168 410 515> 421 72<42 143 42 158 42 219 234 369 460 540>
VStem: 17 523<186 421 259 421>
LayerCount: 2
Fore
SplineSet
540 421 m 1
 444 421 l 1
 410 259 l 1
 515 259 l 1
 515 186 l 1
 395 186 l 1
 355 0 l 1
 279 0 l 1
 318 186 l 1
 168 186 l 1
 129 0 l 1
 54 0 l 1
 93 186 l 1
 17 186 l 1
 17 259 l 1
 109 259 l 1
 143 421 l 1
 42 421 l 1
 42 493 l 1
 158 493 l 1
 199 681 l 1
 274 681 l 1
 234 493 l 1
 384 493 l 1
 425 681 l 1
 501 681 l 1
 460 493 l 1
 540 493 l 1
 540 421 l 1
369 421 m 1
 219 421 l 1
 184 259 l 1
 335 259 l 1
 369 421 l 1
EndSplineSet
EndChar

StartChar: dollar
Encoding: 36 36 5
Width: 556
GlyphClass: 2
Flags: MW
HStem: 11 100<254 307> 583 94<254 254>
VStem: 35 128<497.5 528.5 497.5 557> 254 53<-74 10 10 10 111 290 421 581 677 742> 415 127<172 207.5>
LayerCount: 2
Fore
SplineSet
542 201 m 0
 542 84 462 18 307 11 c 1
 307 -74 l 1
 254 -74 l 1
 254 10 l 1
 114 15 38 74 13 199 c 1
 138 222 l 1
 150 149 186 118 254 111 c 1
 254 302 l 2
 251 303 242 305 239 305 c 0
 186 317 146 331 119 348 c 0
 66 381 35 430 35 503 c 0
 35 611 111 672 254 677 c 1
 254 742 l 1
 307 742 l 1
 307 677 l 1
 437 667 493 633 525 506 c 1
 396 487 l 1
 387 543 359 574 307 581 c 1
 307 409 l 1
 313 408 l 2
 322 408 351 400 399 384 c 0
 495 353 542 293 542 201 c 0
254 421 m 1
 254 583 l 1
 193 578 163 552 163 505 c 0
 163 490 165 478 170 469 c 0
 175 460 183 452 192 446 c 0
 202 440 223 432 254 421 c 1
415 199 m 0
 415 216 412 229 406 239 c 0
 400 249 391 257 380 264 c 0
 369 271 345 279 307 290 c 1
 307 111 l 1
 379 116 415 145 415 199 c 0
EndSplineSet
EndChar

StartChar: percent
Encoding: 37 37 6
Width: 889
GlyphClass: 2
Flags: MW
HStem: -8 77<666.5 715 666.5 746.5> 0 21G<169 270 169 169> 258 76<174 222 174 254.5> 355 75<666 716> 620 76<173 223> 668 20G<618 720 720 720>
VStem: 25 105<425.5 528.5 425.5 551> 265 106<425.5 528.5> 517 106<159 262.5 159 283.5> 758 105<160.5 263>
LayerCount: 2
Fore
SplineSet
863 211 m 0x9bc0
 863 68 803 -8 690 -8 c 0
 575 -8 517 68 517 211 c 0
 517 356 571 430 692 430 c 0
 809 430 863 355 863 211 c 0x9bc0
720 688 m 1
 270 0 l 1
 169 0 l 1
 618 688 l 1
 720 688 l 1
199 696 m 0
 316 696 371 621 371 477 c 0xbbc0
 371 336 312 258 197 258 c 0
 84 258 25 334 25 477 c 0
 25 625 79 696 199 696 c 0
758 211 m 0x9bc0
 758 315 740 355 692 355 c 0
 640 355 623 314 623 211 c 0xbbc0
 623 107 642 69 691 69 c 0
 739 69 758 110 758 211 c 0x9bc0
265 477 m 0x9bc0
 265 580 247 620 199 620 c 0
 147 620 130 580 130 477 c 0
 130 374 150 334 198 334 c 0x57c0
 246 334 265 374 265 477 c 0x9bc0
EndSplineSet
EndChar

StartChar: ampersand
Encoding: 38 38 7
Width: 722
GlyphClass: 2
Flags: MW
HStem: -10 93<249.5 307.5 249.5 315> -6 102<619 639.5> 609 83<330.5 377.5>
VStem: 44 124<158 215 158 232> 173 106<518 555.5 518 583.5> 425 109<534.5 564.5>
LayerCount: 2
Fore
SplineSet
44 188 m 0xb4
 44 276 94 344 209 397 c 1
 185 446 173 491 173 533 c 0
 173 634 240 692 357 692 c 0
 466 692 534 636 534 547 c 0
 534 522 528 499 515 479 c 0
 502 459 484 440 461 423 c 0
 438 406 398 384 343 358 c 1
 375 301 415 246 462 194 c 1
 496 245 522 304 539 371 c 1
 641 337 l 1
 619 261 588 193 547 132 c 1
 575 108 604 96 634 96 c 0
 655 96 674 99 691 104 c 1
 691 5 l 1
 673 -2 652 -6 627 -6 c 0x6c
 571 -6 511 14 466 53 c 1
 411 11 349 -10 281 -10 c 0
 130 -10 44 63 44 188 c 0xb4
425 546 m 0
 425 583 399 609 356 609 c 0
 305 609 279 579 279 532 c 0
 279 504 288 473 305 438 c 1xac
 339 453 363 465 378 475 c 0
 409 495 425 517 425 546 c 0
385 120 m 1
 331 180 287 241 252 304 c 1
 196 278 168 240 168 190 c 0
 168 126 213 83 286 83 c 0
 329 83 364 101 385 120 c 1
EndSplineSet
EndChar

StartChar: quotesingle
Encoding: 39 39 8
Width: 238
GlyphClass: 2
Flags: MW
HStem: 438 250<66 173 66 66>
VStem: 59 120
LayerCount: 2
Fore
SplineSet
186 688 m 1
 173 438 l 1
 66 438 l 1
 53 688 l 1
 186 688 l 1
EndSplineSet
EndChar

StartChar: parenleft
Encoding: 40 40 9
Width: 333
GlyphClass: 2
Flags: MW
HStem: -208 21G<195 332 195 195>
VStem: 50 135<214.5 303.5 214.5 304.5>
LayerCount: 2
Fore
SplineSet
332 -208 m 1
 195 -208 l 1
 144 -134 107 -60 84 13 c 0
 61 86 50 168 50 259 c 0
 50 350 61 432 84 505 c 0
 107 578 144 652 195 725 c 1
 332 725 l 1
 281 650 243 576 220 503 c 0
 197 430 185 348 185 259 c 0
 185 170 196 88 219 15 c 0
 242 -58 280 -132 332 -208 c 1
EndSplineSet
EndChar

StartChar: parenright
Encoding: 41 41 10
Width: 333
GlyphClass: 2
Flags: MW
HStem: -208 21G<1 138 1 1>
VStem: 148 135<214.5 304 214 348.5>
LayerCount: 2
Fore
SplineSet
138 -208 m 1
 1 -208 l 1
 53 -131 90 -57 113 16 c 0
 136 89 148 170 148 259 c 0
 148 438 104 577 1 725 c 1
 138 725 l 1
 189 651 226 577 249 504 c 0
 272 431 283 349 283 259 c 0
 283 169 272 87 249 14 c 0
 226 -59 189 -133 138 -208 c 1
EndSplineSet
EndChar

StartChar: asterisk
Encoding: 42 42 11
Width: 389
GlyphClass: 2
Flags: MW
HStem: 668 20G<144 249 249 249>
VStem: 148 96
LayerCount: 2
Fore
SplineSet
249 688 m 1
 240 554 l 1
 355 605 l 1
 388 509 l 1
 266 479 l 1
 357 375 l 1
 267 316 l 1
 196 439 l 1
 123 316 l 1
 32 376 l 1
 125 479 l 1
 3 509 l 1
 36 605 l 1
 153 554 l 1
 144 688 l 1
 249 688 l 1
EndSplineSet
EndChar

StartChar: plus
Encoding: 43 43 12
Width: 584
GlyphClass: 2
Flags: MW
HStem: 278 109<42 237 42 237 347 543>
VStem: 237 110<79 278 79 278 387 586>
LayerCount: 2
Fore
SplineSet
543 278 m 1
 347 278 l 1
 347 79 l 1
 237 79 l 1
 237 278 l 1
 42 278 l 1
 42 387 l 1
 237 387 l 1
 237 586 l 1
 347 586 l 1
 347 387 l 1
 543 387 l 1
 543 278 l 1
EndSplineSet
EndChar

StartChar: comma
Encoding: 44 44 13
Width: 278
GlyphClass: 2
Flags: MW
HStem: 0 149<70 133 70 211>
VStem: 70 141<0 32 32 149 -6.5 149>
LayerCount: 2
Fore
SplineSet
211 149 m 1
 211 32 l 2
 211 -45 195 -103 158 -155 c 1
 68 -155 l 1
 107 -108 133 -49 133 0 c 1
 70 0 l 1
 70 149 l 1
 211 149 l 1
EndSplineSet
EndChar

StartChar: hyphen
Encoding: 45 45 14
Width: 333
GlyphClass: 2
Flags: MW
HStem: 200 119<39 293 39 293>
VStem: 39 254<200 319 200 319>
LayerCount: 2
Fore
SplineSet
293 200 m 1
 39 200 l 1
 39 319 l 1
 293 319 l 1
 293 200 l 1
EndSplineSet
EndChar

StartChar: period
Encoding: 46 46 15
Width: 278
GlyphClass: 2
Flags: MW
HStem: 0 149<68 209 68 209>
VStem: 68 141<0 149>
LayerCount: 2
Fore
SplineSet
209 0 m 1
 68 0 l 1
 68 149 l 1
 209 149 l 1
 209 0 l 1
EndSplineSet
EndChar

StartChar: slash
Encoding: 47 47 16
Width: 278
GlyphClass: 2
Flags: MW
HStem: -20 745<10 268 10 268>
VStem: 10 258
LayerCount: 2
Fore
SplineSet
128 -20 m 1
 10 -20 l 1
 152 725 l 1
 268 725 l 1
 128 -20 l 1
EndSplineSet
EndChar

StartChar: zero
Encoding: 48 48 17
Width: 556
GlyphClass: 2
Flags: MW
HStem: -10 108<238.5 315 238.5 356> 591 107<238 317>
VStem: 40 137<250.5 437.5 250.5 468> 377 138<253.5 438>
LayerCount: 2
Fore
SplineSet
515 344 m 0
 515 112 436 -10 276 -10 c 0
 119 -10 40 108 40 344 c 0
 40 592 112 698 280 698 c 0
 443 698 515 580 515 344 c 0
377 344 m 0
 377 532 355 591 279 591 c 0
 197 591 177 531 177 344 c 0
 177 157 200 98 277 98 c 0
 353 98 377 163 377 344 c 0
EndSplineSet
EndChar

StartChar: one
Encoding: 49 49 18
Width: 556
GlyphClass: 2
Flags: MW
HStem: 0 102<63 233 371 528 63 233> 668 20G<241 371 371 371>
VStem: 233 138<102 571 571 571>
LayerCount: 2
Fore
SplineSet
528 0 m 1
 63 0 l 1
 63 102 l 1
 233 102 l 1
 233 571 l 1
 68 468 l 1
 68 576 l 1
 241 688 l 1
 371 688 l 1
 371 102 l 1
 528 102 l 1
 528 0 l 1
EndSplineSet
EndChar

StartChar: two
Encoding: 50 50 19
Width: 556
GlyphClass: 2
Flags: MW
HStem: 0 113<197 516 197 516> 589 109<246.5 306>
VStem: 366 139<474.5 529>
LayerCount: 2
Fore
SplineSet
516 0 m 1
 35 0 l 1
 35 95 l 1
 71 174 136 247 236 328 c 0
 332 405 366 450 366 499 c 0
 366 559 336 589 276 589 c 0
 217 589 188 558 179 494 c 1
 41 502 l 1
 56 630 138 698 275 698 c 0
 423 698 505 628 505 505 c 0
 505 310 249 241 197 113 c 1
 516 113 l 1
 516 0 l 1
EndSplineSet
EndChar

StartChar: three
Encoding: 51 51 20
Width: 556
GlyphClass: 2
Flags: MW
HStem: -11 111<242 308.5 242 354> 294 111<200 245 245 248 200 245> 589 109<242.5 301>
VStem: 363 139<472.5 526.5> 379 141<165.5 229.5>
LayerCount: 2
Fore
SplineSet
520 191 m 0xe8
 520 62 432 -11 276 -11 c 0
 128 -11 38 59 23 187 c 1
 163 199 l 1
 172 133 209 100 275 100 c 0
 342 100 379 132 379 199 c 0xe8
 379 260 335 294 248 294 c 2
 200 294 l 1
 200 405 l 1
 245 405 l 2
 324 405 363 438 363 498 c 0
 363 555 331 589 271 589 c 0
 214 589 177 556 172 499 c 1
 35 509 l 1
 48 628 137 698 273 698 c 0
 417 698 502 630 502 515 c 0xf0
 502 430 451 373 355 354 c 1
 355 352 l 1
 462 340 520 279 520 191 c 0xe8
EndSplineSet
EndChar

StartChar: four
Encoding: 52 52 21
Width: 556
GlyphClass: 2
Flags: MW
HStem: 0 21G<328 459 328 328> 140 102<127 328 127 328 459 551> 564 124 668 20G<306 459 459 459>
VStem: 328 131<0 140 0 140 242 467 467 485>
LayerCount: 2
Fore
SplineSet
551 140 m 1xd8
 459 140 l 1
 459 0 l 1
 328 0 l 1
 328 140 l 1
 15 140 l 1
 15 243 l 1
 306 688 l 1
 459 688 l 1
 459 242 l 1
 551 242 l 1
 551 140 l 1xd8
328 242 m 1
 328 467 l 2
 328 503 332 552 333 564 c 1
 324 546 309 520 287 485 c 2xe8
 127 242 l 1
 328 242 l 1
EndSplineSet
EndChar

StartChar: five
Encoding: 53 53 22
Width: 556
GlyphClass: 2
Flags: MW
HStem: -10 109<247 309 247 312.5> 345 111<288 312.5> 586 102<199 488 199 199>
VStem: 63 130 387 141<192.5 262>
LayerCount: 2
Fore
SplineSet
528 229 m 0
 528 156 505 98 460 55 c 0
 415 12 352 -10 273 -10 c 0
 136 -10 50 53 31 172 c 1
 168 183 l 1
 183 124 219 99 275 99 c 0
 343 99 387 145 387 226 c 0
 387 298 347 345 278 345 c 0
 240 345 209 330 185 301 c 1
 51 301 l 1
 75 688 l 1
 488 688 l 1
 488 586 l 1
 199 586 l 1
 188 412 l 1
 221 441 263 456 313 456 c 0
 444 456 528 369 528 229 c 0
EndSplineSet
EndChar

StartChar: six
Encoding: 54 54 23
Width: 556
GlyphClass: 2
Flags: MW
HStem: -10 107<253.5 315.5 253.5 361> 342 101<287.5 312.5> 590 108<252.5 310.5>
VStem: 37 134<367 441.5 367 450.5> 382 138<182.5 260.5>
LayerCount: 2
Fore
SplineSet
520 225 m 0
 520 78 433 -10 289 -10 c 0
 126 -10 37 105 37 328 c 0
 37 573 128 698 292 698 c 0
 408 698 473 648 501 540 c 1
 372 522 l 1
 360 567 332 590 289 590 c 0
 216 590 171 516 171 367 c 1
 200 416 255 443 320 443 c 0
 444 443 520 360 520 225 c 0
382 221 m 0
 382 300 344 342 281 342 c 0
 220 342 181 300 181 236 c 0
 181 156 223 97 284 97 c 0
 347 97 382 144 382 221 c 0
EndSplineSet
EndChar

StartChar: seven
Encoding: 55 55 24
Width: 556
GlyphClass: 2
Flags: MW
HStem: 0 21G<143 286 143 143> 575 113<43 385 43 512>
VStem: 143 143<0 28.5>
LayerCount: 2
Fore
SplineSet
512 688 m 1
 512 579 l 1
 389 383 286 220 286 0 c 1
 143 0 l 1
 143 57 150 113 165 166 c 0
 180 220 202 275 230 330 c 0
 259 385 310 467 385 575 c 1
 43 575 l 1
 43 688 l 1
 512 688 l 1
EndSplineSet
EndChar

StartChar: eight
Encoding: 56 56 25
Width: 556
GlyphClass: 2
Flags: MW
HStem: -10 97<244 315.5 244 357.5> 313 96<248 308 248 311.5> 602 96<247.5 307>
VStem: 32 141<163 237> 48 140<478.5 539.5 475 572.5> 367 141<477.5 540.5> 383 142<163.5 240 129.5 241 129.5 363 129.5 361>
LayerCount: 2
Fore
SplineSet
525 194 m 0xf2
 525 65 436 -10 279 -10 c 0
 122 -10 32 65 32 193 c 0xf2
 32 281 87 345 172 360 c 1
 172 362 l 1
 97 378 48 441 48 516 c 0
 48 629 130 698 277 698 c 0
 426 698 508 632 508 515 c 0xec
 508 440 459 378 383 363 c 1
 383 361 l 1
 472 346 525 286 525 194 c 0xf2
367 508 m 0xec
 367 573 337 602 277 602 c 0
 218 602 188 571 188 508 c 0
 188 442 218 409 278 409 c 0
 338 409 367 437 367 508 c 0xec
383 205 m 0xf2
 383 277 347 313 276 313 c 0
 209 313 173 274 173 203 c 0
 173 123 208 87 280 87 c 0
 351 87 383 122 383 205 c 0xf2
EndSplineSet
EndChar

StartChar: nine
Encoding: 57 57 26
Width: 556
GlyphClass: 2
Flags: MW
HStem: -10 108<241 302 241 344> 239 102<241.5 264.5> 591 107<241 302.5>
VStem: 35 139<429 505.5 429 540> 384 135
LayerCount: 2
Fore
SplineSet
519 355 m 0
 519 111 426 -10 262 -10 c 0
 141 -10 75 40 47 152 c 1
 176 170 l 1
 189 122 218 98 264 98 c 0
 340 98 383 172 384 317 c 1
 360 268 297 239 232 239 c 0
 112 239 35 327 35 468 c 0
 35 612 122 698 275 698 c 0
 439 698 519 584 519 355 c 0
374 451 m 0
 374 536 334 591 271 591 c 0
 211 591 174 544 174 467 c 0
 174 391 211 341 272 341 c 0
 331 341 374 384 374 451 c 0
EndSplineSet
EndChar

StartChar: colon
Encoding: 58 58 27
Width: 333
GlyphClass: 2
Flags: MW
HStem: 0 137<96 237 96 237> 367 138<96 237 96 237>
VStem: 96 141<0 137 0 137 367 505>
LayerCount: 2
Fore
SplineSet
237 367 m 1
 96 367 l 1
 96 505 l 1
 237 505 l 1
 237 367 l 1
237 0 m 1
 96 0 l 1
 96 137 l 1
 237 137 l 1
 237 0 l 1
EndSplineSet
EndChar

StartChar: semicolon
Encoding: 59 59 28
Width: 333
GlyphClass: 2
Flags: MW
HStem: 0 137<97 160 97 238> 367 138<97 238 97 238>
VStem: 97 141<0 32 32 137 -6.5 137 367 505>
LayerCount: 2
Fore
SplineSet
238 367 m 1
 97 367 l 1
 97 505 l 1
 238 505 l 1
 238 367 l 1
238 137 m 1
 238 32 l 2
 238 -45 222 -103 185 -155 c 1
 95 -155 l 1
 136 -102 160 -47 160 0 c 1
 97 0 l 1
 97 137 l 1
 238 137 l 1
EndSplineSet
EndChar

StartChar: less
Encoding: 60 60 29
Width: 584
GlyphClass: 2
Flags: MW
HStem: 61 539<543 543>
VStem: 42 95<330 330 330 409 330 409>
LayerCount: 2
Fore
SplineSet
543 61 m 1
 42 252 l 1
 42 409 l 1
 543 600 l 1
 543 489 l 1
 137 330 l 1
 543 172 l 1
 543 61 l 1
EndSplineSet
EndChar

StartChar: equal
Encoding: 61 61 30
Width: 584
GlyphClass: 2
Flags: MW
HStem: 142 108<42 543 42 543> 411 109<42 543 42 543>
VStem: 42 501<142 250 142 250 411 520 142 520>
LayerCount: 2
Fore
SplineSet
543 411 m 1
 42 411 l 1
 42 520 l 1
 543 520 l 1
 543 411 l 1
543 142 m 1
 42 142 l 1
 42 250 l 1
 543 250 l 1
 543 142 l 1
EndSplineSet
EndChar

StartChar: greater
Encoding: 62 62 31
Width: 584
GlyphClass: 2
Flags: MW
HStem: 61 539<42 42>
VStem: 448 95<330 330>
LayerCount: 2
Fore
SplineSet
543 252 m 1
 42 61 l 1
 42 172 l 1
 448 330 l 1
 42 489 l 1
 42 600 l 1
 543 409 l 1
 543 252 l 1
EndSplineSet
EndChar

StartChar: question
Encoding: 63 63 32
Width: 611
GlyphClass: 2
Flags: MW
HStem: 0 132<214 355 214 355> 588 110<274.5 341.5>
VStem: 214 141<0 132 0 132> 218 130<208 208> 415 138<472.5 523.5>
LayerCount: 2
Fore
SplineSet
553 501 m 0xe8
 553 438 530 392 453 337 c 2
 416 310 l 2
 371 278 351 247 348 208 c 1
 218 208 l 1xd8
 222 275 255 325 320 370 c 0
 389 418 415 450 415 495 c 0
 415 552 376 588 307 588 c 0
 242 588 193 546 185 483 c 1
 46 489 l 1
 63 621 160 698 305 698 c 0
 460 698 553 624 553 501 c 0xe8
355 0 m 1
 214 0 l 1
 214 132 l 1
 355 132 l 1
 355 0 l 1
EndSplineSet
EndChar

StartChar: at
Encoding: 64 64 33
Width: 975
GlyphClass: 2
Flags: MW
HStem: -158 70<446 497 354.5 500.5> 36 67<681 682> 457 66<501 527.5> 641 69<495 534>
VStem: 57 79<225 265 128 271> 257 81<187.5 224> 589 64<94 159 153 153> 843 74<353 353>
LayerCount: 2
Fore
SplineSet
917 354 m 0
 920 177 810 32 682 36 c 0
 622 36 589 68 589 120 c 0
 589 132 590 143 592 153 c 1
 589 153 l 1
 572 119 548 91 516 69 c 0
 484 47 451 36 418 36 c 0
 315 36 257 105 257 224 c 0
 254 384 363 528 501 523 c 0
 564 523 607 495 630 438 c 1
 633 438 l 1
 652 512 l 1
 728 512 l 1
 671 265 l 2
 659 209 653 170 653 148 c 0
 653 116 671 103 691 103 c 0
 769 101 846 219 843 353 c 1
 846 523 720 644 534 641 c 0
 456 641 387 624 327 590 c 0
 268 556 221 507 187 442 c 0
 153 377 136 305 136 225 c 0
 136 31 260 -88 449 -88 c 0
 545 -88 641 -63 737 -12 c 1
 767 -72 l 1
 658 -133 555 -158 446 -158 c 0
 217 -162 55 -4 57 225 c 0
 57 317 78 400 119 475 c 0
 202 624 353 710 533 710 c 0
 773 710 917 568 917 354 c 0
601 352 m 0
 601 413 558 457 497 457 c 0
 466 457 439 447 414 426 c 0
 366 386 338 304 338 225 c 0
 338 150 369 105 434 105 c 0
 477 105 519 133 551 185 c 0
 567 211 579 240 588 273 c 0
 597 306 601 333 601 352 c 0
EndSplineSet
EndChar

StartChar: A
Encoding: 65 65 34
Width: 722
GlyphClass: 2
Flags: MW
HStem: 0 21G<25 169 25 25 553 696 553 553> 176 108<262 460 262 492 230 460> 582 106<361 361> 668 20G<276 446 446 446>
VStem: 25 671<0 0>
LayerCount: 2
Fore
SplineSet
696 0 m 1xd8
 553 0 l 1
 492 176 l 1
 230 176 l 1
 169 0 l 1
 25 0 l 1
 276 688 l 1
 446 688 l 1
 696 0 l 1xd8
371 548 m 1
 361 582 l 1
 358 571 l 1
 346 531 l 1xe8
 262 284 l 1
 460 284 l 1
 392 482 l 1
 371 548 l 1
EndSplineSet
EndChar

StartChar: B
Encoding: 66 66 35
Width: 722
GlyphClass: 2
Flags: MW
HStem: 0 107<211 399 399 411> 304 107<211 376 376 394 211 376> 581 107<211 375 211 211>
VStem: 67 144<107 304 411 581> 492 145<476.5 526.5> 532 145<174 240>
LayerCount: 2
Fore
SplineSet
677 196 m 0xf4
 677 72 578 0 411 0 c 2
 67 0 l 1
 67 688 l 1
 382 688 l 2
 550 688 637 630 637 515 c 0xf8
 637 438 594 381 506 362 c 1
 617 349 677 291 677 196 c 0xf4
492 496 m 0
 492 557 452 581 375 581 c 2
 211 581 l 1
 211 411 l 1
 376 411 l 2
 457 411 492 439 492 496 c 0
532 208 m 0xf4
 532 272 486 304 394 304 c 2
 211 304 l 1
 211 107 l 1
 399 107 l 2
 491 107 532 140 532 208 c 0xf4
EndSplineSet
EndChar

StartChar: C
Encoding: 67 67 36
Width: 722
GlyphClass: 2
Flags: MW
HStem: -10 114<322.5 431.5 322.5 461.5> 585 113<319.5 427.5>
VStem: 41 145<268.5 425 268.5 460.5>
LayerCount: 2
Fore
SplineSet
388 104 m 0
 475 104 536 147 569 234 c 1
 695 187 l 1
 640 54 535 -10 388 -10 c 0
 167 -10 41 122 41 347 c 0
 41 574 161 698 382 698 c 0
 543 698 645 632 686 507 c 1
 559 472 l 1
 538 541 470 585 385 585 c 0
 254 585 186 503 186 347 c 0
 186 190 257 104 388 104 c 0
EndSplineSet
EndChar

StartChar: D
Encoding: 68 68 37
Width: 722
GlyphClass: 2
Flags: MW
HStem: 0 111<211 333 333 345> 577 111<211 313 211 211>
VStem: 67 144<111 577 111 688 111 688> 535 145<349 423>
LayerCount: 2
Fore
SplineSet
680 349 m 0
 683 137 543 -3 345 0 c 2
 67 0 l 1
 67 688 l 1
 316 688 l 2
 548 688 680 568 680 349 c 0
535 349 m 0
 535 497 456 577 313 577 c 2
 211 577 l 1
 211 111 l 1
 333 111 l 2
 457 111 535 202 535 349 c 0
EndSplineSet
EndChar

StartChar: E
Encoding: 69 69 38
Width: 667
GlyphClass: 2
Flags: MW
HStem: 0 111<211 628 211 628> 292 112<211 578 211 578> 577 111<211 608 211 211>
VStem: 67 144<111 292 404 577>
LayerCount: 2
Fore
SplineSet
628 0 m 1
 67 0 l 1
 67 688 l 1
 608 688 l 1
 608 577 l 1
 211 577 l 1
 211 404 l 1
 578 404 l 1
 578 292 l 1
 211 292 l 1
 211 111 l 1
 628 111 l 1
 628 0 l 1
EndSplineSet
EndChar

StartChar: F
Encoding: 70 70 39
Width: 611
GlyphClass: 2
Flags: MW
HStem: 0 21G<67 211 67 67> 252 112<211 563 211 563> 577 111<211 574 211 211>
VStem: 67 144<0 252 364 577>
LayerCount: 2
Fore
SplineSet
574 577 m 1
 211 577 l 1
 211 364 l 1
 563 364 l 1
 563 252 l 1
 211 252 l 1
 211 0 l 1
 67 0 l 1
 67 688 l 1
 574 688 l 1
 574 577 l 1
EndSplineSet
EndChar

StartChar: G
Encoding: 71 71 40
Width: 778
GlyphClass: 2
Flags: MW
HStem: -10 113<328 431.5 328 454> 256 107<416 584 416 716> 585 113<325.5 434.5>
VStem: 41 145<269 423.5 269 460.5> 584 132<161 256 256 256>
LayerCount: 2
Fore
SplineSet
394 103 m 0
 469 103 545 128 584 161 c 1
 584 256 l 1
 416 256 l 1
 416 363 l 1
 716 363 l 1
 716 110 l 1
 643 35 518 -10 390 -10 c 0
 166 -10 41 119 41 347 c 0
 41 574 166 698 393 698 c 0
 554 698 657 638 701 519 c 1
 568 479 l 1
 540 548 476 585 393 585 c 0
 258 585 186 500 186 347 c 0
 186 191 262 103 394 103 c 0
EndSplineSet
EndChar

StartChar: H
Encoding: 72 72 41
Width: 722
GlyphClass: 2
Flags: MW
HStem: 0 21G<67 211 67 67 511 655 511 511> 295 119<211 511 211 511> 668 20G<67 211 211 211 511 655 655 655>
VStem: 67 144<0 295 0 414 414 688> 511 144<0 295 295 295 414 688>
LayerCount: 2
Fore
SplineSet
655 0 m 1
 511 0 l 1
 511 295 l 1
 211 295 l 1
 211 0 l 1
 67 0 l 1
 67 688 l 1
 211 688 l 1
 211 414 l 1
 511 414 l 1
 511 688 l 1
 655 688 l 1
 655 0 l 1
EndSplineSet
EndChar

StartChar: I
Encoding: 73 73 42
Width: 278
GlyphClass: 2
Flags: MW
HStem: 0 21G<67 211 67 67> 668 20G<67 211 211 211>
VStem: 67 144<0 688>
LayerCount: 2
Fore
SplineSet
211 0 m 1
 67 0 l 1
 67 688 l 1
 211 688 l 1
 211 0 l 1
EndSplineSet
EndChar

StartChar: J
Encoding: 74 74 43
Width: 556
GlyphClass: 2
Flags: MW
HStem: -10 113<229 285.5 229 329.5> 575 113<207 344 207 488>
VStem: 344 144<214 218 218 575 575 575>
LayerCount: 2
Fore
SplineSet
256 -10 m 0
 113 -10 40 48 15 187 c 1
 158 208 l 1
 170 136 201 103 257 103 c 0
 314 103 344 143 344 214 c 2
 344 575 l 1
 207 575 l 1
 207 688 l 1
 488 688 l 1
 488 218 l 2
 488 74 403 -10 256 -10 c 0
EndSplineSet
EndChar

StartChar: K
Encoding: 75 75 44
Width: 722
GlyphClass: 2
Flags: MW
HStem: 0 21G<67 211 67 67 543 713 543 543> 668 20G<67 211 211 211 521 689 689 689>
VStem: 67 144<0 251 0 376 376 688>
LayerCount: 2
Fore
SplineSet
713 0 m 1
 543 0 l 1
 296 316 l 1
 211 251 l 1
 211 0 l 1
 67 0 l 1
 67 688 l 1
 211 688 l 1
 211 376 l 1
 521 688 l 1
 689 688 l 1
 395 397 l 1
 713 0 l 1
EndSplineSet
EndChar

StartChar: L
Encoding: 76 76 45
Width: 611
GlyphClass: 2
Flags: MW
HStem: 0 111<211 580 211 580> 668 20G<67 211 211 211>
VStem: 67 144<111 688 111 688 111 688>
LayerCount: 2
Fore
SplineSet
580 0 m 1
 67 0 l 1
 67 688 l 1
 211 688 l 1
 211 111 l 1
 580 111 l 1
 580 0 l 1
EndSplineSet
EndChar

StartChar: M
Encoding: 77 77 46
Width: 833
GlyphClass: 2
Flags: MW
HStem: 0 21G<67 195 67 67 365 468 365 365 638 766 638 638> 567 121<189 189>
VStem: 67 128<0 417 0 688> 638 128<0 417 417 445 445 445>
LayerCount: 2
Fore
SplineSet
766 0 m 1
 638 0 l 1
 638 417 l 1
 638 445 l 2
 639 454 640 495 643 567 c 1
 620 480 603 419 592 384 c 2
 468 0 l 1
 365 0 l 1
 241 384 l 1
 189 567 l 1
 193 492 195 442 195 417 c 2
 195 0 l 1
 67 0 l 1
 67 688 l 1
 260 688 l 1
 383 303 l 1
 394 266 l 1
 417 174 l 1
 448 284 l 1
 574 688 l 1
 766 688 l 1
 766 0 l 1
EndSplineSet
EndChar

StartChar: N
Encoding: 78 78 47
Width: 722
GlyphClass: 2
Flags: MW
HStem: 0 21G<67 195 67 67 486 655 486 486> 0 154<536 536 536 655 486 536> 530 158<186 186> 668 20G<67 231 231 231 527 655 655 655>
VStem: 67 128<0 406 0 688> 527 128<288 688>
LayerCount: 2
Fore
SplineSet
655 0 m 1x9c
 486 0 l 1
 186 530 l 1xac
 192 479 195 437 195 406 c 2
 195 0 l 1
 67 0 l 1
 67 688 l 1
 231 688 l 1
 536 154 l 1x5c
 530 203 527 248 527 288 c 2
 527 688 l 1
 655 688 l 1
 655 0 l 1x9c
EndSplineSet
EndChar

StartChar: O
Encoding: 79 79 48
Width: 778
GlyphClass: 2
Flags: MW
HStem: -10 114<333 387> 585 113<333.5 442.5 333.5 451.5>
VStem: 41 145<291.5 402.5> 589 147<347 401.5 347 421>
LayerCount: 2
Fore
SplineSet
736 347 m 0
 738 133 599 -13 387 -10 c 0
 279 -10 194 22 133 85 c 0
 72 149 41 236 41 347 c 0
 41 458 72 544 133 605 c 0
 194 667 279 698 388 698 c 0
 497 698 583 667 644 604 c 0
 705 542 736 456 736 347 c 0
589 347 m 0
 589 495 515 585 388 585 c 0
 260 585 186 496 186 347 c 0
 186 196 263 104 387 104 c 0
 516 104 589 191 589 347 c 0
EndSplineSet
EndChar

StartChar: P
Encoding: 80 80 49
Width: 667
GlyphClass: 2
Flags: MW
HStem: 0 21G<67 211 67 67> 242 111<211 364 364 382 211 364> 576 112<211 360 211 211>
VStem: 67 144<0 242 0 353 353 576> 488 145<430.5 504>
LayerCount: 2
Fore
SplineSet
633 470 m 0
 633 336 536 242 382 242 c 2
 211 242 l 1
 211 0 l 1
 67 0 l 1
 67 688 l 1
 376 688 l 2
 541 688 633 609 633 470 c 0
488 468 m 0
 488 540 445 576 360 576 c 2
 211 576 l 1
 211 353 l 1
 364 353 l 2
 443 353 488 393 488 468 c 0
EndSplineSet
EndChar

StartChar: Q
Encoding: 81 81 50
Width: 778
GlyphClass: 2
Flags: MW
HStem: -197 108<496.5 620.5> 585 113<333.5 442.5 333.5 451.5>
VStem: 41 145<271.5 402.5> 589 147<269 401.5 255 421>
LayerCount: 2
Fore
SplineSet
736 347 m 0
 736 163 641 34 480 2 c 1
 503 -62 539 -89 611 -89 c 0
 630 -89 650 -87 669 -84 c 1
 668 -183 l 1
 627 -192 587 -197 550 -197 c 0
 443 -197 377 -142 334 -5 c 1
 149 12 41 143 41 347 c 0
 41 458 72 544 133 605 c 0
 194 667 279 698 388 698 c 0
 497 698 583 667 644 604 c 0
 705 542 736 456 736 347 c 0
589 347 m 0
 589 495 515 585 388 585 c 0
 260 585 186 496 186 347 c 0
 186 196 262 103 387 103 c 0
 516 103 589 191 589 347 c 0
EndSplineSet
EndChar

StartChar: R
Encoding: 82 82 51
Width: 722
GlyphClass: 2
Flags: MW
HStem: 0 21G<67 211 67 67 540 702 540 540> 261 112<211 380 211 399> 576 112<211 396 211 211>
VStem: 67 144<0 261 0 373 373 576> 522 145<444.5 510>
LayerCount: 2
Fore
SplineSet
702 0 m 1
 540 0 l 1
 380 261 l 1
 211 261 l 1
 211 0 l 1
 67 0 l 1
 67 688 l 1
 411 688 l 2
 575 688 667 615 667 483 c 0
 667 387 608 312 516 289 c 1
 702 0 l 1
522 477 m 0
 522 543 480 576 396 576 c 2
 211 576 l 1
 211 373 l 1
 399 373 l 2
 480 373 522 412 522 477 c 0
EndSplineSet
EndChar

StartChar: S
Encoding: 83 83 52
Width: 667
GlyphClass: 2
Flags: MW
HStem: -10 108<288.5 387.5 288.5 429.5> 596 102<288.5 373.5>
VStem: 61 140<505 541.5 505 568> 488 140<159.5 199.5>
LayerCount: 2
Fore
SplineSet
628 198 m 0
 628 63 526 -10 333 -10 c 0
 157 -10 57 52 29 179 c 1
 168 202 l 1
 187 129 240 98 337 98 c 0
 438 98 488 129 488 190 c 0
 488 209 482 225 470 238 c 0
 459 251 442 261 421 270 c 0
 400 279 360 289 301 301 c 0
 250 313 214 323 193 330 c 0
 173 337 155 346 138 356 c 0
 91 386 61 433 61 506 c 0
 61 630 156 698 335 698 c 0
 506 698 585 649 610 526 c 1
 470 507 l 1
 455 566 415 596 332 596 c 0
 245 596 201 569 201 514 c 0
 201 496 206 481 215 470 c 0
 224 459 238 449 256 441 c 0
 275 433 312 423 367 411 c 0
 433 397 480 384 509 372 c 0
 538 360 560 346 577 330 c 0
 610 299 628 255 628 198 c 0
EndSplineSet
EndChar

StartChar: T
Encoding: 84 84 53
Width: 611
GlyphClass: 2
Flags: MW
HStem: 0 21G<233 377 233 233> 577 111<11 233 11 600 377 600 377 377>
VStem: 233 144<0 577 0 577>
LayerCount: 2
Fore
SplineSet
600 577 m 1
 377 577 l 1
 377 0 l 1
 233 0 l 1
 233 577 l 1
 11 577 l 1
 11 688 l 1
 600 688 l 1
 600 577 l 1
EndSplineSet
EndChar

StartChar: U
Encoding: 85 85 54
Width: 722
GlyphClass: 2
Flags: MW
HStem: -10 113<307 408.5 307 451> 668 20G<60 204 204 204 517 661 661 661>
VStem: 60 144<258 269 269 688> 517 144<274 688>
LayerCount: 2
Fore
SplineSet
353 -10 m 0
 164 -10 60 86 60 258 c 2
 60 688 l 1
 204 688 l 1
 204 269 l 2
 204 161 257 103 357 103 c 0
 460 103 517 163 517 274 c 2
 517 688 l 1
 661 688 l 1
 661 265 l 2
 661 90 549 -10 353 -10 c 0
EndSplineSet
EndChar

StartChar: V
Encoding: 86 86 55
Width: 667
GlyphClass: 2
Flags: MW
HStem: 0 21G<261 407 261 261> 0 116<335 335 335 407 261 335> 668 20G<7 157 157 157 511 660 660 660>
VStem: 7 653<688 688>
LayerCount: 2
Fore
SplineSet
660 688 m 1xb0
 407 0 l 1
 261 0 l 1
 7 688 l 1
 157 688 l 1
 299 246 l 2
 308 217 320 174 335 116 c 1
 345 158 l 1x70
 370 246 l 1
 511 688 l 1
 660 688 l 1xb0
EndSplineSet
EndChar

StartChar: W
Encoding: 87 87 56
Width: 944
GlyphClass: 2
Flags: MW
HStem: 0 21G<178 349 178 178 594 765 594 594> 0 136<269 269 269 349 178 269> 545 143 668 20G<1 147 147 147 393 554 554 554 797 943 943 943>
VStem: 1 942<688 688>
LayerCount: 2
Fore
SplineSet
943 688 m 1x98
 765 0 l 1
 594 0 l 1
 501 398 l 2
 490 445 480 494 472 545 c 1
 464 502 458 470 453 447 c 0xa8
 448 425 414 276 349 0 c 1
 178 0 l 1
 1 688 l 1
 147 688 l 1
 247 244 l 1
 269 136 l 1
 296 266 l 2
 305 307 337 448 393 688 c 1
 554 688 l 1
 641 322 l 2
 648 295 659 233 676 136 c 1
 688 193 l 1x58
 714 305 l 1
 797 688 l 1
 943 688 l 1x98
EndSplineSet
EndChar

StartChar: X
Encoding: 88 88 57
Width: 667
GlyphClass: 2
Flags: MW
HStem: 0 21G<9 161 9 9 507 658 507 507> 668 20G<29 181 181 181 487 638 638 638>
VStem: 9 649<0 0>
LayerCount: 2
Fore
SplineSet
658 0 m 1
 507 0 l 1
 334 274 l 1
 161 0 l 1
 9 0 l 1
 247 362 l 1
 29 688 l 1
 181 688 l 1
 334 445 l 1
 487 688 l 1
 638 688 l 1
 429 362 l 1
 658 0 l 1
EndSplineSet
EndChar

StartChar: Y
Encoding: 89 89 58
Width: 667
GlyphClass: 2
Flags: MW
HStem: 0 21G<262 406 262 262> 668 20G<17 168 168 168 500 651 651 651>
VStem: 262 144<0 282 0 282>
LayerCount: 2
Fore
SplineSet
651 688 m 1
 406 282 l 1
 406 0 l 1
 262 0 l 1
 262 282 l 1
 17 688 l 1
 168 688 l 1
 333 397 l 1
 500 688 l 1
 651 688 l 1
EndSplineSet
EndChar

StartChar: Z
Encoding: 90 90 59
Width: 611
GlyphClass: 2
Flags: MW
HStem: 0 113<190 582 190 582> 575 113<67 402 67 562>
VStem: 30 552<0 102 102 102>
LayerCount: 2
Fore
SplineSet
582 113 m 1
 582 0 l 1
 30 0 l 1
 30 102 l 1
 402 575 l 1
 67 575 l 1
 67 688 l 1
 562 688 l 1
 562 588 l 1
 190 113 l 1
 582 113 l 1
EndSplineSet
EndChar

StartChar: bracketleft
Encoding: 91 91 60
Width: 333
GlyphClass: 2
Flags: MW
HStem: -208 94<186 321 186 321> 632 93<186 321 186 186>
VStem: 56 130<-114 632 -114 725 -114 725>
LayerCount: 2
Fore
SplineSet
321 -208 m 1
 56 -208 l 1
 56 725 l 1
 321 725 l 1
 321 632 l 1
 186 632 l 1
 186 -114 l 1
 321 -114 l 1
 321 -208 l 1
EndSplineSet
EndChar

StartChar: backslash
Encoding: 92 92 61
Width: 278
GlyphClass: 2
Flags: MW
HStem: -20 745<10 269 10 150>
VStem: 10 259
LayerCount: 2
Fore
SplineSet
269 -20 m 1
 150 -20 l 1
 10 725 l 1
 126 725 l 1
 269 -20 l 1
EndSplineSet
EndChar

StartChar: bracketright
Encoding: 93 93 62
Width: 333
GlyphClass: 2
Flags: MW
HStem: -208 94<12 148 12 277 12 148> 632 93<12 148 12 277>
VStem: 148 129<-114 632 632 632>
LayerCount: 2
Fore
SplineSet
277 -208 m 1
 12 -208 l 1
 12 -114 l 1
 148 -114 l 1
 148 632 l 1
 12 632 l 1
 12 725 l 1
 277 725 l 1
 277 -208 l 1
EndSplineSet
EndChar

StartChar: asciicircum
Encoding: 94 94 63
Width: 584
GlyphClass: 2
Flags: MW
HStem: 618 70<291 291>
VStem: 22 540<251 251>
LayerCount: 2
Fore
SplineSet
562 251 m 1
 450 251 l 1
 291 618 l 1
 133 251 l 1
 22 251 l 1
 213 688 l 1
 370 688 l 1
 562 251 l 1
EndSplineSet
EndChar

StartChar: underscore
Encoding: 95 95 64
Width: 556
GlyphClass: 2
Flags: MW
HStem: -122 38<-10 565 -10 565>
VStem: -10 575<-122 -84 -122 -84>
LayerCount: 2
Fore
SplineSet
565 -122 m 1
 -10 -122 l 1
 -10 -84 l 1
 565 -84 l 1
 565 -122 l 1
EndSplineSet
EndChar

StartChar: grave
Encoding: 96 96 65
Width: 333
GlyphClass: 2
Flags: MW
HStem: 712 21<32 158>
VStem: 32 249<578 733 578 733>
LayerCount: 2
Fore
SplineSet
281 578 m 1
 198 578 l 1
 32 712 l 1
 32 733 l 1
 158 733 l 1
 281 593 l 1
 281 578 l 1
EndSplineSet
EndChar

StartChar: a
Encoding: 97 97 66
Width: 556
GlyphClass: 2
Flags: MW
HStem: -10 96<216.5 230.5> -6 84<440.5 537.5> 244 74<238 281> 449 89<248.5 301.5>
VStem: 29 143<135.5 179.5 135.5 203.5> 352 137<218 245 245 245 320 347 347 349>
LayerCount: 2
Fore
SplineSet
192 -10 m 0xbc
 89 -10 29 49 29 149 c 0
 29 258 102 317 238 318 c 2
 352 320 l 1
 352 347 l 2
 352 416 329 449 274 449 c 0
 223 449 203 428 196 375 c 1
 53 381 l 1
 70 484 148 538 280 538 c 0
 413 538 489 469 489 349 c 2
 489 156 l 2
 489 97 501 78 532 78 c 0
 543 78 553 79 563 81 c 1
 563 7 l 1
 530 -1 513 -6 475 -6 c 0x7c
 406 -6 376 29 369 94 c 1
 366 94 l 1
 327 25 269 -10 192 -10 c 0xbc
352 218 m 2
 352 245 l 1
 281 244 l 2
 249 243 226 239 213 233 c 0
 186 222 172 199 172 160 c 0
 172 111 197 86 236 86 c 0
 300 86 352 146 352 218 c 2
EndSplineSet
EndChar

StartChar: b
Encoding: 98 98 67
Width: 611
GlyphClass: 2
Flags: MW
HStem: -10 94<329.5 354.5 280.5 432.5> 0 84<66 354.5> 443 95<335 355.5>
VStem: 70 137<522 725> 427 143<205.5 326>
LayerCount: 2
Fore
SplineSet
570 266 m 0xb8
 570 91 498 -10 367 -10 c 0
 292 -10 236 24 207 85 c 1
 206 85 l 1
 206 74 205 58 204 38 c 0xb8
 203 18 201 5 199 0 c 1
 66 0 l 1x78
 69 30 70 70 70 121 c 2
 70 725 l 1
 207 725 l 1
 207 522 l 1
 205 437 l 1
 207 437 l 1
 238 504 294 538 376 538 c 0
 501 538 570 439 570 266 c 0xb8
427 266 m 0
 427 386 392 443 319 443 c 0
 244 443 205 379 205 262 c 0
 205 150 243 84 318 84 c 0
 391 84 427 145 427 266 c 0
EndSplineSet
EndChar

StartChar: c
Encoding: 99 99 68
Width: 556
GlyphClass: 2
Flags: MW
HStem: -10 94<255 317 255 354.5> 444 94<253.5 317.5>
VStem: 39 144<206 326 206 348.5>
LayerCount: 2
Fore
SplineSet
290 -10 m 0
 130 -10 39 90 39 261 c 0
 39 436 131 538 292 538 c 0
 416 538 502 471 523 362 c 1
 385 355 l 1
 377 410 346 444 289 444 c 0
 218 444 183 385 183 267 c 0
 183 145 219 84 291 84 c 0
 343 84 381 117 389 182 c 1
 527 176 l 1
 513 67 419 -10 290 -10 c 0
EndSplineSet
EndChar

StartChar: d
Encoding: 100 100 69
Width: 611
GlyphClass: 2
Flags: MW
HStem: -10 94<256 275.5> 0 84 445 93<256.5 281.5 179.5 330.5>
VStem: 41 143<204 324.5 204 351.5> 404 137<445 445 532 725>
LayerCount: 2
Fore
SplineSet
545 0 m 1x78
 412 0 l 1
 411 5 409 17 407 36 c 0x78
 406 56 405 73 405 86 c 1
 403 86 l 1
 373 22 317 -10 234 -10 c 0xb8
 111 -10 41 91 41 264 c 0
 41 439 115 538 244 538 c 0
 319 538 375 506 404 445 c 1
 405 445 l 1
 404 532 l 1
 404 725 l 1
 541 725 l 1
 541 115 l 2
 541 82 542 44 545 0 c 1x78
406 267 m 0
 406 382 368 445 293 445 c 0
 220 445 184 385 184 264 c 0
 184 144 220 84 292 84 c 0xb8
 364 84 406 150 406 267 c 0
EndSplineSet
EndChar

StartChar: e
Encoding: 101 101 70
Width: 556
GlyphClass: 2
Flags: MW
HStem: -10 92<257.5 317.5 257.5 343.5> 238 86<184 389 184 522 183 389> 452 86<254 316.5>
VStem: 39 144<186.5 238 186.5 353.5> 389 133<238 324>
LayerCount: 2
Fore
SplineSet
286 -10 m 0
 127 -10 39 86 39 267 c 0
 39 440 129 538 288 538 c 0
 440 538 522 435 522 242 c 2
 522 238 l 1
 183 238 l 1
 183 135 222 82 293 82 c 0
 342 82 372 103 385 145 c 1
 514 134 l 1
 477 38 401 -10 286 -10 c 0
286 452 m 0
 222 452 187 404 184 324 c 1
 389 324 l 1
 384 409 347 452 286 452 c 0
EndSplineSet
EndChar

StartChar: f
Encoding: 102 102 71
Width: 333
GlyphClass: 2
Flags: MW
HStem: 0 21G<94 231 94 94> 436 92<17 94 17 94 231 335> 633 92<196 301.5>
VStem: 94 137<0 436 0 436 528 570 0 583>
LayerCount: 2
Fore
SplineSet
335 436 m 1
 231 436 l 1
 231 0 l 1
 94 0 l 1
 94 436 l 1
 17 436 l 1
 17 528 l 1
 94 528 l 1
 94 583 l 2
 94 679 144 725 248 725 c 0
 274 725 303 722 335 717 c 1
 335 628 l 1
 322 631 308 633 295 633 c 0
 248 633 231 617 231 570 c 2
 231 528 l 1
 335 528 l 1
 335 436 l 1
EndSplineSet
EndChar

StartChar: g
Encoding: 103 103 72
Width: 611
GlyphClass: 2
Flags: MW
HStem: -212 90<269 333 269 372.5> 1 95<256.5 276.5> 444 84 444 95<257.5 283.5 179 330>
VStem: 41 143<211.5 327.5 211.5 355> 405 136<18 46 46 46 98 98>
LayerCount: 2
Fore
SplineSet
291 -212 m 0xdc
 162 -212 82 -161 63 -70 c 1
 200 -54 l 1
 211 -95 243 -122 295 -122 c 0
 371 -122 405 -74 405 18 c 2
 405 46 l 1
 406 98 l 1
 405 98 l 1
 374 33 318 1 235 1 c 0
 112 1 41 97 41 269 c 0
 41 441 113 539 245 539 c 0
 322 539 375 507 405 443 c 1
 407 443 l 1
 407 454 408 470 409 489 c 0xdc
 411 509 413 522 414 528 c 1
 544 528 l 1xec
 542 493 541 453 541 406 c 2
 541 16 l 2
 541 -135 454 -212 291 -212 c 0xdc
406 271 m 0
 406 380 366 444 294 444 c 0
 221 444 184 386 184 269 c 0
 184 154 220 96 293 96 c 0
 366 96 406 160 406 271 c 0
EndSplineSet
EndChar

StartChar: h
Encoding: 104 104 73
Width: 611
GlyphClass: 2
Flags: MW
HStem: 0 21G<70 207 70 70 412 549 412 412> 435 103<336.5 349.5>
VStem: 70 137<0 283 509.5 527 527 725> 412 137<0 296 296 335 0 342.5>
LayerCount: 2
Fore
SplineSet
203 423 m 1
 205 423 l 1
 242 503 298 538 375 538 c 0
 487 538 549 468 549 335 c 2
 549 0 l 1
 412 0 l 1
 412 296 l 2
 412 389 381 435 318 435 c 0
 251 435 207 372 207 283 c 2
 207 0 l 1
 70 0 l 1
 70 725 l 1
 207 725 l 1
 207 527 l 2
 207 492 206 457 203 423 c 1
EndSplineSet
EndChar

StartChar: i
Encoding: 105 105 74
Width: 278
GlyphClass: 2
Flags: MW
HStem: 0 21G<70 207 70 70> 508 20G<70 207 207 207> 624 101<70 207 70 207>
VStem: 70 137<0 528 624 725>
LayerCount: 2
Fore
SplineSet
207 624 m 1
 70 624 l 1
 70 725 l 1
 207 725 l 1
 207 624 l 1
207 0 m 1
 70 0 l 1
 70 528 l 1
 207 528 l 1
 207 0 l 1
EndSplineSet
EndChar

StartChar: j
Encoding: 106 106 75
Width: 278
GlyphClass: 2
Flags: MW
HStem: -208 100<9 113.5> 508 20G<70 208 208 208> 624 101<70 208 70 208>
VStem: 70 138<-29 528 624 725>
LayerCount: 2
Fore
SplineSet
208 624 m 1
 70 624 l 1
 70 725 l 1
 208 725 l 1
 208 624 l 1
67 -208 m 0
 35 -208 7 -206 -16 -203 c 1
 -16 -106 l 1
 9 -108 l 2
 56 -108 70 -94 70 -29 c 2
 70 528 l 1
 208 528 l 1
 208 -63 l 2
 208 -155 160 -208 67 -208 c 0
EndSplineSet
EndChar

StartChar: k
Encoding: 107 107 76
Width: 556
GlyphClass: 2
Flags: MW
HStem: 0 21G<70 207 70 70 407 557 407 407> 508 20G<396 543 543 543>
VStem: 70 137<0 198 0 310 310 725>
LayerCount: 2
Fore
SplineSet
557 0 m 1
 407 0 l 1
 266 239 l 1
 207 198 l 1
 207 0 l 1
 70 0 l 1
 70 725 l 1
 207 725 l 1
 207 310 l 1
 396 528 l 1
 543 528 l 1
 357 322 l 1
 557 0 l 1
EndSplineSet
EndChar

StartChar: l
Encoding: 108 108 77
Width: 278
GlyphClass: 2
Flags: MW
HStem: 0 21G<70 207 70 70>
VStem: 70 137<0 725>
LayerCount: 2
Fore
SplineSet
207 0 m 1
 70 0 l 1
 70 725 l 1
 207 725 l 1
 207 0 l 1
EndSplineSet
EndChar

StartChar: m
Encoding: 109 109 78
Width: 889
GlyphClass: 2
Flags: MW
HStem: 0 21G<70 207 70 70 381 517 381 381 691 691 691 827> 436 92<66 327.5> 436 103<323.5 327.5 630.5 637.5>
VStem: 70 137<0 283 0 410 0 438.5> 381 136<0 290> 691 136<0 296 296 335 0 342.5>
LayerCount: 2
Fore
SplineSet
517 0 m 1xbc
 381 0 l 1
 381 296 l 2
 381 389 354 436 301 436 c 0xbc
 245 436 207 374 207 283 c 2
 207 0 l 1
 70 0 l 1
 70 410 l 2
 70 467 67 500 66 528 c 1
 197 528 l 1
 198 522 199 505 200 478 c 0xdc
 202 451 203 433 203 423 c 1
 205 423 l 1
 238 504 288 539 359 539 c 0
 440 539 489 500 506 423 c 1
 509 423 l 1
 545 506 592 539 669 539 c 0
 772 539 827 467 827 335 c 2
 827 0 l 1
 691 0 l 1
 691 296 l 2
 691 389 664 436 611 436 c 0
 558 436 521 381 517 290 c 1
 517 0 l 1xbc
EndSplineSet
EndChar

StartChar: n
Encoding: 110 110 79
Width: 611
GlyphClass: 2
Flags: MW
HStem: 0 21G<70 207 70 70 412 549 412 412> 436 92<66 349.5> 436 103<336.5 349.5>
VStem: 70 137<0 283 0 410 0 438.5> 412 137<0 296 296 335>
LayerCount: 2
Fore
SplineSet
549 0 m 1xb8
 412 0 l 1
 412 296 l 2
 412 389 381 436 318 436 c 0xb8
 251 436 207 372 207 283 c 2
 207 0 l 1
 70 0 l 1
 70 410 l 2
 70 467 67 500 66 528 c 1
 197 528 l 1
 198 522 199 505 200 478 c 0xd8
 202 451 203 433 203 423 c 1
 205 423 l 1
 242 504 298 539 375 539 c 0
 487 539 549 468 549 335 c 2
 549 0 l 1xb8
EndSplineSet
EndChar

StartChar: o
Encoding: 111 111 80
Width: 611
GlyphClass: 2
Flags: MW
HStem: -10 94<263.5 344 263.5 387> 444 94<266.5 347.5>
VStem: 39 144<222.5 324.5 205.5 349.5> 428 144<204.5 327.5>
LayerCount: 2
Fore
SplineSet
572 265 m 0
 572 93 471 -10 303 -10 c 0
 221 -10 156 14 109 63 c 0
 62 112 39 180 39 265 c 0
 39 434 138 538 306 538 c 0
 479 538 572 441 572 265 c 0
428 265 m 0
 428 390 387 444 308 444 c 0
 225 444 183 384 183 265 c 0
 183 146 225 84 302 84 c 0
 386 84 428 144 428 265 c 0
EndSplineSet
EndChar

StartChar: p
Encoding: 112 112 81
Width: 611
GlyphClass: 2
Flags: MW
HStem: -208 21G<70 207 70 70> -10 94<330.5 353.5> 444 84<66 354.5> 444 96<335 354.5>
VStem: 70 137<-208 -5 -208 84 -208 407> 427 143<206 326>
LayerCount: 2
Fore
SplineSet
570 267 m 0xdc
 570 90 496 -10 367 -10 c 0
 294 -10 236 24 207 84 c 1
 204 84 l 1
 206 74 207 44 207 -5 c 2
 207 -208 l 1
 70 -208 l 1
 70 407 l 2
 70 456 69 497 66 528 c 1
 199 528 l 1xec
 203 517 205 477 205 442 c 1
 207 442 l 1
 238 507 294 540 376 540 c 0
 499 540 570 440 570 267 c 0xdc
427 267 m 0
 427 385 391 444 318 444 c 0
 245 444 205 378 205 263 c 0
 205 148 245 84 317 84 c 0
 390 84 427 145 427 267 c 0
EndSplineSet
EndChar

StartChar: q
Encoding: 113 113 82
Width: 611
GlyphClass: 2
Flags: MW
HStem: -208 21G<405 541 405 405> -10 94<256.5 276.5> 444 84<257.5 544> 444 95<257.5 283.5 180.5 330.5>
VStem: 41 143<204 324 204 351.5> 405 136<-208 12 12 12 -208 450.5>
LayerCount: 2
Fore
SplineSet
41 264 m 0xdc
 41 439 116 539 245 539 c 0
 322 539 375 507 405 443 c 1
 405 458 406 475 407 493 c 0xdc
 409 512 411 523 412 528 c 1
 544 528 l 1xec
 542 493 541 453 541 407 c 2
 541 -208 l 1
 405 -208 l 1
 405 12 l 1
 407 88 l 1
 406 88 l 1
 376 23 319 -10 234 -10 c 0
 111 -10 41 91 41 264 c 0xdc
406 267 m 0
 406 379 367 444 294 444 c 0
 221 444 184 384 184 264 c 0
 184 144 220 84 293 84 c 0
 365 84 406 150 406 267 c 0
EndSplineSet
EndChar

StartChar: r
Encoding: 114 114 83
Width: 389
GlyphClass: 2
Flags: MW
HStem: 0 21G<70 207 70 70> 424 104<66 323.5> 424 115<310 323.5> 511 20G<374 374>
VStem: 70 137<0 259>
LayerCount: 2
Fore
SplineSet
207 0 m 1x98
 70 0 l 1
 70 404 l 2
 70 463 67 499 66 528 c 1
 197 528 l 1
 198 523 199 505 200 475 c 0xc8
 202 445 203 425 203 416 c 1
 205 416 l 1
 218 453 230 479 240 494 c 0
 261 525 288 539 332 539 c 0xa8
 349 539 363 536 374 531 c 1x98
 374 417 l 1
 352 422 332 424 315 424 c 0xa8
 247 424 207 368 207 259 c 2
 207 0 l 1x98
EndSplineSet
EndChar

StartChar: s
Encoding: 115 115 84
Width: 556
GlyphClass: 2
Flags: MW
HStem: -10 91<237 317 237 353> 447 92<247.5 313.5>
VStem: 56 126<377.5 412.5 377.5 428.5> 389 126<120.5 154 103.5 158.5>
LayerCount: 2
Fore
SplineSet
515 154 m 1
 515 53 427 -10 279 -10 c 0
 134 -10 60 35 35 132 c 1
 156 150 l 1
 169 99 195 81 279 81 c 0
 355 81 389 99 389 142 c 0
 389 175 364 194 296 207 c 0
 219 222 166 237 139 250 c 0
 86 277 56 318 56 378 c 0
 56 479 137 539 280 539 c 0
 405 539 484 488 503 396 c 1
 381 383 l 1
 373 427 347 447 280 447 c 0
 215 447 182 432 182 393 c 0
 182 362 205 346 264 334 c 0
 433 299 510 276 515 154 c 1
EndSplineSet
EndChar

StartChar: t
Encoding: 116 116 85
Width: 333
GlyphClass: 2
Flags: MW
HStem: -9 95<165 280.5> 436 92<12 79 12 86 215 315>
VStem: 79 136<135.5 161 161 436>
LayerCount: 2
Fore
SplineSet
205 -9 m 0
 125 -9 79 35 79 124 c 2
 79 436 l 1
 12 436 l 1
 12 528 l 1
 86 528 l 1
 129 652 l 1
 215 652 l 1
 215 528 l 1
 315 528 l 1
 315 436 l 1
 215 436 l 1
 215 161 l 2
 215 110 234 86 275 86 c 0
 286 86 301 88 321 93 c 1
 321 8 l 1
 287 -3 248 -9 205 -9 c 0
EndSplineSet
EndChar

StartChar: u
Encoding: 117 117 86
Width: 611
GlyphClass: 2
Flags: MW
HStem: -10 103<261.5 274.5> 0 93<261.5 545 261.5 414> 508 20G<62 199 199 199 404 541 541 541>
VStem: 62 137<193 232 232 528> 404 137<245 528>
LayerCount: 2
Fore
SplineSet
62 528 m 1xb8
 199 528 l 1
 199 232 l 2
 199 139 230 93 293 93 c 0xb8
 360 93 404 156 404 245 c 2
 404 528 l 1
 541 528 l 1
 541 118 l 2
 541 73 542 34 545 0 c 1
 414 0 l 1x78
 410 47 408 82 408 105 c 1
 406 105 l 1
 369 25 313 -10 236 -10 c 0
 124 -10 62 60 62 193 c 2
 62 528 l 1xb8
EndSplineSet
EndChar

StartChar: v
Encoding: 118 118 87
Width: 556
GlyphClass: 2
Flags: MW
HStem: 0 21G<193 357 193 193> 0 111 508 20G<4 149 149 149 408 552 552 552>
VStem: 4 548<528 528>
LayerCount: 2
Fore
SplineSet
552 528 m 1xb0
 357 0 l 1
 193 0 l 1
 4 528 l 1
 149 528 l 1
 241 233 l 2
 246 216 258 176 276 111 c 1
 279 124 286 148 296 181 c 0x70
 306 214 343 330 408 528 c 1
 552 528 l 1xb0
EndSplineSet
EndChar

StartChar: w
Encoding: 119 119 88
Width: 778
GlyphClass: 2
Flags: MW
HStem: 0 21G<134 279 134 134 496 641 496 496> 0 125<213 213 213 279 134 213> 431 97<389 389> 508 20G<-3 126 126 126 315 462 462 462 653 780 780 780>
VStem: -3 783<528 528>
LayerCount: 2
Fore
SplineSet
780 528 m 1x98
 641 0 l 1
 496 0 l 1
 412 322 l 2
 408 337 400 373 389 431 c 1xa8
 364 321 l 1
 279 0 l 1
 134 0 l 1
 -3 528 l 1
 126 528 l 1
 213 125 l 1
 220 161 l 1
 232 218 l 1
 315 528 l 1
 462 528 l 1
 543 218 l 2
 548 201 554 170 563 125 c 1
 577 189 l 1x58
 653 528 l 1
 780 528 l 1x98
EndSplineSet
EndChar

StartChar: x
Encoding: 120 120 89
Width: 556
GlyphClass: 2
Flags: MW
HStem: 0 21G<7 153 7 7 400 549 400 400> 508 20G<16 164 164 164 389 538 538 538>
VStem: 7 542<0 0>
LayerCount: 2
Fore
SplineSet
549 0 m 1
 400 0 l 1
 277 191 l 1
 153 0 l 1
 7 0 l 1
 200 273 l 1
 16 528 l 1
 164 528 l 1
 277 355 l 1
 389 528 l 1
 538 528 l 1
 354 274 l 1
 549 0 l 1
EndSplineSet
EndChar

StartChar: y
Encoding: 121 121 90
Width: 556
GlyphClass: 2
Flags: MW
HStem: -208 101<92 161.5> 508 20G<8 153 153 153 407 551 551 551>
VStem: 8 543<528 528>
LayerCount: 2
Fore
SplineSet
138 -208 m 0
 105 -208 77 -206 52 -201 c 1
 52 -104 l 1
 69 -106 85 -107 99 -107 c 0
 159 -102 178 -95 217 5 c 1
 8 528 l 1
 153 528 l 1
 236 281 l 2
 249 246 265 191 285 118 c 1
 297 164 l 1
 329 279 l 1
 407 528 l 1
 551 528 l 1
 342 -28 l 2
 314 -95 285 -142 254 -168 c 0
 224 -195 185 -208 138 -208 c 0
EndSplineSet
EndChar

StartChar: z
Encoding: 122 122 91
Width: 500
GlyphClass: 2
Flags: MW
HStem: 0 100<193 464 193 464> 429 99<60 289 60 440>
VStem: 40 424<0 97 97 97>
LayerCount: 2
Fore
SplineSet
464 0 m 1
 40 0 l 1
 40 97 l 1
 289 429 l 1
 60 429 l 1
 60 528 l 1
 440 528 l 1
 440 430 l 1
 193 100 l 1
 464 100 l 1
 464 0 l 1
EndSplineSet
EndChar

StartChar: braceleft
Encoding: 123 123 92
Width: 389
GlyphClass: 2
Flags: MW
HStem: -208 94<228.5 368 340 368 340 368> 210 96<16 16> 632 93<310 340 340 368>
VStem: 16 139<258 260 258 306 258 306> 128 128<-46.5 -12 -12 99 99 135 418 530>
LayerCount: 2
Fore
SplineSet
368 -208 m 1xe8
 272 -208 l 2
 185 -208 128 -154 128 -62 c 2
 128 99 l 2xe8
 128 172 93 209 16 210 c 1xf0
 16 306 l 1
 95 309 128 345 128 418 c 2
 128 579 l 2
 128 674 183 725 272 725 c 2
 368 725 l 1
 368 632 l 1
 340 632 l 2
 280 632 256 598 256 530 c 2
 256 383 l 2
 256 320 215 272 155 260 c 1
 155 258 l 1
 216 243 256 195 256 135 c 2
 256 -12 l 2
 256 -81 280 -114 340 -114 c 2
 368 -114 l 1
 368 -208 l 1xe8
EndSplineSet
EndChar

StartChar: bar
Encoding: 124 124 93
Width: 280
GlyphClass: 2
Flags: MW
HStem: -222 947<76 204 76 204>
VStem: 76 128<-222 725>
LayerCount: 2
Fore
SplineSet
204 -222 m 1
 76 -222 l 1
 76 725 l 1
 204 725 l 1
 204 -222 l 1
EndSplineSet
EndChar

StartChar: braceright
Encoding: 125 125 94
Width: 389
GlyphClass: 2
Flags: MW
HStem: -208 94<21 49 21 49 49 79 21 117> 210 96<374 374> 632 93<21 49 21 117>
VStem: 133 128<-12 99 383 418 418 530 530 564> 234 140<258 260 260 260>
LayerCount: 2
Fore
SplineSet
21 -208 m 1xf0
 21 -114 l 1
 49 -114 l 2
 109 -114 133 -81 133 -12 c 2
 133 135 l 2
 133 195 173 243 234 258 c 1
 234 260 l 1
 174 272 133 320 133 383 c 2
 133 530 l 2
 133 598 109 632 49 632 c 2
 21 632 l 1
 21 725 l 1
 117 725 l 2
 208 725 261 674 261 579 c 2
 261 418 l 2xf0
 261 346 295 309 374 306 c 1xe8
 374 210 l 1
 295 209 261 171 261 99 c 2
 261 -62 l 2
 261 -153 205 -208 117 -208 c 2
 21 -208 l 1xf0
EndSplineSet
EndChar

StartChar: asciitilde
Encoding: 126 126 95
Width: 584
GlyphClass: 2
Flags: MW
HStem: 252 101<417.5 444> 308 102<146.5 178>
VStem: 40 506<291 369 369 369>
LayerCount: 2
Fore
SplineSet
416 252 m 0xa0
 367 252 321 268 272 285 c 0
 228 300 192 308 164 308 c 0
 117 308 81 294 40 265 c 1
 40 369 l 1
 77 396 121 410 172 410 c 0
 206 410 245 402 290 387 c 0x60
 333 372 362 363 378 359 c 0
 395 355 410 353 425 353 c 0
 469 353 509 368 546 398 c 1
 546 291 l 1
 505 263 472 252 416 252 c 0xa0
EndSplineSet
EndChar

StartChar: exclamdown
Encoding: 161 161 97
Width: 333
GlyphClass: 2
Flags: MW
HStem: 396 132<98 238 98 238>
VStem: 98 140<396 528> 102 128
LayerCount: 2
Fore
SplineSet
238 396 m 1xc0
 98 396 l 1
 98 528 l 1
 238 528 l 1
 238 396 l 1xc0
238 -160 m 1xa0
 95 -160 l 1
 110 319 l 1
 223 319 l 1
 238 -160 l 1xa0
EndSplineSet
EndChar

StartChar: cent
Encoding: 162 162 98
Width: 556
GlyphClass: 2
Flags: MW
HStem: -15 181<247.5 315.5 247.5 326 247 315.5> 510 88<247 247 247 314.5> 510 178<247 314.5>
VStem: 25 138<283.5 393.5 283.5 410.5> 247 79<-15 77 77 77 598 688>
LayerCount: 2
Fore
SplineSet
287 166 m 0xb8
 344 166 386 203 395 268 c 1
 533 262 l 1
 518 163 442 91 326 78 c 1
 326 -15 l 1
 247 -15 l 1
 247 77 l 1
 107 90 25 182 25 335 c 0
 25 486 104 582 247 598 c 1
 247 688 l 1
 326 688 l 1xb8
 326 598 l 1xd8
 437 586 510 523 529 424 c 1
 391 417 l 1
 382 476 343 510 286 510 c 0
 206 510 163 447 163 340 c 0
 163 227 208 166 287 166 c 0xb8
EndSplineSet
EndChar

StartChar: sterling
Encoding: 163 163 99
Width: 556
GlyphClass: 2
Flags: MW
HStem: 0 102<135 321 321 354> 295 83<10 97 10 102 10 97 224 364> 605 93<278 329.5>
VStem: 97 127<378 488>
LayerCount: 2
Fore
SplineSet
432 196 m 1
 546 177 l 1
 526 65 453 0 354 0 c 2
 16 0 l 1
 16 100 l 1
 81 137 102 182 102 250 c 2
 102 295 l 1
 10 295 l 1
 10 378 l 1
 97 378 l 1
 97 499 l 2
 97 630 168 698 305 698 c 0
 416 698 475 656 504 556 c 1
 390 533 l 1
 377 584 351 605 308 605 c 0
 248 605 224 569 224 488 c 2
 224 378 l 1
 364 378 l 1
 364 295 l 1
 224 295 l 1
 224 251 l 2
 224 184 200 138 135 102 c 1
 321 102 l 2
 389 102 421 135 432 196 c 1
EndSplineSet
EndChar

StartChar: currency
Encoding: 164 164 100
Width: 556
GlyphClass: 2
Flags: MW
HStem: 122 111<258 291.5 249.5 297.5> 437 110<258.5 297.5 258.5 306>
VStem: 65 111<314.5 353.5> 379 112<321 353.5 314.5 363>
LayerCount: 2
Fore
SplineSet
65 334 m 0
 65 373 75 409 95 442 c 1
 30 507 l 1
 106 583 l 1
 170 518 l 1
 203 537 239 547 278 547 c 0
 317 547 353 537 385 518 c 1
 451 584 l 1
 528 507 l 1
 461 441 l 1
 481 409 491 373 491 334 c 0
 491 295 481 260 462 228 c 1
 528 163 l 1
 451 85 l 1
 386 151 l 1
 353 132 317 122 278 122 c 0
 238 122 202 131 170 150 c 1
 104 83 l 1
 28 160 l 1
 94 227 l 1
 75 259 65 295 65 334 c 0
176 335 m 0
 176 279 221 233 278 233 c 0
 305 233 329 243 349 263 c 0
 369 283 379 307 379 335 c 0
 379 391 334 437 278 437 c 0
 222 437 176 391 176 335 c 0
EndSplineSet
EndChar

StartChar: yen
Encoding: 165 165 101
Width: 556
GlyphClass: 2
Flags: MW
HStem: 0 187<47 344 47 211> 115 72<47 211 47 211 344 509> 266 71<47 182 47 212 47 182 374 509> 668 20G<4 145 145 145 411 552 552 552>
VStem: 211 133<0 115 0 115 0 187>
LayerCount: 2
Fore
SplineSet
552 688 m 1xb8
 374 337 l 1
 509 337 l 1
 509 266 l 1
 344 266 l 1
 344 187 l 1
 509 187 l 1xb8
 509 115 l 1
 344 115 l 1x78
 344 0 l 1
 211 0 l 1xb8
 211 115 l 1
 47 115 l 1x78
 47 187 l 1
 211 187 l 1
 212 266 l 1
 47 266 l 1
 47 337 l 1
 182 337 l 1
 4 688 l 1
 145 688 l 1
 277 397 l 1
 411 688 l 1
 552 688 l 1xb8
EndSplineSet
EndChar

StartChar: brokenbar
Encoding: 166 166 102
Width: 280
GlyphClass: 2
Flags: MW
HStem: -222 932<76 204 76 204>
VStem: 76 128<-222 158 330 710>
LayerCount: 2
Fore
SplineSet
204 330 m 1
 76 330 l 1
 76 710 l 1
 204 710 l 1
 204 330 l 1
204 -222 m 1
 76 -222 l 1
 76 158 l 1
 204 158 l 1
 204 -222 l 1
EndSplineSet
EndChar

StartChar: section
Encoding: 167 167 103
Width: 556
GlyphClass: 2
Flags: MW
HStem: -112 83<231 311 231 347> 614 83<244.5 310.5>
VStem: 44 119<299.5 323> 57 118<546.5 574.5 546.5 592.5> 393 115<16 49.5> 399 117<279.5 304.5>
LayerCount: 2
Fore
SplineSet
281 697 m 0xd8
 406 697 486 650 503 563 c 1
 387 551 l 1
 378 591 340 614 281 614 c 0
 208 614 175 596 175 553 c 0
 175 540 179 528 188 519 c 0
 197 510 209 501 225 494 c 0
 242 487 271 479 313 470 c 0
 368 458 409 445 435 432 c 0
 487 405 516 366 516 310 c 0xd4
 516 249 476 198 419 181 c 1
 478 156 508 114 508 56 c 0
 508 -52 423 -112 271 -112 c 0
 127 -112 51 -68 26 29 c 1
 142 47 l 1
 154 -5 191 -29 271 -29 c 0
 351 -29 393 -10 393 42 c 0
 393 57 389 70 381 80 c 0
 373 90 361 99 344 106 c 0
 327 113 289 124 229 138 c 0
 94 170 44 220 44 293 c 0xe8
 44 353 81 395 148 418 c 1
 89 443 57 489 57 544 c 0
 57 641 134 697 281 697 c 0xd8
399 293 m 0xe4
 399 316 389 334 370 346 c 0
 351 359 313 370 257 381 c 1
 194 374 163 349 163 306 c 0
 163 293 167 281 176 272 c 0
 185 263 197 256 213 249 c 0
 230 242 260 234 304 224 c 1
 367 227 399 250 399 293 c 0xe4
EndSplineSet
EndChar

StartChar: dieresis
Encoding: 168 168 104
Width: 333
GlyphClass: 2
Flags: MW
HStem: 585 107<8 112 8 112 220 326>
VStem: 8 104<585 692> 220 106<585 692>
LayerCount: 2
Fore
SplineSet
326 585 m 1
 220 585 l 1
 220 692 l 1
 326 692 l 1
 326 585 l 1
112 585 m 1
 8 585 l 1
 8 692 l 1
 112 692 l 1
 112 585 l 1
EndSplineSet
EndChar

StartChar: copyright
Encoding: 169 169 105
Width: 737
GlyphClass: 2
Flags: MW
HStem: -8 55<369 369> 139 69<340.5 396.5 340.5 415.5> 480 69<337.5 395.5> 642 56<369 369>
VStem: 16 56<345 345> 178 88<302 390 302 412> 667 55<345 345>
LayerCount: 2
Fore
SplineSet
722 345 m 1
 727 157 556 -14 369 -8 c 1
 174 -13 10 163 16 345 c 1
 11 533 179 704 369 698 c 1
 557 703 728 534 722 345 c 1
667 345 m 1
 672 504 527 646 369 642 c 1
 217 646 68 511 72 345 c 1
 67 187 209 42 369 47 c 1
 528 42 671 187 667 345 c 1
266 346 m 0
 266 258 306 208 375 208 c 0
 418 208 452 233 471 278 c 1
 549 255 l 1
 512 174 456 139 375 139 c 0
 250 139 178 215 178 346 c 0
 178 478 246 549 371 549 c 0
 455 549 512 513 543 437 c 1
 467 417 l 1
 450 457 418 480 373 480 c 0
 302 480 266 434 266 346 c 0
EndSplineSet
EndChar

StartChar: ordfeminine
Encoding: 170 170 106
Width: 370
GlyphClass: 2
Flags: MW
HStem: 354 64<144.5 149.5> 355 60<288.5 346> 509 47<161 188> 635 58<165.5 198.5>
VStem: 22 92<445.5 475.5 445.5 486.5> 232 89<497 510 510 510 557 577 577 578>
LayerCount: 2
Fore
SplineSet
125 354 m 0xbc
 62 354 22 389 22 453 c 0
 22 520 68 554 161 556 c 2
 232 557 l 1
 232 577 l 2
 232 616 215 635 182 635 c 0
 149 635 130 620 127 589 c 1
 34 594 l 1
 46 658 100 693 181 693 c 0
 272 693 321 651 321 578 c 2
 321 462 l 2
 321 431 325 415 346 415 c 2
 370 417 l 1
 370 364 l 1
 349 358 329 355 312 355 c 0x7c
 265 355 239 381 235 421 c 1
 234 421 l 1
 211 376 174 354 125 354 c 0xbc
160 418 m 0
 200 418 232 454 232 497 c 2
 232 510 l 1
 188 509 l 2
 131 506 114 492 114 459 c 0
 114 432 129 418 160 418 c 0
EndSplineSet
EndChar

StartChar: guillemotleft
Encoding: 171 171 107
Width: 556
GlyphClass: 2
Flags: MW
HStem: 69 390<171 286 171 287 171 286 394 510 171 511 171 394>
VStem: 45 466<69 280 69 280>
LayerCount: 2
Fore
SplineSet
511 69 m 1
 394 69 l 1
 269 245 l 1
 269 280 l 1
 394 459 l 1
 510 459 l 1
 510 441 l 1
 386 262 l 1
 511 86 l 1
 511 69 l 1
287 69 m 1
 171 69 l 1
 45 245 l 1
 45 280 l 1
 171 459 l 1
 286 459 l 1
 286 441 l 1
 162 262 l 1
 287 86 l 1
 287 69 l 1
EndSplineSet
EndChar

StartChar: logicalnot
Encoding: 172 172 108
Width: 584
GlyphClass: 2
Flags: MW
HStem: 278 109<41 433 41 542>
VStem: 433 109<69 278 278 278>
LayerCount: 2
Fore
SplineSet
542 69 m 1
 433 69 l 1
 433 278 l 1
 41 278 l 1
 41 387 l 1
 542 387 l 1
 542 69 l 1
EndSplineSet
EndChar

StartChar: uni00AD
Encoding: 173 173 109
Width: 333
GlyphClass: 2
Flags: MW
HStem: 200 119<39 293 39 293>
VStem: 39 254<200 319 200 319>
LayerCount: 2
Fore
SplineSet
293 200 m 1
 39 200 l 1
 39 319 l 1
 293 319 l 1
 293 200 l 1
EndSplineSet
EndChar

StartChar: registered
Encoding: 174 174 110
Width: 737
GlyphClass: 2
Flags: MW
HStem: -8 55<369 369> 298 63<307 364 307 377> 481 62<307 372 307 307> 642 56<369 369>
VStem: 16 56<345 345> 220 87<145 298 145 361 361 481> 442 88<405.5 442.5> 667 55<345 345>
LayerCount: 2
Fore
SplineSet
722 345 m 1
 727 157 556 -14 369 -8 c 1
 174 -13 10 163 16 345 c 1
 11 533 179 704 369 698 c 1
 557 703 728 534 722 345 c 1
667 345 m 1
 672 504 527 646 369 642 c 1
 217 646 68 511 72 345 c 1
 67 187 209 42 369 47 c 1
 528 42 671 187 667 345 c 1
549 145 m 1
 451 145 l 1
 364 298 l 1
 307 298 l 1
 307 145 l 1
 220 145 l 1
 220 543 l 1
 381 543 l 2
 481 543 530 498 530 425 c 0
 530 364 496 325 445 309 c 1
 549 145 l 1
442 424 m 0
 442 461 416 481 372 481 c 2
 307 481 l 1
 307 361 l 1
 377 361 l 2
 420 361 442 387 442 424 c 0
EndSplineSet
EndChar

StartChar: macron
Encoding: 175 175 111
Width: 552
GlyphClass: 2
Flags: MW
HStem: 709 46<-8 561 -8 561>
VStem: -8 569<709 755 709 755>
LayerCount: 2
Fore
SplineSet
561 755 m 1
 561 709 l 1
 -8 709 l 1
 -8 755 l 1
 561 755 l 1
EndSplineSet
EndChar

StartChar: degree
Encoding: 176 176 112
Width: 400
GlyphClass: 2
Flags: MW
HStem: 388 72<178.5 222> 623 73<177.5 222 156.5 222.5>
VStem: 44 75<520.5 564.5 519.5 584.5> 280 77<521 563 521 564.5>
LayerCount: 2
Fore
SplineSet
357 542 m 0
 357 500 342 464 311 433 c 0
 281 403 244 388 200 388 c 0
 157 388 121 403 90 432 c 0
 59 462 44 499 44 542 c 0
 44 627 113 696 200 696 c 0
 244 696 281 681 311 650 c 0
 342 620 357 584 357 542 c 0
280 542 m 0
 280 587 245 623 200 623 c 0
 155 623 119 587 119 542 c 0
 119 497 156 460 200 460 c 0
 244 460 280 497 280 542 c 0
EndSplineSet
EndChar

StartChar: plusminus
Encoding: 177 177 113
Width: 549
GlyphClass: 2
Flags: MW
HStem: 0 109<24 525 24 525> 345 109<24 220 24 220 329 525>
VStem: 220 109<179 345 179 345 454 620>
LayerCount: 2
Fore
SplineSet
525 345 m 1
 329 345 l 1
 329 179 l 1
 220 179 l 1
 220 345 l 1
 24 345 l 1
 24 454 l 1
 220 454 l 1
 220 620 l 1
 329 620 l 1
 329 454 l 1
 525 454 l 1
 525 345 l 1
525 0 m 1
 24 0 l 1
 24 109 l 1
 525 109 l 1
 525 0 l 1
EndSplineSet
EndChar

StartChar: uni00B2
Encoding: 178 178 114
Width: 333
GlyphClass: 2
Flags: MW
HStem: 339 67<135 312 135 312> 634 62<155.5 182.5>
VStem: 209 97<577.5 604.5>
LayerCount: 2
Fore
SplineSet
312 339 m 1
 26 339 l 1
 25 398 l 1
 44 438 76 469 135 508 c 0
 192 544 209 565 209 590 c 0
 209 619 196 634 169 634 c 0
 142 634 126 618 123 586 c 1
 28 589 l 1
 37 653 89 696 169 696 c 0
 254 696 306 658 306 594 c 0
 306 553 281 517 231 485 c 0
 198 464 175 448 162 437 c 0
 149 427 140 417 135 406 c 1
 312 406 l 1
 312 339 l 1
EndSplineSet
EndChar

StartChar: uni00B3
Encoding: 179 179 115
Width: 333
GlyphClass: 2
Flags: MW
HStem: 334 62<152.5 185.5 152.5 215.5> 488 62<124 149 149 151 124 149> 634 62<153 181>
VStem: 21 93<436 441> 29 91<591 597> 211 91<583.5 606.5> 219 93<427.5 458>
LayerCount: 2
Fore
SplineSet
312 437 m 0xf2
 312 373 260 334 171 334 c 0
 83 334 30 368 21 436 c 1
 114 441 l 1xf2
 117 411 136 396 169 396 c 0
 202 396 219 412 219 443 c 0
 219 473 196 488 151 488 c 2
 124 488 l 1
 124 550 l 1xea
 149 550 l 2
 190 550 211 566 211 594 c 0
 211 619 195 634 167 634 c 0
 139 634 123 620 120 591 c 1
 29 597 l 1
 36 658 89 696 170 696 c 0
 253 696 302 660 302 604 c 0xec
 302 563 280 532 228 521 c 1
 228 520 l 1
 283 515 312 482 312 437 c 0xf2
EndSplineSet
EndChar

StartChar: acute
Encoding: 180 180 116
Width: 333
GlyphClass: 2
Flags: MW
HStem: 712 21<166 292>
VStem: 42 250<578 733 593 733>
LayerCount: 2
Fore
SplineSet
125 578 m 1
 42 578 l 1
 42 593 l 1
 166 733 l 1
 292 733 l 1
 292 712 l 1
 125 578 l 1
EndSplineSet
EndChar

StartChar: mu
Encoding: 181 181 117
Width: 576
GlyphClass: 2
Flags: MW
HStem: -208 21G<65 203 65 65> -10 104<261.5 304.5> 0 94<258.5 516 258.5 385> 508 20G<65 203 203 203 375 512 512 512>
VStem: 65 138<-208 -22 -208 34 184.5 233 233 528> 375 137<246 528>
LayerCount: 2
Fore
SplineSet
516 0 m 1xbc
 385 0 l 1xbc
 381 33 379 56 379 70 c 1
 377 70 l 1
 356 14 330 -10 279 -10 c 0
 244 -10 218 7 203 34 c 1
 201 34 l 1
 202 20 203 1 203 -22 c 2
 203 -208 l 1
 65 -208 l 1
 65 528 l 1
 203 528 l 1
 203 233 l 2
 203 136 229 94 288 94 c 0xdc
 347 94 375 142 375 246 c 2
 375 528 l 1
 512 528 l 1
 512 118 l 2
 512 76 513 37 516 0 c 1xbc
EndSplineSet
EndChar

StartChar: paragraph
Encoding: 182 182 118
Width: 556
GlyphClass: 2
Flags: MW
HStem: 618 70<288 383 288 288 459 523 459 459>
VStem: 212 76<-129 339 339 339> 383 76<-129 618 -129 618>
LayerCount: 2
Fore
SplineSet
523 618 m 1
 459 618 l 1
 459 -129 l 1
 383 -129 l 1
 383 618 l 1
 288 618 l 1
 288 -129 l 1
 212 -129 l 1
 212 339 l 1
 101 339 35 401 35 512 c 0
 35 623 103 688 216 688 c 2
 523 688 l 1
 523 618 l 1
EndSplineSet
EndChar

StartChar: periodcentered
Encoding: 183 183 119
Width: 333
GlyphClass: 2
Flags: MW
HStem: 259 149<69 209 69 209>
VStem: 69 140<259 408>
LayerCount: 2
Fore
SplineSet
209 259 m 1
 69 259 l 1
 69 408 l 1
 209 408 l 1
 209 259 l 1
EndSplineSet
EndChar

StartChar: cedilla
Encoding: 184 184 120
Width: 333
GlyphClass: 2
Flags: MW
HStem: -208 58<88.5 110.5 80 144> -83 83<100 116.5>
VStem: 155 89<-128 -105.5>
LayerCount: 2
Fore
SplineSet
244 -115 m 0
 244 -176 192 -208 96 -208 c 0
 81 -208 65 -207 47 -205 c 1
 47 -147 l 1
 58 -149 72 -150 88 -150 c 0
 133 -150 155 -139 155 -117 c 0
 155 -94 138 -83 95 -83 c 0
 83 -83 75 -83 70 -84 c 1
 100 0 l 1
 170 0 l 1
 154 -40 l 1
 215 -43 244 -72 244 -115 c 0
EndSplineSet
EndChar

StartChar: uni00B9
Encoding: 185 185 121
Width: 333
GlyphClass: 2
Flags: MW
HStem: 339 59<40 130 219 302 40 130> 626 64<130 219> 670 20G<133 219 219 219>
VStem: 130 89<398 626 626 626>
LayerCount: 2
Fore
SplineSet
302 339 m 1xb0
 40 339 l 1
 40 398 l 1
 130 398 l 1
 130 626 l 1
 45 574 l 1
 45 633 l 1xd0
 133 690 l 1
 219 690 l 1
 219 398 l 1
 302 398 l 1
 302 339 l 1xb0
EndSplineSet
EndChar

StartChar: ordmasculine
Encoding: 186 186 122
Width: 365
GlyphClass: 2
Flags: MW
HStem: 354 68<161 207 161 235> 623 70<162 210>
VStem: 22 97<489.5 558 489.5 576.5> 250 98<489.5 558.5>
LayerCount: 2
Fore
SplineSet
348 524 m 0
 348 419 287 354 183 354 c 0
 84 354 22 417 22 524 c 0
 22 629 82 693 185 693 c 0
 289 693 348 633 348 524 c 0
250 524 m 0
 250 593 234 623 186 623 c 0
 138 623 119 592 119 524 c 0
 119 455 139 422 183 422 c 0
 231 422 250 455 250 524 c 0
EndSplineSet
EndChar

StartChar: guillemotright
Encoding: 187 187 123
Width: 556
GlyphClass: 2
Flags: MW
HStem: 69 390<46 163 46 163 45 163 46 270 271 386 46 386>
VStem: 45 467<69 280 86 280>
LayerCount: 2
Fore
SplineSet
163 69 m 1
 45 69 l 1
 45 86 l 1
 170 262 l 1
 46 441 l 1
 46 459 l 1
 163 459 l 1
 288 280 l 1
 288 245 l 1
 163 69 l 1
386 69 m 1
 270 69 l 1
 270 86 l 1
 395 262 l 1
 271 441 l 1
 271 459 l 1
 386 459 l 1
 512 280 l 1
 512 245 l 1
 386 69 l 1
EndSplineSet
EndChar

StartChar: onequarter
Encoding: 188 188 124
Width: 834
GlyphClass: 2
Flags: MW
HStem: 0 137<548 647 548 736> 69 68<548 647 548 647 736 787> 285 67<649 649> 339 59<46 136 225 308 46 136> 626 64<136 225> 668 20G<604 703 703 703> 670 20G<139 225 225 225>
VStem: 136 89<398 626 626 626> 647 89<0 69 0 69 137 232 232 232>
LayerCount: 2
Fore
SplineSet
308 339 m 1x5380
 46 339 l 1x5580
 46 398 l 1
 136 398 l 1x9380
 136 626 l 1
 51 574 l 1
 51 633 l 1x5380
 139 690 l 1
 225 690 l 1
 225 398 l 1
 308 398 l 1xa380
 308 339 l 1x5380
703 688 m 1
 266 0 l 1
 167 0 l 1xa380
 604 688 l 1
 703 688 l 1
787 69 m 1
 736 69 l 1
 736 0 l 1
 647 0 l 1
 647 69 l 1
 479 69 l 1x9380
 479 141 l 1
 633 352 l 1
 736 352 l 1
 736 137 l 1
 787 137 l 1
 787 69 l 1
647 232 m 1x9980
 649 285 l 1
 644 275 l 2
 635 260 626 245 617 232 c 2
 548 137 l 1
 647 137 l 1
 647 232 l 1x9980
EndSplineSet
EndChar

StartChar: onehalf
Encoding: 189 189 125
Width: 834
GlyphClass: 2
Flags: MW
HStem: 0 67<610 787 610 787> 295 62<631 658> 339 59<46 136 225 308 46 136> 626 64<136 225> 668 20G<595 693 693 693> 670 20G<139 225 225 225>
VStem: 136 89<398 626 626 626> 684 97<237.5 265>
LayerCount: 2
Fore
SplineSet
308 339 m 1xa6
 46 339 l 1
 46 398 l 1
 136 398 l 1
 136 626 l 1
 51 574 l 1
 51 633 l 1xb2
 139 690 l 1
 225 690 l 1
 225 398 l 1
 308 398 l 1
 308 339 l 1xa6
693 688 m 1xcb
 256 0 l 1
 158 0 l 1
 595 688 l 1
 693 688 l 1xcb
787 0 m 1
 501 0 l 1
 500 59 l 1
 519 98 551 131 610 168 c 0
 667 205 684 225 684 250 c 0
 684 280 671 295 645 295 c 0
 617 295 601 279 598 247 c 1
 503 250 l 1
 512 314 564 357 645 357 c 0
 729 357 781 319 781 254 c 0
 781 213 756 177 706 146 c 0
 673 124 650 108 637 98 c 0
 624 88 615 78 610 67 c 1
 787 67 l 1
 787 0 l 1
EndSplineSet
EndChar

StartChar: threequarters
Encoding: 190 190 126
Width: 834
GlyphClass: 2
Flags: MW
HStem: 0 137<548 647 548 736> 69 68<548 647 548 647 736 787> 285 67<649 649> 334 62<181 214.5 181 244.5> 488 62<153 178 178 180 153 178> 634 62<181.5 210> 668 20G<604 703 703 703>
VStem: 50 93<436 441> 58 90<591 597> 240 91<583.5 606.5> 248 92<427.5 458> 647 89<0 69 0 69 137 232 232 232>
LayerCount: 2
Fore
SplineSet
703 688 m 1x5c10
 266 0 l 1
 167 0 l 1
 604 688 l 1xac10
 703 688 l 1x5c10
787 69 m 1
 736 69 l 1
 736 0 l 1xac10
 647 0 l 1
 647 69 l 1
 479 69 l 1x5a10
 479 141 l 1
 633 352 l 1x9c10
 736 352 l 1
 736 137 l 1
 787 137 l 1x5c10
 787 69 l 1
647 232 m 1
 649 285 l 1
 644 275 l 2
 635 260 626 245 617 232 c 2
 548 137 l 1
 647 137 l 1
 647 232 l 1
340 437 m 0x9c30
 340 373 289 334 200 334 c 0
 112 334 59 368 50 436 c 1
 143 441 l 1x9d10
 146 411 164 396 198 396 c 0
 231 396 248 412 248 443 c 0
 248 473 225 488 180 488 c 2
 153 488 l 1
 153 550 l 1x9cb0
 178 550 l 2
 218 550 240 566 240 594 c 0
 240 619 224 634 196 634 c 0
 167 634 151 620 148 591 c 1
 58 597 l 1
 65 658 118 696 199 696 c 0
 282 696 331 660 331 604 c 0x9cd0
 331 563 308 532 257 521 c 1
 257 520 l 1
 310 515 340 482 340 437 c 0x9c30
EndSplineSet
EndChar

StartChar: questiondown
Encoding: 191 191 127
Width: 611
GlyphClass: 2
Flags: MW
HStem: -170 110<267.5 334.5 267.5 376.5> 396 132<254 395 254 395>
VStem: 56 138<4.5 55.5 4.5 59> 254 141<396 528 396 528> 261 130<320 320>
LayerCount: 2
Fore
SplineSet
56 27 m 0xf0
 56 91 79 136 156 191 c 2
 194 218 l 2
 238 250 258 281 261 320 c 1
 391 320 l 1xe8
 387 255 353 203 289 159 c 0
 220 110 194 78 194 33 c 0
 194 -24 233 -60 302 -60 c 0
 367 -60 416 -18 424 45 c 1
 563 40 l 1
 546 -93 449 -170 304 -170 c 0
 149 -170 56 -96 56 27 c 0xf0
254 528 m 1
 395 528 l 1
 395 396 l 1
 254 396 l 1
 254 528 l 1
EndSplineSet
EndChar

StartChar: Agrave
Encoding: 192 192 128
Width: 722
GlyphClass: 2
Flags: MW
HStem: 0 21G<25 169 25 25 553 696 553 553> 176 108<262 460 262 492 230 460> 582 106<361 361> 668 20G<276 446 446 446> 865 21<209 335>
VStem: 25 671<0 0>
LayerCount: 2
Fore
SplineSet
696 0 m 1xdc
 553 0 l 1
 492 176 l 1
 230 176 l 1
 169 0 l 1
 25 0 l 1
 276 688 l 1
 446 688 l 1
 696 0 l 1xdc
371 548 m 1
 361 582 l 1
 358 571 l 1
 346 531 l 1xec
 262 284 l 1
 460 284 l 1
 392 482 l 1
 371 548 l 1
458 747 m 1
 375 747 l 1
 209 865 l 1
 209 886 l 1
 335 886 l 1
 458 762 l 1
 458 747 l 1
EndSplineSet
EndChar

StartChar: Aacute
Encoding: 193 193 129
Width: 722
GlyphClass: 2
Flags: MW
HStem: 0 21G<25 169 25 25 553 696 553 553> 176 108<262 460 262 492 230 460> 582 106<361 361> 668 20G<276 446 446 446> 865 21<403 529>
VStem: 25 671<0 0>
LayerCount: 2
Fore
SplineSet
696 0 m 1xdc
 553 0 l 1
 492 176 l 1
 230 176 l 1
 169 0 l 1
 25 0 l 1
 276 688 l 1
 446 688 l 1
 696 0 l 1xdc
371 548 m 1
 361 582 l 1
 358 571 l 1
 346 531 l 1xec
 262 284 l 1
 460 284 l 1
 392 482 l 1
 371 548 l 1
363 747 m 1
 280 747 l 1
 280 762 l 1
 403 886 l 1
 529 886 l 1
 529 865 l 1
 363 747 l 1
EndSplineSet
EndChar

StartChar: Acircumflex
Encoding: 194 194 130
Width: 722
GlyphClass: 2
Flags: MW
HStem: 0 21G<25 169 25 25 553 696 553 553> 176 108<262 460 262 492 230 460> 582 106<361 361> 668 20G<276 446 446 446> 747 149<181 418 181 418 307 541 307 463>
VStem: 25 671<0 0>
LayerCount: 2
Fore
SplineSet
696 0 m 1xdc
 553 0 l 1
 492 176 l 1
 230 176 l 1
 169 0 l 1
 25 0 l 1
 276 688 l 1
 446 688 l 1
 696 0 l 1xdc
371 548 m 1
 361 582 l 1
 358 571 l 1
 346 531 l 1xec
 262 284 l 1
 460 284 l 1
 392 482 l 1
 371 548 l 1
418 896 m 1
 541 761 l 1
 541 747 l 1
 463 747 l 1
 364 821 l 1
 362 821 l 1
 259 747 l 1
 181 747 l 1
 181 761 l 1
 307 896 l 1
 418 896 l 1
EndSplineSet
EndChar

StartChar: Atilde
Encoding: 195 195 131
Width: 722
GlyphClass: 2
Flags: MW
HStem: 0 21G<25 169 25 25 553 696 553 553> 176 108<262 460 262 492 230 460> 582 106<361 361> 668 20G<276 446 446 446> 747 83<418 449.5 418 475.5> 807 83<280 304>
VStem: 25 671<0 0>
LayerCount: 2
Fore
SplineSet
696 0 m 1xd2
 553 0 l 1
 492 176 l 1
 230 176 l 1
 169 0 l 1
 25 0 l 1
 276 688 l 1
 446 688 l 1
 696 0 l 1xd2
371 548 m 1
 361 582 l 1
 358 571 l 1
 346 531 l 1xea
 262 284 l 1
 460 284 l 1
 392 482 l 1
 371 548 l 1
442 747 m 0
 385 747 323 807 285 807 c 0xd6
 258 807 246 798 237 747 c 1
 170 747 l 1xda
 179 852 206 884 280 890 c 1xd6
 339 890 399 830 437 830 c 0
 462 830 476 842 485 890 c 1
 551 890 l 1
 546 787 509 747 442 747 c 0
EndSplineSet
EndChar

StartChar: Adieresis
Encoding: 196 196 132
Width: 722
GlyphClass: 2
Flags: MW
HStem: 0 21G<25 169 25 25 553 696 553 553> 176 108<262 460 262 492 230 460> 582 106<361 361> 668 20G<276 446 446 446> 747 107<202 297 202 297 424 520>
VStem: 202 95<747 854> 424 96<747 854>
LayerCount: 2
Fore
SplineSet
696 0 m 1xde
 553 0 l 1
 492 176 l 1
 230 176 l 1
 169 0 l 1
 25 0 l 1
 276 688 l 1
 446 688 l 1
 696 0 l 1xde
371 548 m 1
 361 582 l 1
 358 571 l 1
 346 531 l 1xee
 262 284 l 1
 460 284 l 1
 392 482 l 1
 371 548 l 1
520 747 m 1
 424 747 l 1
 424 854 l 1
 520 854 l 1
 520 747 l 1
297 747 m 1
 202 747 l 1
 202 854 l 1
 297 854 l 1
 297 747 l 1
EndSplineSet
EndChar

StartChar: Aring
Encoding: 197 197 133
Width: 722
GlyphClass: 2
Flags: MW
HStem: 0 21G<25 169 25 25 553 696 553 553> 176 108<262 460 262 492 230 460> 634 54<343.5 378.5> 634 61<344.5 378.5 344.5 378.5> 819 63<344.5 378 344 378.5>
VStem: 237 63<741 775> 423 62<741 774.5>
LayerCount: 2
Fore
SplineSet
696 0 m 1xee
 553 0 l 1
 492 176 l 1
 230 176 l 1
 169 0 l 1
 25 0 l 1
 276 688 l 1
 446 688 l 1
 696 0 l 1xee
371 548 m 1
 361 582 l 1
 358 571 l 1
 346 531 l 1
 262 284 l 1
 460 284 l 1
 392 482 l 1
 371 548 l 1
485 758 m 0
 485 724 473 695 449 670 c 0
 425 646 396 634 361 634 c 0
 326 634 297 646 273 670 c 0
 249 695 237 724 237 758 c 0
 237 792 249 821 273 845 c 0
 298 870 327 882 361 882 c 0
 395 882 424 870 448 845 c 0
 473 821 485 792 485 758 c 0
423 758 m 0xde
 423 791 396 819 361 819 c 0
 328 819 300 793 300 758 c 0
 300 721 328 695 361 695 c 0
 396 695 423 722 423 758 c 0xde
EndSplineSet
EndChar

StartChar: AE
Encoding: 198 198 134
Width: 1000
GlyphClass: 2
Flags: MW
HStem: 0 111<599 961 599 961> 176 108<285 455 285 455 235 455> 296 108<599 911 599 911> 577 111<599 941 599 599> 582 106<425 455 425 425>
VStem: 455 144<111 176 176 176 284 296 404 577>
LayerCount: 2
Fore
SplineSet
961 0 m 1xb4
 455 0 l 1
 455 176 l 1
 235 176 l 1xec
 151 0 l 1
 2 0 l 1
 344 688 l 1
 941 688 l 1
 941 577 l 1
 599 577 l 1
 599 404 l 1
 911 404 l 1
 911 296 l 1
 599 296 l 1
 599 111 l 1
 961 111 l 1
 961 0 l 1xb4
455 284 m 1
 455 582 l 1
 425 582 l 1
 409 546 362 447 285 284 c 1
 455 284 l 1
EndSplineSet
EndChar

StartChar: Ccedilla
Encoding: 199 199 135
Width: 722
GlyphClass: 2
Flags: MW
HStem: -208 58<327.5 349.5 319 383> -83 43<327.5 393> -10 10<339 409 339 461.5> -10 114<322.5 431.5 322.5 461.5> 585 113<319.5 427.5>
VStem: 41 145<268.5 425 268.5 460.5> 394 89<-128 -105.5>
LayerCount: 2
Fore
SplineSet
388 104 m 0x9c
 475 104 536 147 569 234 c 1
 695 187 l 1
 640 54 535 -10 388 -10 c 0xac
 167 -10 41 122 41 347 c 0
 41 574 161 698 382 698 c 0
 543 698 645 632 686 507 c 1
 559 472 l 1
 538 541 470 585 385 585 c 0
 254 585 186 503 186 347 c 0
 186 190 257 104 388 104 c 0x9c
483 -115 m 0xee
 483 -176 431 -208 335 -208 c 0
 320 -208 304 -207 286 -205 c 1
 286 -147 l 1
 297 -149 311 -150 327 -150 c 0
 372 -150 394 -139 394 -117 c 0
 394 -94 377 -83 334 -83 c 0
 321 -83 313 -83 309 -84 c 2xee
 339 0 l 1
 409 0 l 1xae
 393 -40 l 1
 453 -43 483 -72 483 -115 c 0xee
EndSplineSet
EndChar

StartChar: Egrave
Encoding: 200 200 136
Width: 667
GlyphClass: 2
Flags: MW
HStem: 0 111<211 628 211 628> 292 112<211 578 211 578> 577 111<211 608 211 211> 865 21<193 319>
VStem: 67 144<111 292 404 577>
LayerCount: 2
Fore
SplineSet
628 0 m 1
 67 0 l 1
 67 688 l 1
 608 688 l 1
 608 577 l 1
 211 577 l 1
 211 404 l 1
 578 404 l 1
 578 292 l 1
 211 292 l 1
 211 111 l 1
 628 111 l 1
 628 0 l 1
442 747 m 1
 359 747 l 1
 193 865 l 1
 193 886 l 1
 319 886 l 1
 442 762 l 1
 442 747 l 1
EndSplineSet
EndChar

StartChar: Eacute
Encoding: 201 201 137
Width: 667
GlyphClass: 2
Flags: MW
HStem: 0 111<211 628 211 628> 292 112<211 578 211 578> 577 111<211 608 211 211> 865 21<375 501>
VStem: 67 144<111 292 404 577>
LayerCount: 2
Fore
SplineSet
628 0 m 1
 67 0 l 1
 67 688 l 1
 608 688 l 1
 608 577 l 1
 211 577 l 1
 211 404 l 1
 578 404 l 1
 578 292 l 1
 211 292 l 1
 211 111 l 1
 628 111 l 1
 628 0 l 1
335 747 m 1
 252 747 l 1
 252 762 l 1
 375 886 l 1
 501 886 l 1
 501 865 l 1
 335 747 l 1
EndSplineSet
EndChar

StartChar: Ecircumflex
Encoding: 202 202 138
Width: 667
GlyphClass: 2
Flags: MW
HStem: 0 111<211 628 211 628> 292 112<211 578 211 578> 577 111<211 608 211 211> 747 149<168 406 168 406 294 528 294 450>
VStem: 67 144<111 292 404 577>
LayerCount: 2
Fore
SplineSet
628 0 m 1
 67 0 l 1
 67 688 l 1
 608 688 l 1
 608 577 l 1
 211 577 l 1
 211 404 l 1
 578 404 l 1
 578 292 l 1
 211 292 l 1
 211 111 l 1
 628 111 l 1
 628 0 l 1
406 896 m 1
 528 761 l 1
 528 747 l 1
 450 747 l 1
 351 821 l 1
 349 821 l 1
 246 747 l 1
 168 747 l 1
 168 761 l 1
 294 896 l 1
 406 896 l 1
EndSplineSet
EndChar

StartChar: Edieresis
Encoding: 203 203 139
Width: 667
GlyphClass: 2
Flags: MW
HStem: 0 111<211 628 211 628> 292 112<211 578 211 578> 577 111<211 608 211 211> 747 107<188 283 188 283 410 506>
VStem: 67 144<111 292 404 577> 188 95<747 854> 410 96<747 854>
LayerCount: 2
Fore
SplineSet
628 0 m 1xfa
 67 0 l 1
 67 688 l 1
 608 688 l 1
 608 577 l 1
 211 577 l 1
 211 404 l 1
 578 404 l 1
 578 292 l 1
 211 292 l 1
 211 111 l 1
 628 111 l 1
 628 0 l 1xfa
506 747 m 1
 410 747 l 1
 410 854 l 1
 506 854 l 1
 506 747 l 1
283 747 m 1xf6
 188 747 l 1
 188 854 l 1
 283 854 l 1
 283 747 l 1xf6
EndSplineSet
EndChar

StartChar: Igrave
Encoding: 204 204 140
Width: 278
GlyphClass: 2
Flags: MW
HStem: 0 21G<67 211 67 67> 668 20G<67 211 211 211> 865 21<-20 106>
VStem: 67 144<0 688>
LayerCount: 2
Fore
SplineSet
211 0 m 1
 67 0 l 1
 67 688 l 1
 211 688 l 1
 211 0 l 1
229 747 m 1
 146 747 l 1
 -20 865 l 1
 -20 886 l 1
 106 886 l 1
 229 762 l 1
 229 747 l 1
EndSplineSet
EndChar

StartChar: Iacute
Encoding: 205 205 141
Width: 278
GlyphClass: 2
Flags: MW
HStem: 0 21G<67 211 67 67> 668 20G<67 211 211 211> 865 21<174 300>
VStem: 67 144<0 688>
LayerCount: 2
Fore
SplineSet
211 0 m 1
 67 0 l 1
 67 688 l 1
 211 688 l 1
 211 0 l 1
134 747 m 1
 51 747 l 1
 51 762 l 1
 174 886 l 1
 300 886 l 1
 300 865 l 1
 134 747 l 1
EndSplineSet
EndChar

StartChar: Icircumflex
Encoding: 206 206 142
Width: 278
GlyphClass: 2
Flags: MW
HStem: 0 21G<67 211 67 67> 668 20G<67 211 211 211> 747 149<-42 196 -42 196 84 318 84 241>
VStem: 67 144<0 688>
LayerCount: 2
Fore
SplineSet
211 0 m 1
 67 0 l 1
 67 688 l 1
 211 688 l 1
 211 0 l 1
196 896 m 1
 318 761 l 1
 318 747 l 1
 241 747 l 1
 142 821 l 1
 140 821 l 1
 37 747 l 1
 -42 747 l 1
 -42 761 l 1
 84 896 l 1
 196 896 l 1
EndSplineSet
EndChar

StartChar: Idieresis
Encoding: 207 207 143
Width: 278
GlyphClass: 2
Flags: MW
HStem: 0 21G<67 211 67 67> 668 20G<67 211 211 211> 747 107<-20 75 -20 75 202 298>
VStem: -20 95<747 854> 67 144<0 688> 202 96<747 854>
LayerCount: 2
Fore
SplineSet
211 0 m 1xe8
 67 0 l 1
 67 688 l 1
 211 688 l 1
 211 0 l 1xe8
298 747 m 1xf4
 202 747 l 1
 202 854 l 1
 298 854 l 1
 298 747 l 1xf4
75 747 m 1
 -20 747 l 1
 -20 854 l 1
 75 854 l 1
 75 747 l 1
EndSplineSet
EndChar

StartChar: Eth
Encoding: 208 208 144
Width: 722
GlyphClass: 2
Flags: MW
HStem: 0 113<211 333 333 345> 290 107<4 67 4 67 211 385> 575 113<211 313 211 211>
VStem: 67 144<113 290 113 290 113 290 397 575> 535 145<349 422.5>
LayerCount: 2
Fore
SplineSet
680 349 m 0
 683 137 543 -3 345 0 c 2
 67 0 l 1
 67 290 l 1
 4 290 l 1
 4 397 l 1
 67 397 l 1
 67 688 l 1
 316 688 l 2
 548 688 680 568 680 349 c 0
535 349 m 0
 535 496 457 575 313 575 c 2
 211 575 l 1
 211 397 l 1
 385 397 l 1
 385 290 l 1
 211 290 l 1
 211 113 l 1
 333 113 l 2
 457 113 535 202 535 349 c 0
EndSplineSet
EndChar

StartChar: Ntilde
Encoding: 209 209 145
Width: 722
GlyphClass: 2
Flags: MW
HStem: 0 21G<67 195 67 67 486 655 486 486> 0 154<536 536 536 655 486 536> 530 158<186 186> 668 20G<67 231 231 231 527 655 655 655> 747 83<418.5 450.5 418.5 476> 807 83<280 304.5>
VStem: 67 128<0 406 0 688> 485 66<890 890> 527 128<288 688>
LayerCount: 2
Fore
SplineSet
655 0 m 1x9a80
 486 0 l 1
 186 530 l 1xab
 192 479 195 437 195 406 c 2
 195 0 l 1
 67 0 l 1
 67 688 l 1
 231 688 l 1
 536 154 l 1x5a80
 530 203 527 248 527 288 c 2
 527 688 l 1
 655 688 l 1
 655 0 l 1x9a80
442 747 m 0
 385 747 324 807 285 807 c 0x9680
 258 807 246 798 237 747 c 1
 170 747 l 1x9a80
 179 852 206 884 280 890 c 1x9680
 339 890 400 830 437 830 c 0
 464 830 477 842 485 890 c 1
 551 890 l 1
 547 787 510 747 442 747 c 0
EndSplineSet
EndChar

StartChar: Ograve
Encoding: 210 210 146
Width: 778
GlyphClass: 2
Flags: MW
HStem: -10 114<333 387> 585 113<333.5 442.5 333.5 451.5> 865 21<267 393>
VStem: 41 145<291.5 402.5> 589 147<347 401.5 347 421>
LayerCount: 2
Fore
SplineSet
736 347 m 0
 738 133 599 -13 387 -10 c 0
 279 -10 194 22 133 85 c 0
 72 149 41 236 41 347 c 0
 41 458 72 544 133 605 c 0
 194 667 279 698 388 698 c 0
 497 698 583 667 644 604 c 0
 705 542 736 456 736 347 c 0
589 347 m 0
 589 495 515 585 388 585 c 0
 260 585 186 496 186 347 c 0
 186 196 263 104 387 104 c 0
 516 104 589 191 589 347 c 0
516 747 m 1
 433 747 l 1
 267 865 l 1
 267 886 l 1
 393 886 l 1
 516 762 l 1
 516 747 l 1
EndSplineSet
EndChar

StartChar: Oacute
Encoding: 211 211 147
Width: 778
GlyphClass: 2
Flags: MW
HStem: -10 114<333 387> 585 113<333.5 442.5 333.5 451.5> 865 21<428 554>
VStem: 41 145<291.5 402.5> 589 147<347 401.5 347 421>
LayerCount: 2
Fore
SplineSet
736 347 m 0
 738 133 599 -13 387 -10 c 0
 279 -10 194 22 133 85 c 0
 72 149 41 236 41 347 c 0
 41 458 72 544 133 605 c 0
 194 667 279 698 388 698 c 0
 497 698 583 667 644 604 c 0
 705 542 736 456 736 347 c 0
589 347 m 0
 589 495 515 585 388 585 c 0
 260 585 186 496 186 347 c 0
 186 196 263 104 387 104 c 0
 516 104 589 191 589 347 c 0
388 747 m 1
 305 747 l 1
 305 762 l 1
 428 886 l 1
 554 886 l 1
 554 865 l 1
 388 747 l 1
EndSplineSet
EndChar

StartChar: Ocircumflex
Encoding: 212 212 148
Width: 778
GlyphClass: 2
Flags: MW
HStem: -10 114<333 387> 585 113<333.5 442.5 333.5 451.5> 747 149<208 446 208 446 334 568 334 490>
VStem: 41 145<291.5 402.5> 589 147<347 401.5 347 421>
LayerCount: 2
Fore
SplineSet
736 347 m 0
 738 133 599 -13 387 -10 c 0
 279 -10 194 22 133 85 c 0
 72 149 41 236 41 347 c 0
 41 458 72 544 133 605 c 0
 194 667 279 698 388 698 c 0
 497 698 583 667 644 604 c 0
 705 542 736 456 736 347 c 0
589 347 m 0
 589 495 515 585 388 585 c 0
 260 585 186 496 186 347 c 0
 186 196 263 104 387 104 c 0
 516 104 589 191 589 347 c 0
446 896 m 1
 568 761 l 1
 568 747 l 1
 490 747 l 1
 391 821 l 1
 389 821 l 1
 286 747 l 1
 208 747 l 1
 208 761 l 1
 334 896 l 1
 446 896 l 1
EndSplineSet
EndChar

StartChar: Otilde
Encoding: 213 213 149
Width: 778
GlyphClass: 2
Flags: MW
HStem: -10 114<333 387> 585 113<333.5 442.5 333.5 451.5> 747 83<442 473.5 442 499.5> 807 83<304 328>
VStem: 41 145<291.5 402.5> 589 147<347 401.5 347 421>
LayerCount: 2
Fore
SplineSet
736 347 m 0xec
 738 133 599 -13 387 -10 c 0
 279 -10 194 22 133 85 c 0
 72 149 41 236 41 347 c 0
 41 458 72 544 133 605 c 0
 194 667 279 698 388 698 c 0
 497 698 583 667 644 604 c 0
 705 542 736 456 736 347 c 0xec
589 347 m 0
 589 495 515 585 388 585 c 0
 260 585 186 496 186 347 c 0
 186 196 263 104 387 104 c 0
 516 104 589 191 589 347 c 0
466 747 m 0
 409 747 347 807 309 807 c 0xdc
 282 807 270 798 261 747 c 1
 194 747 l 1xec
 203 852 230 884 304 890 c 1xdc
 363 890 424 830 460 830 c 0
 487 830 500 842 509 890 c 1
 575 890 l 1
 570 787 533 747 466 747 c 0
EndSplineSet
EndChar

StartChar: Odieresis
Encoding: 214 214 150
Width: 778
GlyphClass: 2
Flags: MW
HStem: -10 114<333 387> 585 113<333.5 442.5 333.5 451.5> 747 107<229 324 229 324 451 547>
VStem: 41 145<291.5 402.5> 229 95<747 854> 451 96<747 854> 589 147<347 401.5 347 421>
LayerCount: 2
Fore
SplineSet
736 347 m 0
 738 133 599 -13 387 -10 c 0
 279 -10 194 22 133 85 c 0
 72 149 41 236 41 347 c 0
 41 458 72 544 133 605 c 0
 194 667 279 698 388 698 c 0
 497 698 583 667 644 604 c 0
 705 542 736 456 736 347 c 0
589 347 m 0
 589 495 515 585 388 585 c 0
 260 585 186 496 186 347 c 0
 186 196 263 104 387 104 c 0
 516 104 589 191 589 347 c 0
547 747 m 1
 451 747 l 1
 451 854 l 1
 547 854 l 1
 547 747 l 1
324 747 m 1
 229 747 l 1
 229 854 l 1
 324 854 l 1
 324 747 l 1
EndSplineSet
EndChar

StartChar: multiply
Encoding: 215 215 151
Width: 584
GlyphClass: 2
Flags: MW
HStem: 82 501<119 465>
VStem: 42 500<159 162>
LayerCount: 2
Fore
SplineSet
119 82 m 1
 42 159 l 1
 216 334 l 1
 44 506 l 1
 121 582 l 1
 293 411 l 1
 465 583 l 1
 542 506 l 1
 370 333 l 1
 542 162 l 1
 465 84 l 1
 293 257 l 1
 119 82 l 1
EndSplineSet
EndChar

StartChar: Oslash
Encoding: 216 216 152
Width: 778
GlyphClass: 2
Flags: MW
HStem: -10 113<367.5 387> 585 113<333.5 407>
VStem: 41 145<313.5 402.5> 589 147<347 380>
LayerCount: 2
Fore
SplineSet
167 -35 m 1
 72 -36 l 1
 147 71 l 1
 76 135 41 227 41 347 c 0
 41 458 72 544 133 605 c 0
 194 667 279 698 388 698 c 0
 453 698 510 686 561 662 c 1
 601 719 l 1
 695 719 l 1
 626 620 l 1
 699 559 736 464 736 347 c 0
 737 133 600 -13 387 -10 c 0
 318 -10 260 3 211 28 c 1
 167 -35 l 1
589 347 m 0
 589 413 575 466 547 507 c 1
 283 130 l 1
 313 112 348 103 387 103 c 0
 516 103 589 191 589 347 c 0
186 347 m 0
 186 280 200 226 227 185 c 1
 490 560 l 1
 460 577 426 585 388 585 c 0
 260 585 186 496 186 347 c 0
EndSplineSet
EndChar

StartChar: Ugrave
Encoding: 217 217 153
Width: 722
GlyphClass: 2
Flags: MW
HStem: -10 113<307 408.5 307 451> 668 20G<60 204 204 204 517 661 661 661> 865 21<203 329>
VStem: 60 144<258 269 269 688> 517 144<274 688>
LayerCount: 2
Fore
SplineSet
353 -10 m 0
 164 -10 60 86 60 258 c 2
 60 688 l 1
 204 688 l 1
 204 269 l 2
 204 161 257 103 357 103 c 0
 460 103 517 163 517 274 c 2
 517 688 l 1
 661 688 l 1
 661 265 l 2
 661 90 549 -10 353 -10 c 0
452 747 m 1
 369 747 l 1
 203 865 l 1
 203 886 l 1
 329 886 l 1
 452 762 l 1
 452 747 l 1
EndSplineSet
EndChar

StartChar: Uacute
Encoding: 218 218 154
Width: 722
GlyphClass: 2
Flags: MW
HStem: -10 113<307 408.5 307 451> 668 20G<60 204 204 204 517 661 661 661> 865 21<412 538>
VStem: 60 144<258 269 269 688> 517 144<274 688>
LayerCount: 2
Fore
SplineSet
353 -10 m 0
 164 -10 60 86 60 258 c 2
 60 688 l 1
 204 688 l 1
 204 269 l 2
 204 161 257 103 357 103 c 0
 460 103 517 163 517 274 c 2
 517 688 l 1
 661 688 l 1
 661 265 l 2
 661 90 549 -10 353 -10 c 0
372 747 m 1
 289 747 l 1
 289 762 l 1
 412 886 l 1
 538 886 l 1
 538 865 l 1
 372 747 l 1
EndSplineSet
EndChar

StartChar: Ucircumflex
Encoding: 219 219 155
Width: 722
GlyphClass: 2
Flags: MW
HStem: -10 113<307 408.5 307 451> 668 20G<60 204 204 204 517 661 661 661> 747 149<180 417 180 417 306 540 306 462>
VStem: 60 144<258 269 269 688> 517 144<274 688>
LayerCount: 2
Fore
SplineSet
353 -10 m 0
 164 -10 60 86 60 258 c 2
 60 688 l 1
 204 688 l 1
 204 269 l 2
 204 161 257 103 357 103 c 0
 460 103 517 163 517 274 c 2
 517 688 l 1
 661 688 l 1
 661 265 l 2
 661 90 549 -10 353 -10 c 0
417 896 m 1
 540 761 l 1
 540 747 l 1
 462 747 l 1
 363 821 l 1
 361 821 l 1
 258 747 l 1
 180 747 l 1
 180 761 l 1
 306 896 l 1
 417 896 l 1
EndSplineSet
EndChar

StartChar: Udieresis
Encoding: 220 220 156
Width: 722
GlyphClass: 2
Flags: MW
HStem: -10 113<307 408.5 307 451> 668 20G<60 204 204 204 517 661 661 661> 747 107<202 296 202 296 423 520>
VStem: 60 144<258 269 269 688> 202 94<747 854> 423 97<747 854> 517 144<274 688>
LayerCount: 2
Fore
SplineSet
353 -10 m 0xf2
 164 -10 60 86 60 258 c 2
 60 688 l 1
 204 688 l 1
 204 269 l 2
 204 161 257 103 357 103 c 0
 460 103 517 163 517 274 c 2
 517 688 l 1
 661 688 l 1
 661 265 l 2
 661 90 549 -10 353 -10 c 0xf2
520 747 m 1xec
 423 747 l 1
 423 854 l 1
 520 854 l 1
 520 747 l 1xec
296 747 m 1
 202 747 l 1
 202 854 l 1
 296 854 l 1
 296 747 l 1
EndSplineSet
EndChar

StartChar: Yacute
Encoding: 221 221 157
Width: 667
GlyphClass: 2
Flags: MW
HStem: 0 21G<262 406 262 262> 668 20G<17 168 168 168 500 651 651 651> 865 21<379 505>
VStem: 262 144<0 282 0 282>
LayerCount: 2
Fore
SplineSet
651 688 m 1
 406 282 l 1
 406 0 l 1
 262 0 l 1
 262 282 l 1
 17 688 l 1
 168 688 l 1
 333 397 l 1
 500 688 l 1
 651 688 l 1
339 747 m 1
 256 747 l 1
 256 762 l 1
 379 886 l 1
 505 886 l 1
 505 865 l 1
 339 747 l 1
EndSplineSet
EndChar

StartChar: Thorn
Encoding: 222 222 158
Width: 667
GlyphClass: 2
Flags: MW
HStem: 0 21G<67 211 67 67> 138 102<211 364 364 382 211 364> 472 102<211 360 211 376> 668 20G<67 211 211 211>
VStem: 67 144<0 138 0 240 240 472 574 688> 488 145<320.5 394>
LayerCount: 2
Fore
SplineSet
633 360 m 0
 633 228 540 138 382 138 c 2
 211 138 l 1
 211 0 l 1
 67 0 l 1
 67 688 l 1
 211 688 l 1
 211 574 l 1
 376 574 l 2
 541 574 633 497 633 360 c 0
488 358 m 0
 488 430 445 472 360 472 c 2
 211 472 l 1
 211 240 l 1
 364 240 l 2
 443 240 488 283 488 358 c 0
EndSplineSet
EndChar

StartChar: germandbls
Encoding: 223 223 159
Width: 611
GlyphClass: 2
Flags: MW
HStem: -10 93<370 405 363.5 454> 0 21G<70 207 70 70> 625 100<276.5 338.5>
VStem: 70 137<0 492 492 495 0 568> 290 128<378 388.5> 398 130<541.5 576.5> 455 128<126.5 161.5>
LayerCount: 2
Fore
SplineSet
583 152 m 0xba
 583 47 514 -10 394 -10 c 0
 346 -10 303 -3 266 11 c 1
 266 112 l 1
 298 97 348 83 379 83 c 0
 431 83 455 108 455 145 c 0
 455 178 432 203 372 243 c 0
 317 278 290 321 290 371 c 0xba
 290 406 307 435 344 468 c 0
 384 503 398 527 398 556 c 0
 398 597 367 625 310 625 c 0
 243 625 207 586 207 495 c 2
 207 0 l 1
 70 0 l 1
 70 492 l 2
 70 644 155 725 312 725 c 0
 445 725 528 662 528 561 c 0x74
 528 455 418 423 418 382 c 0
 418 374 421 366 428 359 c 0
 435 352 459 333 500 302 c 0
 555 261 583 211 583 152 c 0xba
EndSplineSet
EndChar

StartChar: agrave
Encoding: 224 224 160
Width: 556
GlyphClass: 2
Flags: MW
HStem: -10 96<212.5 226.5> -6 84<436.5 533.5> 244 74<234 277> 449 89<245 298.5> 712 21<117 243>
VStem: 25 143<135.5 179.5 135.5 203.5> 348 137<218 245 245 245 320 347 347 349>
LayerCount: 2
Fore
SplineSet
188 -10 m 0xbe
 85 -10 25 49 25 149 c 0
 25 258 98 317 234 318 c 2
 348 320 l 1
 348 347 l 2
 348 416 326 449 271 449 c 0
 219 449 199 428 192 375 c 1
 49 381 l 1
 68 484 144 538 276 538 c 0
 409 538 485 469 485 349 c 2
 485 156 l 2
 485 97 497 78 528 78 c 0
 539 78 549 79 559 81 c 1
 559 7 l 1
 526 -1 509 -6 471 -6 c 0x7e
 402 -6 372 29 365 94 c 1
 362 94 l 1
 323 25 265 -10 188 -10 c 0xbe
348 218 m 2
 348 245 l 1
 277 244 l 2
 245 243 222 239 209 233 c 0
 182 222 168 199 168 160 c 0
 168 111 193 86 232 86 c 0
 296 86 348 146 348 218 c 2
366 578 m 1
 283 578 l 1
 117 712 l 1
 117 733 l 1
 243 733 l 1
 366 593 l 1
 366 578 l 1
EndSplineSet
EndChar

StartChar: aacute
Encoding: 225 225 161
Width: 556
GlyphClass: 2
Flags: MW
HStem: -10 96<212.5 226.5> -6 84<436.5 533.5> 244 74<234 277> 449 89<245 298.5> 712 21<306 432>
VStem: 25 143<135.5 179.5 135.5 203.5> 348 137<218 245 245 245 320 347 347 349>
LayerCount: 2
Fore
SplineSet
188 -10 m 0xbe
 85 -10 25 49 25 149 c 0
 25 258 98 317 234 318 c 2
 348 320 l 1
 348 347 l 2
 348 416 326 449 271 449 c 0
 219 449 199 428 192 375 c 1
 49 381 l 1
 68 484 144 538 276 538 c 0
 409 538 485 469 485 349 c 2
 485 156 l 2
 485 97 497 78 528 78 c 0
 539 78 549 79 559 81 c 1
 559 7 l 1
 526 -1 509 -6 471 -6 c 0x7e
 402 -6 372 29 365 94 c 1
 362 94 l 1
 323 25 265 -10 188 -10 c 0xbe
348 218 m 2
 348 245 l 1
 277 244 l 2
 245 243 222 239 209 233 c 0
 182 222 168 199 168 160 c 0
 168 111 193 86 232 86 c 0
 296 86 348 146 348 218 c 2
266 578 m 1
 183 578 l 1
 183 593 l 1
 306 733 l 1
 432 733 l 1
 432 712 l 1
 266 578 l 1
EndSplineSet
EndChar

StartChar: acircumflex
Encoding: 226 226 162
Width: 556
GlyphClass: 2
Flags: MW
HStem: -10 96<212.5 226.5> -6 84<436.5 533.5> 244 74<234 277> 449 89<245 298.5> 578 169<97 335 97 335 223 457 223 379>
VStem: 25 143<135.5 179.5 135.5 203.5> 348 137<218 245 245 245 320 347 347 349>
LayerCount: 2
Fore
SplineSet
188 -10 m 0xbe
 85 -10 25 49 25 149 c 0
 25 258 98 317 234 318 c 2
 348 320 l 1
 348 347 l 2
 348 416 326 449 271 449 c 0
 219 449 199 428 192 375 c 1
 49 381 l 1
 68 484 144 538 276 538 c 0
 409 538 485 469 485 349 c 2
 485 156 l 2
 485 97 497 78 528 78 c 0
 539 78 549 79 559 81 c 1
 559 7 l 1
 526 -1 509 -6 471 -6 c 0x7e
 402 -6 372 29 365 94 c 1
 362 94 l 1
 323 25 265 -10 188 -10 c 0xbe
348 218 m 2
 348 245 l 1
 277 244 l 2
 245 243 222 239 209 233 c 0
 182 222 168 199 168 160 c 0
 168 111 193 86 232 86 c 0
 296 86 348 146 348 218 c 2
335 747 m 1
 457 591 l 1
 457 578 l 1
 379 578 l 1
 280 671 l 1
 278 671 l 1
 175 578 l 1
 97 578 l 1
 97 591 l 1
 223 747 l 1
 335 747 l 1
EndSplineSet
EndChar

StartChar: atilde
Encoding: 227 227 163
Width: 556
GlyphClass: 2
Flags: MW
HStem: -10 96<212.5 226.5> -6 84<436.5 533.5> 244 74<234 277> 449 89<245 298.5> 578 83<327.5 358.5 327.5 384.5> 638 83<189 213>
VStem: 25 143<135.5 179.5 135.5 203.5> 348 137<218 245 245 245 320 347 347 349>
LayerCount: 2
Fore
SplineSet
188 -10 m 0xbb
 85 -10 25 49 25 149 c 0
 25 258 98 317 234 318 c 2
 348 320 l 1
 348 347 l 2
 348 416 326 449 271 449 c 0
 219 449 199 428 192 375 c 1
 49 381 l 1
 68 484 144 538 276 538 c 0
 409 538 485 469 485 349 c 2
 485 156 l 2
 485 97 497 78 528 78 c 0
 539 78 549 79 559 81 c 1
 559 7 l 1
 526 -1 509 -6 471 -6 c 0x7b
 402 -6 372 29 365 94 c 1
 362 94 l 1
 323 25 265 -10 188 -10 c 0xbb
348 218 m 2
 348 245 l 1
 277 244 l 2
 245 243 222 239 209 233 c 0
 182 222 168 199 168 160 c 0
 168 111 193 86 232 86 c 0
 296 86 348 146 348 218 c 2
351 578 m 0
 295 578 232 638 194 638 c 0xb7
 167 638 155 627 146 578 c 1
 79 578 l 1xbb
 88 683 115 715 189 721 c 1xb7
 248 721 309 661 346 661 c 0
 371 661 385 673 394 721 c 1
 460 721 l 1
 456 618 418 578 351 578 c 0
EndSplineSet
EndChar

StartChar: adieresis
Encoding: 228 228 164
Width: 556
GlyphClass: 2
Flags: MW
HStem: -10 96<212.5 226.5> -6 84<436.5 533.5> 244 74<234 277> 449 89<245 298.5> 585 107<113 217 113 217 325 431>
VStem: 25 143<135.5 179.5 135.5 203.5> 113 104<585 692> 325 106<585 692> 348 137<218 245 245 245 320 347 347 349>
LayerCount: 2
Fore
SplineSet
188 -10 m 0xbc80
 85 -10 25 49 25 149 c 0
 25 258 98 317 234 318 c 2
 348 320 l 1
 348 347 l 2
 348 416 326 449 271 449 c 0
 219 449 199 428 192 375 c 1
 49 381 l 1
 68 484 144 538 276 538 c 0
 409 538 485 469 485 349 c 2
 485 156 l 2
 485 97 497 78 528 78 c 0
 539 78 549 79 559 81 c 1
 559 7 l 1
 526 -1 509 -6 471 -6 c 0x7c80
 402 -6 372 29 365 94 c 1
 362 94 l 1
 323 25 265 -10 188 -10 c 0xbc80
348 218 m 2
 348 245 l 1
 277 244 l 2
 245 243 222 239 209 233 c 0
 182 222 168 199 168 160 c 0
 168 111 193 86 232 86 c 0
 296 86 348 146 348 218 c 2
431 585 m 1xbb
 325 585 l 1
 325 692 l 1
 431 692 l 1
 431 585 l 1xbb
217 585 m 1
 113 585 l 1
 113 692 l 1
 217 692 l 1
 217 585 l 1
EndSplineSet
EndChar

StartChar: aring
Encoding: 229 229 165
Width: 556
GlyphClass: 2
Flags: MW
HStem: -10 96<212.5 226.5> -6 84<436.5 533.5> 244 74<234 277> 449 89<245 298.5> 575 61<256.5 290.5 256.5 290.5> 760 63<256.5 290 256 290.5>
VStem: 25 143<135.5 179.5 135.5 203.5> 149 63<681.5 716> 335 62<681.5 715.5> 348 137<218 245 245 245 320 347 347 349>
LayerCount: 2
Fore
SplineSet
188 -10 m 0xbe40
 85 -10 25 49 25 149 c 0
 25 258 98 317 234 318 c 2
 348 320 l 1
 348 347 l 2
 348 416 326 449 271 449 c 0
 219 449 199 428 192 375 c 1
 49 381 l 1
 68 484 144 538 276 538 c 0
 409 538 485 469 485 349 c 2
 485 156 l 2
 485 97 497 78 528 78 c 0
 539 78 549 79 559 81 c 1
 559 7 l 1
 526 -1 509 -6 471 -6 c 0x7e40
 402 -6 372 29 365 94 c 1
 362 94 l 1
 323 25 265 -10 188 -10 c 0xbe40
348 218 m 2
 348 245 l 1
 277 244 l 2
 245 243 222 239 209 233 c 0
 182 222 168 199 168 160 c 0
 168 111 193 86 232 86 c 0
 296 86 348 146 348 218 c 2
397 699 m 0xbd80
 397 664 385 635 361 611 c 0
 337 587 308 575 273 575 c 0
 238 575 209 587 185 611 c 0
 161 635 149 664 149 699 c 0
 149 733 161 762 185 786 c 0
 210 811 239 823 273 823 c 0
 307 823 336 811 360 786 c 0
 385 762 397 733 397 699 c 0xbd80
335 699 m 0
 335 732 308 760 273 760 c 0
 240 760 212 734 212 699 c 0
 212 662 240 636 273 636 c 0
 308 636 335 663 335 699 c 0
EndSplineSet
EndChar

StartChar: ae
Encoding: 230 230 166
Width: 889
GlyphClass: 2
Flags: MW
HStem: -10 92<583.5 643 583.5 669.5> -10 96<222 243.5> 232 92<510 715 510 848 509 715> 244 74<247 290> 449 89<254.5 310.5> 452 86<580 642>
VStem: 32 143<135.5 179.5 135.5 203> 364 145<223 232 184.5 245 184.5 245 184.5 347 184.5 382.5> 715 133<232 324>
LayerCount: 2
Fore
SplineSet
612 -10 m 0xa780
 511 -10 440 27 400 102 c 1
 357 27 289 -10 198 -10 c 0
 94 -10 32 49 32 149 c 0
 32 257 106 315 247 318 c 2
 364 320 l 1
 364 347 l 2
 364 418 339 449 282 449 c 0
 227 449 206 426 199 375 c 1x9b80
 56 381 l 1
 73 484 151 538 286 538 c 0
 357 538 411 521 449 486 c 1
 491 521 546 538 614 538 c 0
 766 538 848 435 848 242 c 2
 848 232 l 1
 509 232 l 1
 509 137 548 82 619 82 c 0
 667 82 697 103 710 145 c 1
 840 134 l 1
 803 38 727 -10 612 -10 c 0xa780
242 86 m 0x5780
 312 86 364 151 364 223 c 2
 364 245 l 1
 290 244 l 2
 256 243 232 239 218 233 c 0
 190 222 175 199 175 160 c 0
 175 111 202 86 242 86 c 0x5780
612 452 m 0
 547 452 511 404 510 324 c 1
 715 324 l 1xa780
 710 409 672 452 612 452 c 0
EndSplineSet
EndChar

StartChar: ccedilla
Encoding: 231 231 167
Width: 556
GlyphClass: 2
Flags: MW
HStem: -208 58<230.5 252.5 222 286> -83 43<231 296> -10 10<242 312 242 354.5> -10 94<255 317 255 354.5> 444 94<253.5 317.5>
VStem: 39 144<206 326 206 348.5> 297 89<-128 -105.5>
LayerCount: 2
Fore
SplineSet
290 -10 m 0xae
 130 -10 39 90 39 261 c 0
 39 436 131 538 292 538 c 0
 416 538 502 471 523 362 c 1
 385 355 l 1
 377 410 346 444 289 444 c 0
 218 444 183 385 183 267 c 0
 183 145 219 84 291 84 c 0
 343 84 381 117 389 182 c 1x9e
 527 176 l 1
 513 67 419 -10 290 -10 c 0xae
386 -115 m 0xee
 386 -176 334 -208 238 -208 c 0
 223 -208 207 -207 189 -205 c 1
 189 -147 l 1
 200 -149 214 -150 230 -150 c 0
 275 -150 297 -139 297 -117 c 0
 297 -94 281 -83 237 -83 c 0
 225 -83 217 -83 212 -84 c 1xee
 242 0 l 1
 312 0 l 1xae
 296 -40 l 1
 357 -43 386 -72 386 -115 c 0xee
EndSplineSet
EndChar

StartChar: egrave
Encoding: 232 232 168
Width: 556
GlyphClass: 2
Flags: MW
HStem: -10 92<257.5 317.5 257.5 343.5> 238 86<184 389 184 522 183 389> 452 86<254 316.5> 712 21<140 266>
VStem: 39 144<186.5 238 186.5 353.5> 389 133<238 324>
LayerCount: 2
Fore
SplineSet
286 -10 m 0
 127 -10 39 86 39 267 c 0
 39 440 129 538 288 538 c 0
 440 538 522 435 522 242 c 2
 522 238 l 1
 183 238 l 1
 183 135 222 82 293 82 c 0
 342 82 372 103 385 145 c 1
 514 134 l 1
 477 38 401 -10 286 -10 c 0
286 452 m 0
 222 452 187 404 184 324 c 1
 389 324 l 1
 384 409 347 452 286 452 c 0
389 578 m 1
 306 578 l 1
 140 712 l 1
 140 733 l 1
 266 733 l 1
 389 593 l 1
 389 578 l 1
EndSplineSet
EndChar

StartChar: eacute
Encoding: 233 233 169
Width: 556
GlyphClass: 2
Flags: MW
HStem: -10 92<257.5 317.5 257.5 343.5> 238 86<184 389 184 522 183 389> 452 86<254 316.5> 712 21<327 453>
VStem: 39 144<186.5 238 186.5 353.5> 389 133<238 324>
LayerCount: 2
Fore
SplineSet
286 -10 m 0
 127 -10 39 86 39 267 c 0
 39 440 129 538 288 538 c 0
 440 538 522 435 522 242 c 2
 522 238 l 1
 183 238 l 1
 183 135 222 82 293 82 c 0
 342 82 372 103 385 145 c 1
 514 134 l 1
 477 38 401 -10 286 -10 c 0
286 452 m 0
 222 452 187 404 184 324 c 1
 389 324 l 1
 384 409 347 452 286 452 c 0
287 578 m 1
 204 578 l 1
 204 593 l 1
 327 733 l 1
 453 733 l 1
 453 712 l 1
 287 578 l 1
EndSplineSet
EndChar

StartChar: ecircumflex
Encoding: 234 234 170
Width: 556
GlyphClass: 2
Flags: MW
HStem: -10 92<257.5 317.5 257.5 343.5> 238 86<184 389 184 522 183 389> 452 86<254 316.5> 578 169<109 347 109 347 235 469 235 391>
VStem: 39 144<186.5 238 186.5 353.5> 389 133<238 324>
LayerCount: 2
Fore
SplineSet
286 -10 m 0
 127 -10 39 86 39 267 c 0
 39 440 129 538 288 538 c 0
 440 538 522 435 522 242 c 2
 522 238 l 1
 183 238 l 1
 183 135 222 82 293 82 c 0
 342 82 372 103 385 145 c 1
 514 134 l 1
 477 38 401 -10 286 -10 c 0
286 452 m 0
 222 452 187 404 184 324 c 1
 389 324 l 1
 384 409 347 452 286 452 c 0
347 747 m 1
 469 591 l 1
 469 578 l 1
 391 578 l 1
 292 671 l 1
 290 671 l 1
 187 578 l 1
 109 578 l 1
 109 591 l 1
 235 747 l 1
 347 747 l 1
EndSplineSet
EndChar

StartChar: edieresis
Encoding: 235 235 171
Width: 556
GlyphClass: 2
Flags: MW
HStem: -10 92<257.5 317.5 257.5 343.5> 238 86<184 389 184 522 183 389> 452 86<254 316.5> 585 107<127 231 127 231 339 445>
VStem: 39 144<186.5 238 186.5 353.5> 127 104<585 692> 339 106<585 692> 389 133<238 324>
LayerCount: 2
Fore
SplineSet
286 -10 m 0xf9
 127 -10 39 86 39 267 c 0
 39 440 129 538 288 538 c 0
 440 538 522 435 522 242 c 2
 522 238 l 1
 183 238 l 1
 183 135 222 82 293 82 c 0
 342 82 372 103 385 145 c 1
 514 134 l 1
 477 38 401 -10 286 -10 c 0xf9
286 452 m 0
 222 452 187 404 184 324 c 1
 389 324 l 1
 384 409 347 452 286 452 c 0
445 585 m 1xf6
 339 585 l 1
 339 692 l 1
 445 692 l 1
 445 585 l 1xf6
231 585 m 1
 127 585 l 1
 127 692 l 1
 231 692 l 1
 231 585 l 1
EndSplineSet
EndChar

StartChar: igrave
Encoding: 236 236 172
Width: 278
GlyphClass: 2
Flags: MW
HStem: 0 21G<71 208 71 71> 508 20G<71 208 208 208> 712 21<-31 95>
VStem: 71 137<0 528>
LayerCount: 2
Fore
SplineSet
208 0 m 1
 71 0 l 1
 71 528 l 1
 208 528 l 1
 208 0 l 1
217 578 m 1
 135 578 l 1
 -31 712 l 1
 -31 733 l 1
 95 733 l 1
 217 593 l 1
 217 578 l 1
EndSplineSet
EndChar

StartChar: iacute
Encoding: 237 237 173
Width: 278
GlyphClass: 2
Flags: MW
HStem: 0 21G<71 208 71 71> 508 20G<71 208 208 208> 712 21<179 305>
VStem: 71 137<0 528>
LayerCount: 2
Fore
SplineSet
208 0 m 1
 71 0 l 1
 71 528 l 1
 208 528 l 1
 208 0 l 1
139 578 m 1
 56 578 l 1
 56 593 l 1
 179 733 l 1
 305 733 l 1
 305 712 l 1
 139 578 l 1
EndSplineSet
EndChar

StartChar: icircumflex
Encoding: 238 238 174
Width: 278
GlyphClass: 2
Flags: MW
HStem: 0 21G<71 208 71 71> 508 20G<71 208 208 208> 578 169<-41 197 -41 197 85 319 85 242>
VStem: 71 137<0 528>
LayerCount: 2
Fore
SplineSet
208 0 m 1
 71 0 l 1
 71 528 l 1
 208 528 l 1
 208 0 l 1
197 747 m 1
 319 591 l 1
 319 578 l 1
 242 578 l 1
 143 671 l 1
 141 671 l 1
 38 578 l 1
 -41 578 l 1
 -41 591 l 1
 85 747 l 1
 197 747 l 1
EndSplineSet
EndChar

StartChar: idieresis
Encoding: 239 239 175
Width: 278
GlyphClass: 2
Flags: MW
HStem: 0 21G<71 208 71 71> 508 20G<71 208 208 208> 585 107<-20 85 -20 85 192 298>
VStem: -20 105<585 692> 71 137<0 528> 192 106<585 692>
LayerCount: 2
Fore
SplineSet
208 0 m 1xe8
 71 0 l 1
 71 528 l 1
 208 528 l 1
 208 0 l 1xe8
298 585 m 1xf4
 192 585 l 1
 192 692 l 1
 298 692 l 1
 298 585 l 1xf4
85 585 m 1
 -20 585 l 1
 -20 692 l 1
 85 692 l 1
 85 585 l 1
EndSplineSet
EndChar

StartChar: eth
Encoding: 240 240 176
Width: 611
GlyphClass: 2
Flags: MW
HStem: -9 93<263.5 342.5 263.5 388.5> 381 94<266.5 323 222 347.5> 639 86<251 251>
VStem: 39 144<196.5 282.5 185 309.5> 428 144<180.5 262 262 264 177.5 285>
LayerCount: 2
Fore
SplineSet
477 642 m 1
 418 618 l 1
 521 514 572 396 572 264 c 2
 572 262 l 2
 572 93 473 -9 304 -9 c 0
 223 -9 158 13 110 56 c 0
 63 99 39 159 39 234 c 0
 39 385 138 475 306 475 c 0
 340 475 367 470 386 459 c 1
 365 504 340 542 313 574 c 1
 170 515 l 1
 170 604 l 1
 251 639 l 1
 222 662 180 690 125 725 c 1
 268 725 l 1
 299 709 325 694 346 679 c 1
 477 734 l 1
 477 642 l 1
428 233 m 0
 428 337 387 381 308 381 c 0
 225 381 183 332 183 233 c 0
 183 137 225 84 302 84 c 0
 383 84 428 128 428 233 c 0
EndSplineSet
EndChar

StartChar: ntilde
Encoding: 241 241 177
Width: 611
GlyphClass: 2
Flags: MW
HStem: 0 21G<70 207 70 70 412 549 412 412> 436 92<66 349.5> 436 103<336.5 349.5> 578 83<371 402.5 371 428.5> 638 83<233 257>
VStem: 70 137<0 283 0 410 0 438.5> 412 137<0 296 296 335>
LayerCount: 2
Fore
SplineSet
549 0 m 1xb6
 412 0 l 1
 412 296 l 2
 412 389 381 436 318 436 c 0xb6
 251 436 207 372 207 283 c 2
 207 0 l 1
 70 0 l 1
 70 410 l 2
 70 467 67 500 66 528 c 1
 197 528 l 1
 198 522 199 505 200 478 c 0xd6
 202 451 203 433 203 423 c 1
 205 423 l 1
 242 504 298 539 375 539 c 0
 487 539 549 468 549 335 c 2
 549 0 l 1xb6
395 578 m 0
 339 578 276 638 238 638 c 0xae
 211 638 199 627 190 578 c 1
 123 578 l 1xb6
 132 683 159 715 233 721 c 1xae
 292 721 352 661 390 661 c 0
 415 661 429 673 438 721 c 1
 504 721 l 1
 499 618 462 578 395 578 c 0
EndSplineSet
EndChar

StartChar: ograve
Encoding: 242 242 178
Width: 611
GlyphClass: 2
Flags: MW
HStem: -10 94<263.5 344 263.5 387> 444 94<266.5 347.5> 712 21<160 286>
VStem: 39 144<222.5 324.5 205.5 349.5> 428 144<204.5 327.5>
LayerCount: 2
Fore
SplineSet
572 265 m 0
 572 93 471 -10 303 -10 c 0
 221 -10 156 14 109 63 c 0
 62 112 39 180 39 265 c 0
 39 434 138 538 306 538 c 0
 479 538 572 441 572 265 c 0
428 265 m 0
 428 390 387 444 308 444 c 0
 225 444 183 384 183 265 c 0
 183 146 225 84 302 84 c 0
 386 84 428 144 428 265 c 0
409 578 m 1
 326 578 l 1
 160 712 l 1
 160 733 l 1
 286 733 l 1
 409 593 l 1
 409 578 l 1
EndSplineSet
EndChar

StartChar: oacute
Encoding: 243 243 179
Width: 611
GlyphClass: 2
Flags: MW
HStem: -10 94<263.5 344 263.5 387> 444 94<266.5 347.5> 712 21<350 476>
VStem: 39 144<222.5 324.5 205.5 349.5> 428 144<204.5 327.5>
LayerCount: 2
Fore
SplineSet
572 265 m 0
 572 93 471 -10 303 -10 c 0
 221 -10 156 14 109 63 c 0
 62 112 39 180 39 265 c 0
 39 434 138 538 306 538 c 0
 479 538 572 441 572 265 c 0
428 265 m 0
 428 390 387 444 308 444 c 0
 225 444 183 384 183 265 c 0
 183 146 225 84 302 84 c 0
 386 84 428 144 428 265 c 0
310 578 m 1
 227 578 l 1
 227 593 l 1
 350 733 l 1
 476 733 l 1
 476 712 l 1
 310 578 l 1
EndSplineSet
EndChar

StartChar: ocircumflex
Encoding: 244 244 180
Width: 611
GlyphClass: 2
Flags: MW
HStem: -10 94<263.5 344 263.5 387> 444 94<266.5 347.5> 578 169<125 363 125 363 251 485 251 407>
VStem: 39 144<222.5 324.5 205.5 349.5> 428 144<204.5 327.5>
LayerCount: 2
Fore
SplineSet
572 265 m 0
 572 93 471 -10 303 -10 c 0
 221 -10 156 14 109 63 c 0
 62 112 39 180 39 265 c 0
 39 434 138 538 306 538 c 0
 479 538 572 441 572 265 c 0
428 265 m 0
 428 390 387 444 308 444 c 0
 225 444 183 384 183 265 c 0
 183 146 225 84 302 84 c 0
 386 84 428 144 428 265 c 0
363 747 m 1
 485 591 l 1
 485 578 l 1
 407 578 l 1
 308 671 l 1
 306 671 l 1
 203 578 l 1
 125 578 l 1
 125 591 l 1
 251 747 l 1
 363 747 l 1
EndSplineSet
EndChar

StartChar: otilde
Encoding: 245 245 181
Width: 611
GlyphClass: 2
Flags: MW
HStem: -10 94<263.5 344 263.5 387> 444 94<266.5 347.5> 578 83<362.5 393.5 362.5 420> 638 83<224 248.5>
VStem: 39 144<222.5 324.5 205.5 349.5> 428 144<204.5 327.5>
LayerCount: 2
Fore
SplineSet
572 265 m 0xec
 572 93 471 -10 303 -10 c 0
 221 -10 156 14 109 63 c 0
 62 112 39 180 39 265 c 0
 39 434 138 538 306 538 c 0
 479 538 572 441 572 265 c 0xec
428 265 m 0
 428 390 387 444 308 444 c 0
 225 444 183 384 183 265 c 0
 183 146 225 84 302 84 c 0
 386 84 428 144 428 265 c 0
386 578 m 0
 329 578 268 638 229 638 c 0xdc
 202 638 190 627 181 578 c 1
 114 578 l 1xec
 123 683 150 715 224 721 c 1xdc
 283 721 344 661 381 661 c 0
 406 661 420 673 429 721 c 1
 495 721 l 1
 491 618 454 578 386 578 c 0
EndSplineSet
EndChar

StartChar: odieresis
Encoding: 246 246 182
Width: 611
GlyphClass: 2
Flags: MW
HStem: -10 94<263.5 344 263.5 387> 444 94<266.5 347.5> 585 107<146 251 146 251 358 464>
VStem: 39 144<222.5 324.5 205.5 349.5> 146 105<585 692> 358 106<585 692> 428 144<204.5 327.5>
LayerCount: 2
Fore
SplineSet
572 265 m 0xf2
 572 93 471 -10 303 -10 c 0
 221 -10 156 14 109 63 c 0
 62 112 39 180 39 265 c 0
 39 434 138 538 306 538 c 0
 479 538 572 441 572 265 c 0xf2
428 265 m 0
 428 390 387 444 308 444 c 0
 225 444 183 384 183 265 c 0
 183 146 225 84 302 84 c 0
 386 84 428 144 428 265 c 0
464 585 m 1xec
 358 585 l 1
 358 692 l 1
 464 692 l 1
 464 585 l 1xec
251 585 m 1
 146 585 l 1
 146 692 l 1
 251 692 l 1
 251 585 l 1
EndSplineSet
EndChar

StartChar: divide
Encoding: 247 247 183
Width: 549
GlyphClass: 2
Flags: MW
HStem: 83 114<216 332 216 332> 278 109<24 525 24 525> 469 114<216 332 216 332>
VStem: 216 116<83 197 83 197 469 583>
LayerCount: 2
Fore
SplineSet
332 469 m 1
 216 469 l 1
 216 583 l 1
 332 583 l 1
 332 469 l 1
525 278 m 1
 24 278 l 1
 24 387 l 1
 525 387 l 1
 525 278 l 1
332 83 m 1
 216 83 l 1
 216 197 l 1
 332 197 l 1
 332 83 l 1
EndSplineSet
EndChar

StartChar: oslash
Encoding: 248 248 184
Width: 611
GlyphClass: 2
Flags: MW
HStem: -10 94<285.5 344 285.5 387> 444 94<266.5 325.5>
VStem: 39 144<250 324.5 250 349.5> 428 144<204.5 280.5>
LayerCount: 2
Fore
SplineSet
572 265 m 0
 572 93 471 -10 303 -10 c 0
 240 -10 188 5 145 34 c 1
 90 -27 l 1
 0 -27 l 1
 97 78 l 1
 58 125 39 188 39 265 c 0
 39 434 138 538 306 538 c 0
 371 538 424 525 467 498 c 1
 517 553 l 1
 606 553 l 1
 517 453 l 1
 554 406 572 344 572 265 c 0
183 265 m 0
 183 235 186 208 191 185 c 1
 390 410 l 1
 371 433 343 444 308 444 c 0
 225 444 183 384 183 265 c 0
428 265 m 0
 428 296 425 322 420 344 c 1
 222 119 l 1
 242 96 269 84 302 84 c 0
 386 84 428 144 428 265 c 0
EndSplineSet
EndChar

StartChar: ugrave
Encoding: 249 249 185
Width: 611
GlyphClass: 2
Flags: MW
HStem: -10 103<261.5 274.5> 0 93<261.5 545 261.5 414> 508 20G<62 199 199 199 404 541 541 541> 712 21<138 264>
VStem: 62 137<193 232 232 528> 404 137<245 528>
LayerCount: 2
Fore
SplineSet
62 528 m 1xbc
 199 528 l 1
 199 232 l 2
 199 139 230 93 293 93 c 0xbc
 360 93 404 156 404 245 c 2
 404 528 l 1
 541 528 l 1
 541 118 l 2
 541 73 542 34 545 0 c 1
 414 0 l 1x7c
 410 47 408 82 408 105 c 1
 406 105 l 1
 369 25 313 -10 236 -10 c 0
 124 -10 62 60 62 193 c 2
 62 528 l 1xbc
387 578 m 1
 304 578 l 1
 138 712 l 1
 138 733 l 1
 264 733 l 1
 387 593 l 1
 387 578 l 1
EndSplineSet
EndChar

StartChar: uacute
Encoding: 250 250 186
Width: 611
GlyphClass: 2
Flags: MW
HStem: -10 103<261.5 274.5> 0 93<261.5 545 261.5 414> 508 20G<62 199 199 199 404 541 541 541> 712 21<349 475>
VStem: 62 137<193 232 232 528> 404 137<245 528>
LayerCount: 2
Fore
SplineSet
62 528 m 1xbc
 199 528 l 1
 199 232 l 2
 199 139 230 93 293 93 c 0xbc
 360 93 404 156 404 245 c 2
 404 528 l 1
 541 528 l 1
 541 118 l 2
 541 73 542 34 545 0 c 1
 414 0 l 1x7c
 410 47 408 82 408 105 c 1
 406 105 l 1
 369 25 313 -10 236 -10 c 0
 124 -10 62 60 62 193 c 2
 62 528 l 1xbc
309 578 m 1
 226 578 l 1
 226 593 l 1
 349 733 l 1
 475 733 l 1
 475 712 l 1
 309 578 l 1
EndSplineSet
EndChar

StartChar: ucircumflex
Encoding: 251 251 187
Width: 611
GlyphClass: 2
Flags: MW
HStem: -10 103<261.5 274.5> 0 93<261.5 545 261.5 414> 508 20G<62 199 199 199 404 541 541 541> 578 169<123 361 123 361 249 483 249 405>
VStem: 62 137<193 232 232 528> 404 137<245 528>
LayerCount: 2
Fore
SplineSet
62 528 m 1xbc
 199 528 l 1
 199 232 l 2
 199 139 230 93 293 93 c 0xbc
 360 93 404 156 404 245 c 2
 404 528 l 1
 541 528 l 1
 541 118 l 2
 541 73 542 34 545 0 c 1
 414 0 l 1x7c
 410 47 408 82 408 105 c 1
 406 105 l 1
 369 25 313 -10 236 -10 c 0
 124 -10 62 60 62 193 c 2
 62 528 l 1xbc
361 747 m 1
 483 591 l 1
 483 578 l 1
 405 578 l 1
 306 671 l 1
 304 671 l 1
 201 578 l 1
 123 578 l 1
 123 591 l 1
 249 747 l 1
 361 747 l 1
EndSplineSet
EndChar

StartChar: udieresis
Encoding: 252 252 188
Width: 611
GlyphClass: 2
Flags: MW
HStem: -10 103<261.5 274.5> 0 93<261.5 545 261.5 414> 508 20G<62 199 199 199 404 541 541 541> 585 107<146 250 146 250 357 463>
VStem: 62 137<193 232 232 528> 146 104<585 692> 357 106<585 692> 404 137<245 528>
LayerCount: 2
Fore
SplineSet
62 528 m 1xb9
 199 528 l 1
 199 232 l 2
 199 139 230 93 293 93 c 0xb9
 360 93 404 156 404 245 c 2
 404 528 l 1
 541 528 l 1
 541 118 l 2
 541 73 542 34 545 0 c 1
 414 0 l 1x79
 410 47 408 82 408 105 c 1
 406 105 l 1
 369 25 313 -10 236 -10 c 0
 124 -10 62 60 62 193 c 2
 62 528 l 1xb9
463 585 m 1
 357 585 l 1
 357 692 l 1xb6
 463 692 l 1
 463 585 l 1
250 585 m 1
 146 585 l 1
 146 692 l 1xb9
 250 692 l 1
 250 585 l 1
EndSplineSet
EndChar

StartChar: yacute
Encoding: 253 253 189
Width: 556
GlyphClass: 2
Flags: MW
HStem: -208 101<92 161.5> 508 20G<8 153 153 153 407 551 551 551> 712 21<325 451>
VStem: 8 543<528 528>
LayerCount: 2
Fore
SplineSet
138 -208 m 0
 105 -208 77 -206 52 -201 c 1
 52 -104 l 1
 69 -106 85 -107 99 -107 c 0
 159 -102 178 -95 217 5 c 1
 8 528 l 1
 153 528 l 1
 236 281 l 2
 249 246 265 191 285 118 c 1
 297 164 l 1
 329 279 l 1
 407 528 l 1
 551 528 l 1
 342 -28 l 2
 314 -95 285 -142 254 -168 c 0
 224 -195 185 -208 138 -208 c 0
285 578 m 1
 202 578 l 1
 202 593 l 1
 325 733 l 1
 451 733 l 1
 451 712 l 1
 285 578 l 1
EndSplineSet
EndChar

StartChar: thorn
Encoding: 254 254 190
Width: 611
GlyphClass: 2
Flags: MW
HStem: -208 21G<70 70 70 207> -10 94<330.5 353.5> 419 95<335 354.5>
VStem: 70 137<-208 -5 -208 84 499 725> 427 143<197.5 310>
LayerCount: 2
Fore
SplineSet
70 -208 m 1
 70 725 l 1
 207 725 l 1
 207 499 l 1
 205 417 l 1
 207 417 l 1
 238 482 294 514 376 514 c 0
 500 514 570 418 570 254 c 0
 570 86 496 -10 367 -10 c 0
 294 -10 236 24 207 84 c 1
 204 84 l 1
 206 74 207 44 207 -5 c 2
 207 -208 l 1
 70 -208 l 1
427 254 m 0
 427 366 391 419 318 419 c 0
 245 419 205 357 205 250 c 0
 205 143 245 84 317 84 c 0
 390 84 427 141 427 254 c 0
EndSplineSet
EndChar

StartChar: ydieresis
Encoding: 255 255 191
Width: 556
GlyphClass: 2
Flags: MW
HStem: -208 101<92 161.5> 508 20G<8 153 153 153 407 551 551 551> 585 107<125 230 125 230 337 443>
VStem: 125 105<585 692> 337 106<585 692>
LayerCount: 2
Fore
SplineSet
138 -208 m 0
 105 -208 77 -206 52 -201 c 1
 52 -104 l 1
 69 -106 85 -107 99 -107 c 0
 159 -102 178 -95 217 5 c 1
 8 528 l 1
 153 528 l 1
 236 281 l 2
 249 246 265 191 285 118 c 1
 297 164 l 1
 329 279 l 1
 407 528 l 1
 551 528 l 1
 342 -28 l 2
 314 -95 285 -142 254 -168 c 0
 224 -195 185 -208 138 -208 c 0
443 585 m 1
 337 585 l 1
 337 692 l 1
 443 692 l 1
 443 585 l 1
230 585 m 1
 125 585 l 1
 125 692 l 1
 230 692 l 1
 230 585 l 1
EndSplineSet
EndChar

StartChar: Amacron
Encoding: 256 256 192
Width: 722
GlyphClass: 2
Flags: MW
HStem: 0 21G<25 169 25 25 553 696 553 553> 176 108<262 460 262 492 230 460> 582 106<361 361> 668 20G<276 446 446 446> 750 83<211 510 211 510>
VStem: 25 671<0 0> 211 299<750 833 750 833>
LayerCount: 2
Fore
SplineSet
696 0 m 1xdc
 553 0 l 1
 492 176 l 1
 230 176 l 1
 169 0 l 1
 25 0 l 1
 276 688 l 1
 446 688 l 1
 696 0 l 1xdc
371 548 m 1
 361 582 l 1
 358 571 l 1
 346 531 l 1xec
 262 284 l 1
 460 284 l 1
 392 482 l 1
 371 548 l 1
211 750 m 1xda
 211 833 l 1
 510 833 l 1
 510 750 l 1
 211 750 l 1xda
EndSplineSet
EndChar

StartChar: amacron
Encoding: 257 257 193
Width: 556
GlyphClass: 2
Flags: MW
HStem: -10 96<216.5 230.5> -6 84<440.5 537.5> 244 74<238 281> 449 89<248.5 301.5> 587 82<136 435 136 435>
VStem: 29 143<135.5 179.5 135.5 203.5> 136 299<587 669 587 669> 352 137<218 245 245 245 320 347 347 349>
LayerCount: 2
Fore
SplineSet
192 -10 m 0xbd
 89 -10 29 49 29 149 c 0
 29 258 102 317 238 318 c 2
 352 320 l 1
 352 347 l 2
 352 416 329 449 274 449 c 0
 223 449 203 428 196 375 c 1
 53 381 l 1
 70 484 148 538 280 538 c 0
 413 538 489 469 489 349 c 2
 489 156 l 2
 489 97 501 78 532 78 c 0
 543 78 553 79 563 81 c 1
 563 7 l 1
 530 -1 513 -6 475 -6 c 0x7d
 406 -6 376 29 369 94 c 1
 366 94 l 1
 327 25 269 -10 192 -10 c 0xbd
352 218 m 2
 352 245 l 1
 281 244 l 2
 249 243 226 239 213 233 c 0
 186 222 172 199 172 160 c 0
 172 111 197 86 236 86 c 0
 300 86 352 146 352 218 c 2
136 587 m 1xba
 136 669 l 1
 435 669 l 1
 435 587 l 1
 136 587 l 1xba
EndSplineSet
EndChar

StartChar: Abreve
Encoding: 258 258 194
Width: 722
GlyphClass: 2
Flags: MW
HStem: 0 21G<25 169 25 25 553 696 553 553> 176 108<262 460 262 492 230 460> 582 106<361 361> 668 20G<276 446 446 446> 742 74<338.5 384.5 338.5 407.5>
VStem: 25 671<0 0>
LayerCount: 2
Fore
SplineSet
696 0 m 1xdc
 553 0 l 1
 492 176 l 1
 230 176 l 1
 169 0 l 1
 25 0 l 1
 276 688 l 1
 446 688 l 1
 696 0 l 1xdc
371 548 m 1
 361 582 l 1
 358 571 l 1
 346 531 l 1xec
 262 284 l 1
 460 284 l 1
 392 482 l 1
 371 548 l 1
360 742 m 0
 313 742 273 755 241 781 c 0
 209 808 191 842 188 883 c 1
 268 883 l 1
 277 843 316 816 361 816 c 0
 408 816 445 842 454 883 c 1
 534 883 l 1
 521 796 455 742 360 742 c 0
EndSplineSet
EndChar

StartChar: abreve
Encoding: 259 259 195
Width: 556
GlyphClass: 2
Flags: MW
HStem: -10 96<216.5 230.5> -6 84<440.5 537.5> 244 74<238 281> 449 89<248.5 301.5> 578 76<260.5 306.5 260.5 332>
VStem: 29 143<135.5 179.5 135.5 203.5> 352 137<218 245 245 245 320 347 347 349>
LayerCount: 2
Fore
SplineSet
192 -10 m 0xbe
 89 -10 29 49 29 149 c 0
 29 258 102 317 238 318 c 2
 352 320 l 1
 352 347 l 2
 352 416 329 449 274 449 c 0
 223 449 203 428 196 375 c 1
 53 381 l 1
 70 484 148 538 280 538 c 0
 413 538 489 469 489 349 c 2
 489 156 l 2
 489 97 501 78 532 78 c 0
 543 78 553 79 563 81 c 1
 563 7 l 1
 530 -1 513 -6 475 -6 c 0x7e
 406 -6 376 29 369 94 c 1
 366 94 l 1
 327 25 269 -10 192 -10 c 0xbe
352 218 m 2
 352 245 l 1
 281 244 l 2
 249 243 226 239 213 233 c 0
 186 222 172 199 172 160 c 0
 172 111 197 86 236 86 c 0
 300 86 352 146 352 218 c 2
282 578 m 0
 183 578 118 644 110 735 c 1
 190 735 l 1
 201 686 238 654 283 654 c 0
 330 654 367 684 376 735 c 1
 456 735 l 1
 444 639 382 578 282 578 c 0
EndSplineSet
EndChar

StartChar: Aogonek
Encoding: 260 260 196
Width: 722
GlyphClass: 2
Flags: MW
HStem: -202 70<620.5 630.5> 0 16<578 652 578 696> 176 108<262 460 262 492 230 460> 582 106<361 361> 668 20G<276 446 446 446>
VStem: 500 89<-100.5 -80>
LayerCount: 2
Fore
SplineSet
696 0 m 1x6c
 553 0 l 1
 492 176 l 1
 230 176 l 1
 169 0 l 1
 25 0 l 1
 276 688 l 1
 446 688 l 1
 696 0 l 1x6c
371 548 m 1
 361 582 l 1
 358 571 l 1
 346 531 l 1xf4
 262 284 l 1
 460 284 l 1
 392 482 l 1
 371 548 l 1
616 -202 m 0
 544 -202 500 -164 500 -104 c 0
 500 -56 531 -8 578 16 c 1
 652 16 l 1
 612 -12 589 -52 589 -87 c 0
 589 -114 606 -132 635 -132 c 0
 653 -132 671 -128 690 -119 c 1
 690 -186 l 1
 669 -197 645 -202 616 -202 c 0
EndSplineSet
EndChar

StartChar: aogonek
Encoding: 261 261 197
Width: 556
GlyphClass: 2
Flags: MW
HStem: -208 70<454.5 464.5> -10 96<216.5 230.5> -6 16<440.5 486 412 494> 244 74<238 281> 449 89<248.5 301.5>
VStem: 29 143<135.5 179.5 135.5 203.5> 334 89<-106 -85.5> 352 137<218 245 245 245 320 347 347 349>
LayerCount: 2
Fore
SplineSet
192 -10 m 0xdd
 89 -10 29 49 29 149 c 0
 29 258 102 317 238 318 c 2
 352 320 l 1
 352 347 l 2
 352 416 329 449 274 449 c 0
 223 449 203 428 196 375 c 1
 53 381 l 1
 70 484 148 538 280 538 c 0
 413 538 489 469 489 349 c 2
 489 156 l 2
 489 97 501 78 532 78 c 0
 543 78 553 79 563 81 c 1
 563 7 l 1
 530 -1 513 -6 475 -6 c 0xbd
 406 -6 376 29 369 94 c 1
 366 94 l 1
 327 25 269 -10 192 -10 c 0xdd
352 218 m 2
 352 245 l 1
 281 244 l 2
 249 243 226 239 213 233 c 0
 186 222 172 199 172 160 c 0
 172 111 197 86 236 86 c 0
 300 86 352 146 352 218 c 2
450 -208 m 0xba
 378 -208 334 -170 334 -110 c 0
 334 -61 365 -14 412 10 c 1
 486 10 l 1
 446 -17 423 -57 423 -92 c 0
 423 -120 440 -138 469 -138 c 0
 487 -138 505 -134 524 -125 c 1
 524 -191 l 1
 503 -202 479 -208 450 -208 c 0xba
EndSplineSet
EndChar

StartChar: Cacute
Encoding: 262 262 198
Width: 722
GlyphClass: 2
Flags: MW
HStem: -10 114<322.5 431.5 322.5 461.5> 585 113<319.5 427.5> 865 21<441 567>
VStem: 41 145<268.5 425 268.5 460.5>
LayerCount: 2
Fore
SplineSet
388 104 m 0
 475 104 536 147 569 234 c 1
 695 187 l 1
 640 54 535 -10 388 -10 c 0
 167 -10 41 122 41 347 c 0
 41 574 161 698 382 698 c 0
 543 698 645 632 686 507 c 1
 559 472 l 1
 538 541 470 585 385 585 c 0
 254 585 186 503 186 347 c 0
 186 190 257 104 388 104 c 0
401 747 m 1
 318 747 l 1
 318 762 l 1
 441 886 l 1
 567 886 l 1
 567 865 l 1
 401 747 l 1
EndSplineSet
EndChar

StartChar: cacute
Encoding: 263 263 199
Width: 556
GlyphClass: 2
Flags: MW
HStem: -10 94<255 317 255 354.5> 444 94<253.5 317.5> 712 21<341 467>
VStem: 39 144<206 326 206 348.5>
LayerCount: 2
Fore
SplineSet
290 -10 m 0
 130 -10 39 90 39 261 c 0
 39 436 131 538 292 538 c 0
 416 538 502 471 523 362 c 1
 385 355 l 1
 377 410 346 444 289 444 c 0
 218 444 183 385 183 267 c 0
 183 145 219 84 291 84 c 0
 343 84 381 117 389 182 c 1
 527 176 l 1
 513 67 419 -10 290 -10 c 0
301 578 m 1
 218 578 l 1
 218 593 l 1
 341 733 l 1
 467 733 l 1
 467 712 l 1
 301 578 l 1
EndSplineSet
EndChar

StartChar: Ccircumflex
Encoding: 264 264 200
Width: 722
GlyphClass: 2
Flags: MW
HStem: -10 114<322.5 431.5 322.5 461.5> 585 113<319.5 427.5> 747 149<211 449 211 449 337 571 337 494>
VStem: 41 145<268.5 425 268.5 460.5>
LayerCount: 2
Fore
SplineSet
388 104 m 0
 475 104 536 147 569 234 c 1
 695 187 l 1
 640 54 535 -10 388 -10 c 0
 167 -10 41 122 41 347 c 0
 41 574 161 698 382 698 c 0
 543 698 645 632 686 507 c 1
 559 472 l 1
 538 541 470 585 385 585 c 0
 254 585 186 503 186 347 c 0
 186 190 257 104 388 104 c 0
449 896 m 1
 571 761 l 1
 571 747 l 1
 494 747 l 1
 395 821 l 1
 393 821 l 1
 290 747 l 1
 211 747 l 1
 211 761 l 1
 337 896 l 1
 449 896 l 1
EndSplineSet
EndChar

StartChar: ccircumflex
Encoding: 265 265 201
Width: 556
GlyphClass: 2
Flags: MW
HStem: -10 94<255 317 255 354.5> 444 94<253.5 317.5> 578 169<112 350 112 350 238 472 238 395>
VStem: 39 144<206 326 206 348.5>
LayerCount: 2
Fore
SplineSet
290 -10 m 0
 130 -10 39 90 39 261 c 0
 39 436 131 538 292 538 c 0
 416 538 502 471 523 362 c 1
 385 355 l 1
 377 410 346 444 289 444 c 0
 218 444 183 385 183 267 c 0
 183 145 219 84 291 84 c 0
 343 84 381 117 389 182 c 1
 527 176 l 1
 513 67 419 -10 290 -10 c 0
350 747 m 1
 472 591 l 1
 472 578 l 1
 395 578 l 1
 295 671 l 1
 293 671 l 1
 190 578 l 1
 112 578 l 1
 112 591 l 1
 238 747 l 1
 350 747 l 1
EndSplineSet
EndChar

StartChar: Cdotaccent
Encoding: 266 266 202
Width: 722
GlyphClass: 2
Flags: MW
HStem: -10 114<322.5 431.5 322.5 461.5> 585 113<319.5 427.5> 755 101<315 453 315 453>
VStem: 41 145<268.5 425 268.5 460.5> 315 138<755 856 755 856>
LayerCount: 2
Fore
SplineSet
388 104 m 0
 475 104 536 147 569 234 c 1
 695 187 l 1
 640 54 535 -10 388 -10 c 0
 167 -10 41 122 41 347 c 0
 41 574 161 698 382 698 c 0
 543 698 645 632 686 507 c 1
 559 472 l 1
 538 541 470 585 385 585 c 0
 254 585 186 503 186 347 c 0
 186 190 257 104 388 104 c 0
453 755 m 1
 315 755 l 1
 315 856 l 1
 453 856 l 1
 453 755 l 1
EndSplineSet
EndChar

StartChar: cdotaccent
Encoding: 267 267 203
Width: 556
GlyphClass: 2
Flags: MW
HStem: -10 94<255 317 255 354.5> 444 94<253.5 317.5> 624 101<225 362 225 362>
VStem: 39 144<206 326 206 348.5> 225 137<624 725 624 725>
LayerCount: 2
Fore
SplineSet
290 -10 m 0
 130 -10 39 90 39 261 c 0
 39 436 131 538 292 538 c 0
 416 538 502 471 523 362 c 1
 385 355 l 1
 377 410 346 444 289 444 c 0
 218 444 183 385 183 267 c 0
 183 145 219 84 291 84 c 0
 343 84 381 117 389 182 c 1
 527 176 l 1
 513 67 419 -10 290 -10 c 0
362 624 m 1
 225 624 l 1
 225 725 l 1
 362 725 l 1
 362 624 l 1
EndSplineSet
EndChar

StartChar: Ccaron
Encoding: 268 268 204
Width: 722
GlyphClass: 2
Flags: MW
HStem: -10 114<322.5 431.5 322.5 461.5> 585 113<319.5 427.5> 747 149<202 439 202 328>
VStem: 41 145<268.5 425 268.5 460.5>
LayerCount: 2
Fore
SplineSet
388 104 m 0
 475 104 536 147 569 234 c 1
 695 187 l 1
 640 54 535 -10 388 -10 c 0
 167 -10 41 122 41 347 c 0
 41 574 161 698 382 698 c 0
 543 698 645 632 686 507 c 1
 559 472 l 1
 538 541 470 585 385 585 c 0
 254 585 186 503 186 347 c 0
 186 190 257 104 388 104 c 0
562 882 m 1
 439 747 l 1
 328 747 l 1
 202 882 l 1
 202 896 l 1
 280 896 l 1
 383 822 l 1
 385 822 l 1
 484 896 l 1
 562 896 l 1
 562 882 l 1
EndSplineSet
EndChar

StartChar: ccaron
Encoding: 269 269 205
Width: 556
GlyphClass: 2
Flags: MW
HStem: -10 94<255 317 255 354.5> 444 94<253.5 317.5> 578 169<104 342 104 230>
VStem: 39 144<206 326 206 348.5>
LayerCount: 2
Fore
SplineSet
290 -10 m 0
 130 -10 39 90 39 261 c 0
 39 436 131 538 292 538 c 0
 416 538 502 471 523 362 c 1
 385 355 l 1
 377 410 346 444 289 444 c 0
 218 444 183 385 183 267 c 0
 183 145 219 84 291 84 c 0
 343 84 381 117 389 182 c 1
 527 176 l 1
 513 67 419 -10 290 -10 c 0
464 732 m 1
 342 578 l 1
 230 578 l 1
 104 732 l 1
 104 747 l 1
 183 747 l 1
 286 652 l 1
 288 652 l 1
 387 747 l 1
 464 747 l 1
 464 732 l 1
EndSplineSet
EndChar

StartChar: Dcaron
Encoding: 270 270 206
Width: 722
GlyphClass: 2
Flags: MW
HStem: 0 111<211 333 333 345> 577 111<211 313 211 211> 747 149<162 399 162 288>
VStem: 67 144<111 577 111 688 111 688> 535 145<349 423>
LayerCount: 2
Fore
SplineSet
680 349 m 0
 683 137 543 -3 345 0 c 2
 67 0 l 1
 67 688 l 1
 316 688 l 2
 548 688 680 568 680 349 c 0
535 349 m 0
 535 497 456 577 313 577 c 2
 211 577 l 1
 211 111 l 1
 333 111 l 2
 457 111 535 202 535 349 c 0
521 882 m 1
 399 747 l 1
 288 747 l 1
 162 882 l 1
 162 896 l 1
 240 896 l 1
 343 822 l 1
 345 822 l 1
 444 896 l 1
 521 896 l 1
 521 882 l 1
EndSplineSet
EndChar

StartChar: dcaron
Encoding: 271 271 207
Width: 719
GlyphClass: 2
Flags: MW
HStem: -10 94<256 275.5> 0 84 445 93<256.5 281.5 179.5 330.5> 624 101<600 652 404 600>
VStem: 41 143<204 324.5 204 351.5> 404 137<445 445 532 725> 600 119<629.5 653 653 725 629.5 725>
LayerCount: 2
Fore
SplineSet
545 0 m 1x7e
 412 0 l 1
 411 5 409 17 407 36 c 0x7e
 406 56 405 73 405 86 c 1
 403 86 l 1
 373 22 317 -10 234 -10 c 0xbe
 111 -10 41 91 41 264 c 0
 41 439 115 538 244 538 c 0
 319 538 375 506 404 445 c 1
 405 445 l 1
 404 532 l 1
 404 725 l 1
 541 725 l 1
 541 115 l 2
 541 82 542 44 545 0 c 1x7e
406 267 m 0
 406 382 368 445 293 445 c 0
 220 445 184 385 184 264 c 0
 184 144 220 84 292 84 c 0xbe
 364 84 406 150 406 267 c 0
719 725 m 1
 719 653 l 2
 719 606 706 570 673 531 c 1
 606 531 l 1
 637 564 652 595 652 624 c 1
 600 624 l 1
 600 725 l 1
 719 725 l 1
EndSplineSet
EndChar

StartChar: Dcroat
Encoding: 272 272 208
Width: 722
GlyphClass: 2
Flags: MW
HStem: 0 113<211 333 333 345> 290 107<4 67 4 67 211 385> 575 113<211 313 211 211>
VStem: 67 144<113 290 113 290 113 290 397 575> 535 145<349 422.5>
LayerCount: 2
Fore
SplineSet
680 349 m 0
 683 137 543 -3 345 0 c 2
 67 0 l 1
 67 290 l 1
 4 290 l 1
 4 397 l 1
 67 397 l 1
 67 688 l 1
 316 688 l 2
 548 688 680 568 680 349 c 0
535 349 m 0
 535 496 457 575 313 575 c 2
 211 575 l 1
 211 397 l 1
 385 397 l 1
 385 290 l 1
 211 290 l 1
 211 113 l 1
 333 113 l 2
 457 113 535 202 535 349 c 0
EndSplineSet
EndChar

StartChar: dcroat
Encoding: 273 273 209
Width: 611
GlyphClass: 2
Flags: MW
HStem: -10 94<256 275.5> 0 84 427 92<256.5 281.5 178.5 330.5> 574 83<264 404 264 404 542 606>
VStem: 41 143<198 314.5 198 338.5> 404 138<425 425 512 574 657 725>
LayerCount: 2
Fore
SplineSet
264 657 m 1xbc
 404 657 l 1
 404 725 l 1
 542 725 l 1
 542 657 l 1
 606 657 l 1
 606 574 l 1
 542 574 l 1
 542 115 l 2
 542 82 543 44 545 0 c 1
 413 0 l 1
 412 5 410 17 408 36 c 0x7c
 406 56 405 73 405 86 c 1
 403 86 l 1
 374 22 317 -10 234 -10 c 0
 111 -10 41 86 41 254 c 0
 41 423 113 519 244 519 c 0
 319 519 375 488 404 425 c 1
 405 425 l 1
 404 512 l 1
 404 574 l 1
 264 574 l 1
 264 657 l 1xbc
406 258 m 0
 406 367 368 427 293 427 c 0
 220 427 184 374 184 255 c 0
 184 141 220 84 292 84 c 0xbc
 365 84 406 147 406 258 c 0
EndSplineSet
EndChar

StartChar: Emacron
Encoding: 274 274 210
Width: 667
GlyphClass: 2
Flags: MW
HStem: 0 111<211 628 211 628> 292 112<211 578 211 578> 577 111<211 608 211 211> 750 83<188 487 188 487>
VStem: 67 144<111 292 404 577> 188 299<750 833 750 833>
LayerCount: 2
Fore
SplineSet
628 0 m 1xf8
 67 0 l 1
 67 688 l 1
 608 688 l 1
 608 577 l 1
 211 577 l 1
 211 404 l 1
 578 404 l 1
 578 292 l 1
 211 292 l 1
 211 111 l 1
 628 111 l 1
 628 0 l 1xf8
188 750 m 1xf4
 188 833 l 1
 487 833 l 1
 487 750 l 1
 188 750 l 1xf4
EndSplineSet
EndChar

StartChar: emacron
Encoding: 275 275 211
Width: 556
GlyphClass: 2
Flags: MW
HStem: -10 92<257.5 317.5 257.5 343.5> 238 86<184 389 184 522 183 389> 452 86<254 316.5> 587 82<137 436 137 436>
VStem: 39 144<186.5 238 186.5 353.5> 137 299<587 669 587 669> 389 133<238 324>
LayerCount: 2
Fore
SplineSet
286 -10 m 0xfa
 127 -10 39 86 39 267 c 0
 39 440 129 538 288 538 c 0
 440 538 522 435 522 242 c 2
 522 238 l 1
 183 238 l 1
 183 135 222 82 293 82 c 0
 342 82 372 103 385 145 c 1
 514 134 l 1
 477 38 401 -10 286 -10 c 0xfa
286 452 m 0
 222 452 187 404 184 324 c 1
 389 324 l 1
 384 409 347 452 286 452 c 0
137 587 m 1xf4
 137 669 l 1
 436 669 l 1
 436 587 l 1
 137 587 l 1xf4
EndSplineSet
EndChar

StartChar: Ebreve
Encoding: 276 276 212
Width: 667
GlyphClass: 2
Flags: MW
HStem: 0 111<211 628 211 628> 292 112<211 578 211 578> 577 111<211 608 211 211> 742 74<320.5 366.5 320.5 389.5>
VStem: 67 144<111 292 404 577>
LayerCount: 2
Fore
SplineSet
628 0 m 1
 67 0 l 1
 67 688 l 1
 608 688 l 1
 608 577 l 1
 211 577 l 1
 211 404 l 1
 578 404 l 1
 578 292 l 1
 211 292 l 1
 211 111 l 1
 628 111 l 1
 628 0 l 1
342 742 m 0
 295 742 255 755 223 781 c 0
 191 808 173 842 170 883 c 1
 250 883 l 1
 259 843 298 816 343 816 c 0
 390 816 427 842 436 883 c 1
 516 883 l 1
 503 796 437 742 342 742 c 0
EndSplineSet
EndChar

StartChar: ebreve
Encoding: 277 277 213
Width: 556
GlyphClass: 2
Flags: MW
HStem: -10 92<257.5 317.5 257.5 343.5> 238 86<184 389 184 522 183 389> 452 86<254 316.5> 578 76<254.5 301.5 254.5 327>
VStem: 39 144<186.5 238 186.5 353.5> 389 133<238 324>
LayerCount: 2
Fore
SplineSet
286 -10 m 0
 127 -10 39 86 39 267 c 0
 39 440 129 538 288 538 c 0
 440 538 522 435 522 242 c 2
 522 238 l 1
 183 238 l 1
 183 135 222 82 293 82 c 0
 342 82 372 103 385 145 c 1
 514 134 l 1
 477 38 401 -10 286 -10 c 0
286 452 m 0
 222 452 187 404 184 324 c 1
 389 324 l 1
 384 409 347 452 286 452 c 0
277 578 m 0
 228 578 187 593 156 622 c 0
 125 652 108 690 105 735 c 1
 185 735 l 1
 194 686 231 654 278 654 c 0
 325 654 362 684 371 735 c 1
 451 735 l 1
 439 639 377 578 277 578 c 0
EndSplineSet
EndChar

StartChar: Edotaccent
Encoding: 278 278 214
Width: 667
GlyphClass: 2
Flags: MW
HStem: 0 111<211 628 211 628> 292 112<211 578 211 578> 577 111<211 608 211 211> 755 101<276 413 276 413>
VStem: 67 144<111 292 404 577> 276 137<755 856 755 856>
LayerCount: 2
Fore
SplineSet
628 0 m 1
 67 0 l 1
 67 688 l 1
 608 688 l 1
 608 577 l 1
 211 577 l 1
 211 404 l 1
 578 404 l 1
 578 292 l 1
 211 292 l 1
 211 111 l 1
 628 111 l 1
 628 0 l 1
413 755 m 1
 276 755 l 1
 276 856 l 1
 413 856 l 1
 413 755 l 1
EndSplineSet
EndChar

StartChar: edotaccent
Encoding: 279 279 215
Width: 556
GlyphClass: 2
Flags: MW
HStem: -10 92<257.5 317.5 257.5 343.5> 238 86<184 389 184 522 183 389> 452 86<254 316.5> 624 101<215 353 215 353>
VStem: 39 144<186.5 238 186.5 353.5> 215 138<624 725 624 725> 389 133<238 324>
LayerCount: 2
Fore
SplineSet
286 -10 m 0
 127 -10 39 86 39 267 c 0
 39 440 129 538 288 538 c 0
 440 538 522 435 522 242 c 2
 522 238 l 1
 183 238 l 1
 183 135 222 82 293 82 c 0
 342 82 372 103 385 145 c 1
 514 134 l 1
 477 38 401 -10 286 -10 c 0
286 452 m 0
 222 452 187 404 184 324 c 1
 389 324 l 1
 384 409 347 452 286 452 c 0
353 624 m 1
 215 624 l 1
 215 725 l 1
 353 725 l 1
 353 624 l 1
EndSplineSet
EndChar

StartChar: Eogonek
Encoding: 280 280 216
Width: 667
GlyphClass: 2
Flags: MW
HStem: -208 70<523.5 533.5> 0 10<480 555 480 628> 0 111<211 628 211 628> 292 112<211 578 211 578> 577 111<211 608 211 211>
VStem: 67 144<111 292 404 577> 403 89<-106 -85.5>
LayerCount: 2
Fore
SplineSet
628 0 m 1xdc
 67 0 l 1xde
 67 688 l 1
 608 688 l 1
 608 577 l 1
 211 577 l 1
 211 404 l 1
 578 404 l 1
 578 292 l 1
 211 292 l 1
 211 111 l 1
 628 111 l 1xbc
 628 0 l 1xdc
519 -208 m 0
 446 -208 403 -170 403 -110 c 0
 403 -61 433 -14 480 10 c 1
 555 10 l 1
 514 -17 492 -57 492 -92 c 0
 492 -120 509 -138 538 -138 c 0
 555 -138 573 -134 592 -125 c 1
 592 -191 l 1
 572 -202 548 -208 519 -208 c 0
EndSplineSet
EndChar

StartChar: eogonek
Encoding: 281 281 217
Width: 556
GlyphClass: 2
Flags: MW
HStem: -199 70<383.5 393.5> -10 29<340 343.5> -10 92<257.5 317.5 257.5 343.5> 238 86<184 389 184 522 183 389> 452 86<254 316.5>
VStem: 39 144<186.5 238 186.5 353.5> 263 89<-97.5 -77.5> 389 133<238 324>
LayerCount: 2
Fore
SplineSet
286 -10 m 0x5f
 127 -10 39 86 39 267 c 0
 39 440 129 538 288 538 c 0
 440 538 522 435 522 242 c 2
 522 238 l 1
 183 238 l 1
 183 135 222 82 293 82 c 0
 342 82 372 103 385 145 c 1x3f
 514 134 l 1
 477 38 401 -10 286 -10 c 0x5f
286 452 m 0
 222 452 187 404 184 324 c 1
 389 324 l 1
 384 409 347 452 286 452 c 0
379 -199 m 0xdf
 307 -199 263 -161 263 -102 c 0
 263 -53 295 -6 340 19 c 1
 415 19 l 1
 374 -9 352 -49 352 -84 c 0
 352 -111 369 -129 398 -129 c 0
 415 -129 434 -125 453 -116 c 1
 453 -183 l 1
 432 -194 408 -199 379 -199 c 0xdf
EndSplineSet
EndChar

StartChar: Ecaron
Encoding: 282 282 218
Width: 667
GlyphClass: 2
Flags: MW
HStem: 0 111<211 628 211 628> 292 112<211 578 211 578> 577 111<211 608 211 211> 747 149<166 404 166 292>
VStem: 67 144<111 292 404 577>
LayerCount: 2
Fore
SplineSet
628 0 m 1
 67 0 l 1
 67 688 l 1
 608 688 l 1
 608 577 l 1
 211 577 l 1
 211 404 l 1
 578 404 l 1
 578 292 l 1
 211 292 l 1
 211 111 l 1
 628 111 l 1
 628 0 l 1
526 882 m 1
 404 747 l 1
 292 747 l 1
 166 882 l 1
 166 896 l 1
 244 896 l 1
 347 822 l 1
 349 822 l 1
 448 896 l 1
 526 896 l 1
 526 882 l 1
EndSplineSet
EndChar

StartChar: ecaron
Encoding: 283 283 219
Width: 556
GlyphClass: 2
Flags: MW
HStem: -10 92<257.5 317.5 257.5 343.5> 238 86<184 389 184 522 183 389> 452 86<254 316.5> 578 169<105 343 105 231>
VStem: 39 144<186.5 238 186.5 353.5> 389 133<238 324>
LayerCount: 2
Fore
SplineSet
286 -10 m 0
 127 -10 39 86 39 267 c 0
 39 440 129 538 288 538 c 0
 440 538 522 435 522 242 c 2
 522 238 l 1
 183 238 l 1
 183 135 222 82 293 82 c 0
 342 82 372 103 385 145 c 1
 514 134 l 1
 477 38 401 -10 286 -10 c 0
286 452 m 0
 222 452 187 404 184 324 c 1
 389 324 l 1
 384 409 347 452 286 452 c 0
465 732 m 1
 343 578 l 1
 231 578 l 1
 105 732 l 1
 105 747 l 1
 184 747 l 1
 287 652 l 1
 289 652 l 1
 388 747 l 1
 465 747 l 1
 465 732 l 1
EndSplineSet
EndChar

StartChar: Gcircumflex
Encoding: 284 284 220
Width: 778
GlyphClass: 2
Flags: MW
HStem: -10 113<328 431.5 328 454> 256 107<416 584 416 716> 585 113<325.5 434.5> 747 149<209 447 209 447 335 569 335 491>
VStem: 41 145<269 423.5 269 460.5> 584 132<161 256 256 256>
LayerCount: 2
Fore
SplineSet
394 103 m 0
 469 103 545 128 584 161 c 1
 584 256 l 1
 416 256 l 1
 416 363 l 1
 716 363 l 1
 716 110 l 1
 643 35 518 -10 390 -10 c 0
 166 -10 41 119 41 347 c 0
 41 574 166 698 393 698 c 0
 554 698 657 638 701 519 c 1
 568 479 l 1
 540 548 476 585 393 585 c 0
 258 585 186 500 186 347 c 0
 186 191 262 103 394 103 c 0
447 896 m 1
 569 761 l 1
 569 747 l 1
 491 747 l 1
 392 821 l 1
 390 821 l 1
 287 747 l 1
 209 747 l 1
 209 761 l 1
 335 896 l 1
 447 896 l 1
EndSplineSet
EndChar

StartChar: gcircumflex
Encoding: 285 285 221
Width: 611
GlyphClass: 2
Flags: MW
HStem: -212 90<269 333 269 372.5> 1 95<256.5 276.5> 444 84 444 95<257.5 283.5 179 330> 578 169<114 352 114 352 240 474 240 396>
VStem: 41 143<211.5 327.5 211.5 355> 405 136<18 46 46 46 98 98>
LayerCount: 2
Fore
SplineSet
291 -212 m 0xde
 162 -212 82 -161 63 -70 c 1
 200 -54 l 1
 211 -95 243 -122 295 -122 c 0
 371 -122 405 -74 405 18 c 2
 405 46 l 1
 406 98 l 1
 405 98 l 1
 374 33 318 1 235 1 c 0
 112 1 41 97 41 269 c 0
 41 441 113 539 245 539 c 0
 322 539 375 507 405 443 c 1
 407 443 l 1
 407 454 408 470 409 489 c 0xde
 411 509 413 522 414 528 c 1
 544 528 l 1xee
 542 493 541 453 541 406 c 2
 541 16 l 2
 541 -135 454 -212 291 -212 c 0xde
406 271 m 0
 406 380 366 444 294 444 c 0
 221 444 184 386 184 269 c 0
 184 154 220 96 293 96 c 0
 366 96 406 160 406 271 c 0
352 747 m 1
 474 591 l 1
 474 578 l 1
 396 578 l 1
 297 671 l 1
 295 671 l 1
 192 578 l 1
 114 578 l 1
 114 591 l 1
 240 747 l 1
 352 747 l 1
EndSplineSet
EndChar

StartChar: Gbreve
Encoding: 286 286 222
Width: 778
GlyphClass: 2
Flags: MW
HStem: -10 113<328 431.5 328 454> 256 107<416 584 416 716> 585 113<325.5 434.5> 742 74<372.5 419.5 372.5 442.5>
VStem: 41 145<269 423.5 269 460.5> 584 132<161 256 256 256>
LayerCount: 2
Fore
SplineSet
394 103 m 0
 469 103 545 128 584 161 c 1
 584 256 l 1
 416 256 l 1
 416 363 l 1
 716 363 l 1
 716 110 l 1
 643 35 518 -10 390 -10 c 0
 166 -10 41 119 41 347 c 0
 41 574 166 698 393 698 c 0
 554 698 657 638 701 519 c 1
 568 479 l 1
 540 548 476 585 393 585 c 0
 258 585 186 500 186 347 c 0
 186 191 262 103 394 103 c 0
395 742 m 0
 348 742 308 755 276 781 c 0
 244 808 226 842 223 883 c 1
 302 883 l 1
 313 843 349 816 396 816 c 0
 443 816 479 842 488 883 c 1
 568 883 l 1
 556 796 490 742 395 742 c 0
EndSplineSet
EndChar

StartChar: gbreve
Encoding: 287 287 223
Width: 611
GlyphClass: 2
Flags: MW
HStem: -212 90<269 333 269 372.5> 1 95<256.5 276.5> 444 84 444 95<257.5 283.5 179 330> 578 76<273.5 319.5 273.5 345>
VStem: 41 143<211.5 327.5 211.5 355> 405 136<18 46 46 46 98 98>
LayerCount: 2
Fore
SplineSet
291 -212 m 0xde
 162 -212 82 -161 63 -70 c 1
 200 -54 l 1
 211 -95 243 -122 295 -122 c 0
 371 -122 405 -74 405 18 c 2
 405 46 l 1
 406 98 l 1
 405 98 l 1
 374 33 318 1 235 1 c 0
 112 1 41 97 41 269 c 0
 41 441 113 539 245 539 c 0
 322 539 375 507 405 443 c 1
 407 443 l 1
 407 454 408 470 409 489 c 0xde
 411 509 413 522 414 528 c 1
 544 528 l 1xee
 542 493 541 453 541 406 c 2
 541 16 l 2
 541 -135 454 -212 291 -212 c 0xde
406 271 m 0
 406 380 366 444 294 444 c 0
 221 444 184 386 184 269 c 0
 184 154 220 96 293 96 c 0
 366 96 406 160 406 271 c 0
295 578 m 0
 246 578 206 593 175 622 c 0
 144 652 127 690 124 735 c 1
 203 735 l 1
 214 686 251 654 296 654 c 0
 343 654 380 684 389 735 c 1
 469 735 l 1
 457 639 395 578 295 578 c 0
EndSplineSet
EndChar

StartChar: Gdotaccent
Encoding: 288 288 224
Width: 778
GlyphClass: 2
Flags: MW
HStem: -10 113<328 431.5 328 454> 256 107<416 584 416 716> 585 113<325.5 434.5> 755 101<326 463 326 463>
VStem: 41 145<269 423.5 269 460.5> 326 137<755 856 755 856> 584 132<161 256 256 256>
LayerCount: 2
Fore
SplineSet
394 103 m 0
 469 103 545 128 584 161 c 1
 584 256 l 1
 416 256 l 1
 416 363 l 1
 716 363 l 1
 716 110 l 1
 643 35 518 -10 390 -10 c 0
 166 -10 41 119 41 347 c 0
 41 574 166 698 393 698 c 0
 554 698 657 638 701 519 c 1
 568 479 l 1
 540 548 476 585 393 585 c 0
 258 585 186 500 186 347 c 0
 186 191 262 103 394 103 c 0
463 755 m 1
 326 755 l 1
 326 856 l 1
 463 856 l 1
 463 755 l 1
EndSplineSet
EndChar

StartChar: gdotaccent
Encoding: 289 289 225
Width: 611
GlyphClass: 2
Flags: MW
HStem: -212 90<269 333 269 372.5> 1 95<256.5 276.5> 444 84 444 95<257.5 283.5 179 330> 624 101<237 374 237 374>
VStem: 41 143<211.5 327.5 211.5 355> 237 137<624 725 624 725> 405 136<18 46 46 46 98 98>
LayerCount: 2
Fore
SplineSet
291 -212 m 0xdf
 162 -212 82 -161 63 -70 c 1
 200 -54 l 1
 211 -95 243 -122 295 -122 c 0
 371 -122 405 -74 405 18 c 2
 405 46 l 1
 406 98 l 1
 405 98 l 1
 374 33 318 1 235 1 c 0
 112 1 41 97 41 269 c 0
 41 441 113 539 245 539 c 0
 322 539 375 507 405 443 c 1
 407 443 l 1
 407 454 408 470 409 489 c 0xdf
 411 509 413 522 414 528 c 1
 544 528 l 1xef
 542 493 541 453 541 406 c 2
 541 16 l 2
 541 -135 454 -212 291 -212 c 0xdf
406 271 m 0
 406 380 366 444 294 444 c 0
 221 444 184 386 184 269 c 0
 184 154 220 96 293 96 c 0
 366 96 406 160 406 271 c 0
374 624 m 1
 237 624 l 1
 237 725 l 1
 374 725 l 1
 374 624 l 1
EndSplineSet
EndChar

StartChar: Gcommaaccent
Encoding: 290 290 226
Width: 778
GlyphClass: 2
Flags: MW
HStem: -139 101<338 391 338 458> -10 113<328 431.5 328 454> 256 107<416 584 416 716> 585 113<325.5 434.5>
VStem: 41 145<269 423.5 269 460.5> 338 120<-123.5 -100 -100 -38 -123.5 -38> 584 132<161 256 256 256>
LayerCount: 2
Fore
SplineSet
394 103 m 0
 469 103 545 128 584 161 c 1
 584 256 l 1
 416 256 l 1
 416 363 l 1
 716 363 l 1
 716 110 l 1
 643 35 518 -10 390 -10 c 0
 166 -10 41 119 41 347 c 0
 41 574 166 698 393 698 c 0
 554 698 657 638 701 519 c 1
 568 479 l 1
 540 548 476 585 393 585 c 0
 258 585 186 500 186 347 c 0
 186 191 262 103 394 103 c 0
458 -38 m 1
 458 -100 l 2
 458 -147 445 -182 412 -222 c 1
 345 -222 l 1
 376 -189 391 -162 391 -139 c 1
 338 -139 l 1
 338 -38 l 1
 458 -38 l 1
EndSplineSet
EndChar

StartChar: gcommaaccent
Encoding: 291 291 227
Width: 611
GlyphClass: 2
Flags: MW
HStem: -212 90<269 333 269 372.5> 1 95<256.5 276.5> 444 84 444 95<257.5 283.5 179 330> 592 101<242 362 309 362 309 362>
VStem: 41 143<211.5 327.5 211.5 355> 242 120<592 663 663 691.5> 405 136<18 46 46 46 98 98>
LayerCount: 2
Fore
SplineSet
291 -212 m 0xdf
 162 -212 82 -161 63 -70 c 1
 200 -54 l 1
 211 -95 243 -122 295 -122 c 0
 371 -122 405 -74 405 18 c 2
 405 46 l 1
 406 98 l 1
 405 98 l 1
 374 33 318 1 235 1 c 0
 112 1 41 97 41 269 c 0
 41 441 113 539 245 539 c 0
 322 539 375 507 405 443 c 1
 407 443 l 1
 407 454 408 470 409 489 c 0xdf
 411 509 413 522 414 528 c 1
 544 528 l 1xef
 542 493 541 453 541 406 c 2
 541 16 l 2
 541 -135 454 -212 291 -212 c 0xdf
406 271 m 0
 406 380 366 444 294 444 c 0
 221 444 184 386 184 269 c 0
 184 154 220 96 293 96 c 0
 366 96 406 160 406 271 c 0
242 592 m 1
 242 663 l 2
 242 720 258 755 283 786 c 1
 355 786 l 1
 324 753 309 722 309 693 c 1
 362 693 l 1
 362 592 l 1
 242 592 l 1
EndSplineSet
EndChar

StartChar: Hcircumflex
Encoding: 292 292 228
Width: 722
GlyphClass: 2
Flags: MW
HStem: 0 21G<67 211 67 67 511 655 511 511> 295 119<211 511 211 511> 668 20G<67 211 211 211 511 655 655 655> 747 149<184 421 184 421 310 543 310 466>
VStem: 67 144<0 295 0 414 414 688> 511 144<0 295 295 295 414 688>
LayerCount: 2
Fore
SplineSet
655 0 m 1
 511 0 l 1
 511 295 l 1
 211 295 l 1
 211 0 l 1
 67 0 l 1
 67 688 l 1
 211 688 l 1
 211 414 l 1
 511 414 l 1
 511 688 l 1
 655 688 l 1
 655 0 l 1
421 896 m 1
 543 761 l 1
 543 747 l 1
 466 747 l 1
 367 821 l 1
 365 821 l 1
 262 747 l 1
 184 747 l 1
 184 761 l 1
 310 896 l 1
 421 896 l 1
EndSplineSet
EndChar

StartChar: hcircumflex
Encoding: 293 293 229
Width: 611
GlyphClass: 2
Flags: MW
HStem: 0 21G<70 207 70 70 412 549 412 412> 435 103<336.5 349.5> 786 149<134 372 134 372 260 494 260 417>
VStem: 70 137<0 283 509.5 527 527 725> 412 137<0 296 296 335 0 342.5>
LayerCount: 2
Fore
SplineSet
203 423 m 1
 205 423 l 1
 242 503 298 538 375 538 c 0
 487 538 549 468 549 335 c 2
 549 0 l 1
 412 0 l 1
 412 296 l 2
 412 389 381 435 318 435 c 0
 251 435 207 372 207 283 c 2
 207 0 l 1
 70 0 l 1
 70 725 l 1
 207 725 l 1
 207 527 l 2
 207 492 206 457 203 423 c 1
372 935 m 1
 494 800 l 1
 494 786 l 1
 417 786 l 1
 317 859 l 1
 315 859 l 1
 212 786 l 1
 134 786 l 1
 134 800 l 1
 260 935 l 1
 372 935 l 1
EndSplineSet
EndChar

StartChar: Hbar
Encoding: 294 294 230
Width: 722
GlyphClass: 2
Flags: MW
HStem: 0 21G<67 211 67 67 516 655 516 516> 295 119<211 516 211 516> 510 83<7 67 7 67 211 516 655 715> 510 178<7 211 7 211 67 211 67 516>
VStem: 67 144<0 295 414 510 593 688> 516 139<0 295 295 295 414 510 593 688>
LayerCount: 2
Fore
SplineSet
655 0 m 1xdc
 516 0 l 1
 516 295 l 1
 211 295 l 1
 211 0 l 1
 67 0 l 1
 67 510 l 1
 7 510 l 1xdc
 7 593 l 1
 67 593 l 1xec
 67 688 l 1
 211 688 l 1xdc
 211 593 l 1
 516 593 l 1xec
 516 688 l 1
 655 688 l 1xdc
 655 593 l 1
 715 593 l 1xec
 715 510 l 1
 655 510 l 1
 655 0 l 1xdc
211 414 m 1
 516 414 l 1
 516 510 l 1
 211 510 l 1
 211 414 l 1
EndSplineSet
EndChar

StartChar: hbar
Encoding: 295 295 231
Width: 611
GlyphClass: 2
Flags: MW
HStem: 0 21G<70 207 70 70 412 549 412 412> 416 103<336.5 349.5> 574 83<5 70 5 70 207 356>
VStem: 70 137<0 263 489.5 507 507 574 657 725> 412 137<0 276 276 315 0 322.5>
LayerCount: 2
Fore
SplineSet
203 403 m 1
 205 403 l 1
 242 484 298 519 375 519 c 0
 487 519 549 448 549 315 c 2
 549 0 l 1
 412 0 l 1
 412 276 l 2
 412 369 381 416 318 416 c 0
 251 416 207 352 207 263 c 2
 207 0 l 1
 70 0 l 1
 70 574 l 1
 5 574 l 1
 5 657 l 1
 70 657 l 1
 70 725 l 1
 207 725 l 1
 207 657 l 1
 356 657 l 1
 356 574 l 1
 207 574 l 1
 207 507 l 2
 207 472 206 437 203 403 c 1
EndSplineSet
EndChar

StartChar: Itilde
Encoding: 296 296 232
Width: 278
GlyphClass: 2
Flags: MW
HStem: 0 21G<67 211 67 67> 668 20G<67 211 211 211> 747 83<198 229.5 198 255.5> 807 83<50.5 84>
VStem: -50 67<747 747> 67 144<0 688>
LayerCount: 2
Fore
SplineSet
211 0 m 1xe4
 67 0 l 1
 67 688 l 1
 211 688 l 1
 211 0 l 1xe4
222 747 m 0
 164 747 104 807 64 807 c 0xdc
 37 807 25 798 17 747 c 1
 -50 747 l 1xec
 -47 784 -42 811 -34 829 c 0
 -18 866 9 890 60 890 c 0xdc
 117 890 180 830 216 830 c 0
 243 830 256 842 265 890 c 1
 331 890 l 1
 326 787 289 747 222 747 c 0
EndSplineSet
EndChar

StartChar: itilde
Encoding: 297 297 233
Width: 278
GlyphClass: 2
Flags: MW
HStem: 0 21G<71 208 71 71> 508 20G<71 208 208 208> 578 83<198 229.5 198 255.5> 638 83<50.5 84>
VStem: -50 67<578 578> 71 137<0 528>
LayerCount: 2
Fore
SplineSet
208 0 m 1xe4
 71 0 l 1
 71 528 l 1
 208 528 l 1
 208 0 l 1xe4
222 578 m 0
 164 578 104 638 64 638 c 0xdc
 37 638 25 627 17 578 c 1
 -50 578 l 1xec
 -47 615 -42 642 -34 660 c 0
 -18 697 9 721 60 721 c 0xdc
 117 721 180 661 216 661 c 0
 243 661 256 673 265 721 c 1
 331 721 l 1
 326 618 289 578 222 578 c 0
EndSplineSet
EndChar

StartChar: Imacron
Encoding: 298 298 234
Width: 278
GlyphClass: 2
Flags: MW
HStem: 0 21G<67 211 67 67> 668 20G<67 211 211 211> 750 83<-10 289 -10 289>
VStem: 67 144<0 688>
LayerCount: 2
Fore
SplineSet
211 0 m 1
 67 0 l 1
 67 688 l 1
 211 688 l 1
 211 0 l 1
-10 750 m 1
 -10 833 l 1
 289 833 l 1
 289 750 l 1
 -10 750 l 1
EndSplineSet
EndChar

StartChar: imacron
Encoding: 299 299 235
Width: 278
GlyphClass: 2
Flags: MW
HStem: 0 21G<71 208 71 71> 508 20G<71 208 208 208> 587 82<-10 289 -10 289>
VStem: 71 137<0 528>
LayerCount: 2
Fore
SplineSet
208 0 m 1
 71 0 l 1
 71 528 l 1
 208 528 l 1
 208 0 l 1
-10 587 m 1
 -10 669 l 1
 289 669 l 1
 289 587 l 1
 -10 587 l 1
EndSplineSet
EndChar

StartChar: Ibreve
Encoding: 300 300 236
Width: 278
GlyphClass: 2
Flags: MW
HStem: 0 21G<67 211 67 67> 668 20G<67 211 211 211> 742 74<116.5 163.5 116.5 186.5>
VStem: 67 144<0 688>
LayerCount: 2
Fore
SplineSet
211 0 m 1
 67 0 l 1
 67 688 l 1
 211 688 l 1
 211 0 l 1
139 742 m 0
 92 742 52 755 20 781 c 0
 -12 808 -30 842 -33 883 c 1
 46 883 l 1
 57 843 93 816 140 816 c 0
 187 816 224 842 232 883 c 1
 313 883 l 1
 300 796 234 742 139 742 c 0
EndSplineSet
EndChar

StartChar: ibreve
Encoding: 301 301 237
Width: 278
GlyphClass: 2
Flags: MW
HStem: 0 21G<71 208 71 71> 508 20G<71 208 208 208> 578 76<116.5 163.5 116.5 189>
VStem: 71 137<0 528>
LayerCount: 2
Fore
SplineSet
208 0 m 1
 71 0 l 1
 71 528 l 1
 208 528 l 1
 208 0 l 1
139 578 m 0
 40 578 -25 644 -33 735 c 1
 47 735 l 1
 58 686 93 654 140 654 c 0
 187 654 224 684 233 735 c 1
 313 735 l 1
 301 639 239 578 139 578 c 0
EndSplineSet
EndChar

StartChar: Iogonek
Encoding: 302 302 238
Width: 278
GlyphClass: 2
Flags: MW
HStem: -208 70<163.5 173.5> 0 10<120 195 120 211> 668 20G<67 211 211 211>
VStem: 43 89<-106 -85.5> 67 144<0 688>
LayerCount: 2
Fore
SplineSet
211 0 m 1xe8
 67 0 l 1
 67 688 l 1
 211 688 l 1
 211 0 l 1xe8
159 -208 m 0
 86 -208 43 -170 43 -110 c 0
 43 -61 73 -14 120 10 c 1xf0
 195 10 l 1
 154 -17 132 -57 132 -92 c 0
 132 -120 149 -138 178 -138 c 0
 195 -138 213 -134 232 -125 c 1
 232 -191 l 1
 212 -202 188 -208 159 -208 c 0
EndSplineSet
EndChar

StartChar: iogonek
Encoding: 303 303 239
Width: 278
GlyphClass: 2
Flags: MW
HStem: -208 70<153.5 163.5> 0 10<111 186 111 207> 508 20G<70 207 207 207> 624 101<70 207 70 207>
VStem: 34 89<-106 -85.5> 70 137<0 528 624 725>
LayerCount: 2
Fore
SplineSet
207 624 m 1xf4
 70 624 l 1
 70 725 l 1
 207 725 l 1
 207 624 l 1xf4
207 0 m 1
 70 0 l 1
 70 528 l 1
 207 528 l 1
 207 0 l 1
149 -208 m 0
 77 -208 34 -170 34 -110 c 0
 34 -61 64 -14 111 10 c 1xf8
 186 10 l 1
 145 -17 123 -57 123 -92 c 0
 123 -120 139 -138 168 -138 c 0
 186 -138 204 -134 223 -125 c 1
 223 -191 l 1
 202 -202 178 -208 149 -208 c 0
EndSplineSet
EndChar

StartChar: Idotaccent
Encoding: 304 304 240
Width: 278
GlyphClass: 2
Flags: MW
HStem: 0 21G<67 211 67 67> 668 20G<67 211 211 211> 755 101<71 208 71 208>
VStem: 67 144<0 688>
LayerCount: 2
Fore
SplineSet
211 0 m 1
 67 0 l 1
 67 688 l 1
 211 688 l 1
 211 0 l 1
208 755 m 1
 71 755 l 1
 71 856 l 1
 208 856 l 1
 208 755 l 1
EndSplineSet
EndChar

StartChar: dotlessi
Encoding: 305 305 241
Width: 278
GlyphClass: 2
Flags: MW
HStem: 0 21G<71 208 71 71> 508 20G<71 208 208 208>
VStem: 71 137<0 528>
LayerCount: 2
Fore
SplineSet
208 0 m 1
 71 0 l 1
 71 528 l 1
 208 528 l 1
 208 0 l 1
EndSplineSet
EndChar

StartChar: IJ
Encoding: 306 306 242
Width: 785
GlyphClass: 2
Flags: MW
HStem: -10 113<457 513.5 457 557.5> 0 21G<67 211 67 67> 575 113<436 573>
VStem: 67 144<0 688> 573 143<214 218 218 575 575 575>
LayerCount: 2
Fore
SplineSet
211 0 m 1x78
 67 0 l 1
 67 688 l 1
 211 688 l 1
 211 0 l 1x78
484 -10 m 0xb8
 341 -10 269 48 244 187 c 1
 387 208 l 1
 399 136 429 103 485 103 c 0
 542 103 573 143 573 214 c 2
 573 575 l 1
 436 575 l 1
 436 688 l 1
 716 688 l 1
 716 218 l 2
 716 74 631 -10 484 -10 c 0xb8
EndSplineSet
EndChar

StartChar: ij
Encoding: 307 307 243
Width: 556
GlyphClass: 2
Flags: MW
HStem: -208 100<287 391.5> 0 21G<70 207 70 70> 508 20G<70 207 207 207 348 485 485 485> 624 101<70 207 70 207 348 485>
VStem: 70 137<0 528 624 725> 348 137<-29 528 624 725>
LayerCount: 2
Fore
SplineSet
207 624 m 1
 70 624 l 1
 70 725 l 1
 207 725 l 1
 207 624 l 1
207 0 m 1
 70 0 l 1
 70 528 l 1
 207 528 l 1
 207 0 l 1
485 624 m 1
 348 624 l 1
 348 725 l 1
 485 725 l 1
 485 624 l 1
345 -208 m 0
 312 -208 285 -206 262 -203 c 1
 262 -106 l 1
 287 -108 l 2
 334 -108 348 -94 348 -29 c 2
 348 528 l 1
 485 528 l 1
 485 -63 l 2
 485 -155 438 -208 345 -208 c 0
EndSplineSet
EndChar

StartChar: Jcircumflex
Encoding: 308 308 244
Width: 556
GlyphClass: 2
Flags: MW
HStem: -10 113<229 285.5 229 329.5> 575 113<207 344 207 488> 747 149<157 395 157 395 283 517 283 439>
VStem: 344 144<214 218 218 575 575 575>
LayerCount: 2
Fore
SplineSet
256 -10 m 0
 113 -10 40 48 15 187 c 1
 158 208 l 1
 170 136 201 103 257 103 c 0
 314 103 344 143 344 214 c 2
 344 575 l 1
 207 575 l 1
 207 688 l 1
 488 688 l 1
 488 218 l 2
 488 74 403 -10 256 -10 c 0
395 896 m 1
 517 761 l 1
 517 747 l 1
 439 747 l 1
 340 821 l 1
 338 821 l 1
 235 747 l 1
 157 747 l 1
 157 761 l 1
 283 896 l 1
 395 896 l 1
EndSplineSet
EndChar

StartChar: jcircumflex
Encoding: 309 309 245
Width: 278
GlyphClass: 2
Flags: MW
HStem: -208 100<9 113.5> 508 20G<70 208 208 208> 578 169<-44 194 -44 194 82 316 82 238>
VStem: 70 138<-29 528>
LayerCount: 2
Fore
SplineSet
194 747 m 1
 316 591 l 1
 316 578 l 1
 238 578 l 1
 139 671 l 1
 137 671 l 1
 34 578 l 1
 -44 578 l 1
 -44 591 l 1
 82 747 l 1
 194 747 l 1
67 -208 m 0
 35 -208 7 -206 -16 -203 c 1
 -16 -106 l 1
 9 -108 l 2
 56 -108 70 -94 70 -29 c 2
 70 528 l 1
 208 528 l 1
 208 -63 l 2
 208 -155 160 -208 67 -208 c 0
EndSplineSet
EndChar

StartChar: Kcommaaccent
Encoding: 310 310 246
Width: 722
GlyphClass: 2
Flags: MW
HStem: -139 101<308 360 308 427> 0 21G<67 211 67 67 543 713 543 543> 668 20G<67 211 211 211 521 689 689 689>
VStem: 67 144<0 251 0 376 376 688> 308 119<-123.5 -100 -100 -38 -123.5 -38>
LayerCount: 2
Fore
SplineSet
713 0 m 1
 543 0 l 1
 296 316 l 1
 211 251 l 1
 211 0 l 1
 67 0 l 1
 67 688 l 1
 211 688 l 1
 211 376 l 1
 521 688 l 1
 689 688 l 1
 395 397 l 1
 713 0 l 1
427 -38 m 1
 427 -100 l 2
 427 -147 414 -182 381 -222 c 1
 314 -222 l 1
 345 -189 360 -162 360 -139 c 1
 308 -139 l 1
 308 -38 l 1
 427 -38 l 1
EndSplineSet
EndChar

StartChar: kcommaaccent
Encoding: 311 311 247
Width: 556
GlyphClass: 2
Flags: MW
HStem: -139 101<234 287 234 354> 0 21G<70 207 70 70 407 557 407 407> 508 20G<396 543 543 543>
VStem: 70 137<0 198 0 310 310 725> 234 120<-123.5 -100 -100 -38 -123.5 -38>
LayerCount: 2
Fore
SplineSet
557 0 m 1
 407 0 l 1
 266 239 l 1
 207 198 l 1
 207 0 l 1
 70 0 l 1
 70 725 l 1
 207 725 l 1
 207 310 l 1
 396 528 l 1
 543 528 l 1
 357 322 l 1
 557 0 l 1
354 -38 m 1
 354 -100 l 2
 354 -147 341 -182 308 -222 c 1
 241 -222 l 1
 272 -189 287 -162 287 -139 c 1
 234 -139 l 1
 234 -38 l 1
 354 -38 l 1
EndSplineSet
EndChar

StartChar: kgreenlandic
Encoding: 312 312 248
Width: 556
GlyphClass: 2
Flags: MW
HStem: 0 21G<70 207 70 70 407 557 407 407> 508 20G<70 207 207 207 396 543 543 543>
VStem: 70 137<0 198 0 310 310 528>
LayerCount: 2
Fore
SplineSet
557 0 m 1
 407 0 l 1
 266 239 l 1
 207 198 l 1
 207 0 l 1
 70 0 l 1
 70 528 l 1
 207 528 l 1
 207 310 l 1
 396 528 l 1
 543 528 l 1
 357 322 l 1
 557 0 l 1
EndSplineSet
EndChar

StartChar: Lacute
Encoding: 313 313 249
Width: 611
GlyphClass: 2
Flags: MW
HStem: 0 111<211 580 211 580> 668 20G<67 211 211 211> 865 21<250 376>
VStem: 67 144<111 688 111 688 111 688>
LayerCount: 2
Fore
SplineSet
580 0 m 1
 67 0 l 1
 67 688 l 1
 211 688 l 1
 211 111 l 1
 580 111 l 1
 580 0 l 1
210 747 m 1
 127 747 l 1
 127 762 l 1
 250 886 l 1
 376 886 l 1
 376 865 l 1
 210 747 l 1
EndSplineSet
EndChar

StartChar: lacute
Encoding: 314 314 250
Width: 278
GlyphClass: 2
Flags: MW
HStem: 0 21G<70 207 70 70> 904 21<175 301>
VStem: 70 137<0 725>
LayerCount: 2
Fore
SplineSet
207 0 m 1
 70 0 l 1
 70 725 l 1
 207 725 l 1
 207 0 l 1
135 786 m 1
 52 786 l 1
 52 801 l 1
 175 925 l 1
 301 925 l 1
 301 904 l 1
 135 786 l 1
EndSplineSet
EndChar

StartChar: Lcommaaccent
Encoding: 315 315 251
Width: 611
GlyphClass: 2
Flags: MW
HStem: -139 101<250 303 250 370> 0 111<211 580 211 580> 668 20G<67 211 211 211>
VStem: 67 144<111 688 111 688 111 688> 250 120<-123.5 -100 -100 -38 -123.5 -38>
LayerCount: 2
Fore
SplineSet
580 0 m 1
 67 0 l 1
 67 688 l 1
 211 688 l 1
 211 111 l 1
 580 111 l 1
 580 0 l 1
370 -38 m 1
 370 -100 l 2
 370 -147 357 -182 324 -222 c 1
 257 -222 l 1
 288 -189 303 -162 303 -139 c 1
 250 -139 l 1
 250 -38 l 1
 370 -38 l 1
EndSplineSet
EndChar

StartChar: lcommaaccent
Encoding: 316 316 252
Width: 278
GlyphClass: 2
Flags: MW
HStem: -139 101<79 131 79 198> 0 21G<70 207 70 70>
VStem: 70 137<0 725> 131 67<-150.5 -100>
LayerCount: 2
Fore
SplineSet
207 0 m 1xe0
 70 0 l 1
 70 725 l 1
 207 725 l 1
 207 0 l 1xe0
198 -38 m 1
 198 -100 l 2
 198 -147 185 -182 152 -222 c 1xe0
 85 -222 l 1
 116 -189 131 -162 131 -139 c 1xd0
 79 -139 l 1
 79 -38 l 1
 198 -38 l 1
EndSplineSet
EndChar

StartChar: Lcaron
Encoding: 317 317 253
Width: 611
GlyphClass: 2
Flags: MW
HStem: 0 111<211 580 211 580> 587 101<361 414>
VStem: 67 144<111 688 111 688 111 688> 361 119<593 617 617 688 593 688>
LayerCount: 2
Fore
SplineSet
580 0 m 1
 67 0 l 1
 67 688 l 1
 211 688 l 1
 211 111 l 1
 580 111 l 1
 580 0 l 1
480 688 m 1
 480 617 l 2
 480 569 467 533 435 494 c 1
 368 494 l 1
 399 527 414 558 414 587 c 1
 361 587 l 1
 361 688 l 1
 480 688 l 1
EndSplineSet
EndChar

StartChar: lcaron
Encoding: 318 318 254
Width: 385
GlyphClass: 2
Flags: MW
HStem: 0 21G<70 207 70 70> 624 101<266 319 70 266>
VStem: 70 137<0 725> 266 120<629.5 653 653 725 629.5 725>
LayerCount: 2
Fore
SplineSet
207 0 m 1
 70 0 l 1
 70 725 l 1
 207 725 l 1
 207 0 l 1
386 725 m 1
 386 653 l 2
 386 606 373 570 340 531 c 1
 273 531 l 1
 304 564 319 595 319 624 c 1
 266 624 l 1
 266 725 l 1
 386 725 l 1
EndSplineSet
EndChar

StartChar: Ldot
Encoding: 319 319 255
Width: 611
GlyphClass: 2
Flags: MW
HStem: 0 111<211 580 211 580> 318 101<327 464 327 464> 668 20G<67 211 211 211>
VStem: 67 144<111 688 111 688 111 688> 327 137<318 419 318 419>
LayerCount: 2
Fore
SplineSet
580 0 m 1
 67 0 l 1
 67 688 l 1
 211 688 l 1
 211 111 l 1
 580 111 l 1
 580 0 l 1
464 318 m 1
 327 318 l 1
 327 419 l 1
 464 419 l 1
 464 318 l 1
EndSplineSet
EndChar

StartChar: ldot
Encoding: 320 320 256
Width: 479
GlyphClass: 2
Flags: MW
HStem: 0 21G<70 207 70 70> 318 101<293 430 293 430>
VStem: 70 137<0 725> 293 137<318 419 318 419>
LayerCount: 2
Fore
SplineSet
207 0 m 1
 70 0 l 1
 70 725 l 1
 207 725 l 1
 207 0 l 1
430 318 m 1
 293 318 l 1
 293 419 l 1
 430 419 l 1
 430 318 l 1
EndSplineSet
EndChar

StartChar: Lslash
Encoding: 321 321 257
Width: 611
GlyphClass: 2
Flags: MW
HStem: 0 113<211 580 211 580> 668 20G<67 211 211 211>
VStem: 67 144<113 236 236 236 415 688>
LayerCount: 2
Fore
SplineSet
580 0 m 1
 67 0 l 1
 67 236 l 1
 0 204 l 1
 0 314 l 1
 67 346 l 1
 67 688 l 1
 211 688 l 1
 211 415 l 1
 361 487 l 1
 361 378 l 1
 211 306 l 1
 211 113 l 1
 580 113 l 1
 580 0 l 1
EndSplineSet
EndChar

StartChar: lslash
Encoding: 322 322 258
Width: 278
GlyphClass: 2
Flags: MW
HStem: 0 21G<70 207 70 70>
VStem: 70 137<0 274 274 274 0 455 455 725>
LayerCount: 2
Fore
SplineSet
270 387 m 1
 207 350 l 1
 207 0 l 1
 70 0 l 1
 70 274 l 1
 9 240 l 1
 9 345 l 1
 70 379 l 1
 70 725 l 1
 207 725 l 1
 207 455 l 1
 270 491 l 1
 270 387 l 1
EndSplineSet
EndChar

StartChar: Nacute
Encoding: 323 323 259
Width: 722
GlyphClass: 2
Flags: MW
HStem: 0 21G<67 195 67 67 486 655 486 486> 0 154<536 536 536 655 486 536> 530 158<186 186> 668 20G<67 231 231 231 527 655 655 655> 865 21<403 529>
VStem: 67 128<0 406 0 688> 527 128<288 688>
LayerCount: 2
Fore
SplineSet
655 0 m 1x9e
 486 0 l 1
 186 530 l 1xae
 192 479 195 437 195 406 c 2
 195 0 l 1
 67 0 l 1
 67 688 l 1
 231 688 l 1
 536 154 l 1x5e
 530 203 527 248 527 288 c 2
 527 688 l 1
 655 688 l 1
 655 0 l 1x9e
363 747 m 1
 280 747 l 1
 280 762 l 1
 403 886 l 1
 529 886 l 1
 529 865 l 1
 363 747 l 1
EndSplineSet
EndChar

StartChar: nacute
Encoding: 324 324 260
Width: 611
GlyphClass: 2
Flags: MW
HStem: 0 21G<70 207 70 70 412 549 412 412> 436 92<66 349.5> 436 103<336.5 349.5> 712 21<355 481>
VStem: 70 137<0 283 0 410 0 438.5> 412 137<0 296 296 335>
LayerCount: 2
Fore
SplineSet
549 0 m 1xbc
 412 0 l 1
 412 296 l 2
 412 389 381 436 318 436 c 0xbc
 251 436 207 372 207 283 c 2
 207 0 l 1
 70 0 l 1
 70 410 l 2
 70 467 67 500 66 528 c 1
 197 528 l 1
 198 522 199 505 200 478 c 0xdc
 202 451 203 433 203 423 c 1
 205 423 l 1
 242 504 298 539 375 539 c 0
 487 539 549 468 549 335 c 2
 549 0 l 1xbc
315 578 m 1
 232 578 l 1
 232 593 l 1
 355 733 l 1
 481 733 l 1
 481 712 l 1
 315 578 l 1
EndSplineSet
EndChar

StartChar: Ncommaaccent
Encoding: 325 325 261
Width: 722
GlyphClass: 2
Flags: MW
HStem: -139 101<298 351 298 418> 0 21G<67 195 67 67 486 655 486 486> 0 154<536 536 536 655 486 536> 530 158<186 186> 668 20G<67 231 231 231 527 655 655 655>
VStem: 67 128<0 406 0 688> 298 120<-123.5 -100 -100 -38 -123.5 -38> 527 128<288 688>
LayerCount: 2
Fore
SplineSet
655 0 m 1xcf
 486 0 l 1
 186 530 l 1xd7
 192 479 195 437 195 406 c 2
 195 0 l 1
 67 0 l 1
 67 688 l 1
 231 688 l 1
 536 154 l 1xaf
 530 203 527 248 527 288 c 2
 527 688 l 1
 655 688 l 1
 655 0 l 1xcf
418 -38 m 1
 418 -100 l 2
 418 -147 405 -182 372 -222 c 1
 305 -222 l 1
 336 -189 351 -162 351 -139 c 1
 298 -139 l 1
 298 -38 l 1
 418 -38 l 1
EndSplineSet
EndChar

StartChar: ncommaaccent
Encoding: 326 326 262
Width: 611
GlyphClass: 2
Flags: MW
HStem: -139 101<251 304 251 371> 0 21G<70 207 70 70 412 549 412 412> 436 92<66 349.5> 436 103<336.5 349.5>
VStem: 70 137<0 283 0 410 0 438.5> 251 120<-123.5 -100 -100 -38 -123.5 -38> 412 137<0 296 296 335>
LayerCount: 2
Fore
SplineSet
549 0 m 1xde
 412 0 l 1
 412 296 l 2
 412 389 381 436 318 436 c 0xde
 251 436 207 372 207 283 c 2
 207 0 l 1
 70 0 l 1
 70 410 l 2
 70 467 67 500 66 528 c 1
 197 528 l 1
 198 522 199 505 200 478 c 0xee
 202 451 203 433 203 423 c 1
 205 423 l 1
 242 504 298 539 375 539 c 0
 487 539 549 468 549 335 c 2
 549 0 l 1xde
371 -38 m 1
 371 -100 l 2
 371 -147 358 -182 325 -222 c 1
 258 -222 l 1
 289 -189 304 -162 304 -139 c 1
 251 -139 l 1
 251 -38 l 1
 371 -38 l 1
EndSplineSet
EndChar

StartChar: Ncaron
Encoding: 327 327 263
Width: 722
GlyphClass: 2
Flags: MW
HStem: 0 21G<67 195 67 67 486 655 486 486> 0 154<536 536 536 655 486 536> 530 158<186 186> 668 20G<67 231 231 231 527 655 655 655> 747 149<178 416 178 304>
VStem: 67 128<0 406 0 688> 527 128<288 688>
LayerCount: 2
Fore
SplineSet
655 0 m 1x9e
 486 0 l 1
 186 530 l 1xae
 192 479 195 437 195 406 c 2
 195 0 l 1
 67 0 l 1
 67 688 l 1
 231 688 l 1
 536 154 l 1x5e
 530 203 527 248 527 288 c 2
 527 688 l 1
 655 688 l 1
 655 0 l 1x9e
538 882 m 1
 416 747 l 1
 304 747 l 1
 178 882 l 1
 178 896 l 1
 256 896 l 1
 359 822 l 1
 361 822 l 1
 460 896 l 1
 538 896 l 1
 538 882 l 1
EndSplineSet
EndChar

StartChar: ncaron
Encoding: 328 328 264
Width: 611
GlyphClass: 2
Flags: MW
HStem: 0 21G<70 207 70 70 412 549 412 412> 436 92<66 349.5> 436 103<336.5 349.5> 578 169<118 356 118 244>
VStem: 70 137<0 283 0 410 0 438.5> 412 137<0 296 296 335>
LayerCount: 2
Fore
SplineSet
549 0 m 1xbc
 412 0 l 1
 412 296 l 2
 412 389 381 436 318 436 c 0xbc
 251 436 207 372 207 283 c 2
 207 0 l 1
 70 0 l 1
 70 410 l 2
 70 467 67 500 66 528 c 1
 197 528 l 1
 198 522 199 505 200 478 c 0xdc
 202 451 203 433 203 423 c 1
 205 423 l 1
 242 504 298 539 375 539 c 0
 487 539 549 468 549 335 c 2
 549 0 l 1xbc
478 732 m 1
 356 578 l 1
 244 578 l 1
 118 732 l 1
 118 747 l 1
 196 747 l 1
 299 652 l 1
 301 652 l 1
 400 747 l 1
 478 747 l 1
 478 732 l 1
EndSplineSet
EndChar

StartChar: napostrophe
Encoding: 329 329 265
Width: 708
GlyphClass: 2
Flags: MW
HStem: 0 21G<167 305 167 167 510 646 510 510> 406 122<-11 294> 436 103<434.5 447.5> 561 127<-9 53 -9 131>
VStem: -9 140<561 593 593 688 553.5 688> 167 138<0 283 0 410 0 438.5> 510 136<0 296 296 335>
LayerCount: 2
Fore
SplineSet
646 0 m 1xde
 510 0 l 1
 510 296 l 2
 510 389 479 436 416 436 c 0xbe
 349 436 305 372 305 283 c 2
 305 0 l 1
 167 0 l 1
 167 410 l 2
 167 467 165 500 164 528 c 1
 294 528 l 1
 295 522 297 505 298 478 c 0xde
 300 451 301 433 301 423 c 1
 303 423 l 1
 340 504 396 539 473 539 c 0xbe
 585 539 646 468 646 335 c 2
 646 0 l 1xde
131 688 m 1xde
 131 593 l 2
 131 514 117 461 78 406 c 1
 -11 406 l 1
 32 461 53 512 53 561 c 1
 -9 561 l 1
 -9 688 l 1
 131 688 l 1xde
EndSplineSet
EndChar

StartChar: Eng
Encoding: 330 330 266
Width: 723
GlyphClass: 2
Flags: MW
HStem: -10 114<424.5 440 424.5 517.5> 0 21G<67 211 67 67> 586 112<395.5 436.5> 668 20G<65 206 206 206>
VStem: 67 144<0 410 0 533 0 533> 523 139<270 414 414 434>
LayerCount: 2
Fore
SplineSet
441 -10 m 0xac
 356 -10 302 13 253 77 c 1
 352 161 l 1
 385 116 409 104 440 104 c 0
 502 109 522 136 523 270 c 2
 523 414 l 2
 523 535 483 586 390 586 c 0xac
 292 586 211 504 211 410 c 2
 211 0 l 1
 67 0 l 1
 67 533 l 1
 65 688 l 1
 206 688 l 1x5c
 209 649 211 608 211 565 c 1
 213 565 l 1
 256 648 345 698 446 698 c 0
 598 698 662 618 662 434 c 2
 662 265 l 2
 662 69 594 -10 441 -10 c 0xac
EndSplineSet
EndChar

StartChar: eng
Encoding: 331 331 267
Width: 611
GlyphClass: 2
Flags: MW
HStem: -208 100<351 455> 0 21G<70 207 70 70> 436 92<66 349.5> 436 103<336.5 349.5>
VStem: 70 137<0 283 0 410 0 438.5> 412 137<-29 296 296 335>
LayerCount: 2
Fore
SplineSet
409 -208 m 0xdc
 376 -208 349 -206 326 -203 c 1
 326 -106 l 1
 351 -108 l 2
 399 -108 412 -93 412 -29 c 2
 412 296 l 2
 412 389 381 436 318 436 c 0xdc
 251 436 207 372 207 283 c 2
 207 0 l 1
 70 0 l 1
 70 410 l 2
 70 467 67 500 66 528 c 1
 197 528 l 1
 198 522 199 505 200 478 c 0xec
 202 451 203 433 203 423 c 1
 205 423 l 1
 242 504 298 539 375 539 c 0
 487 539 549 468 549 335 c 2
 549 -63 l 2
 549 -155 501 -208 409 -208 c 0xdc
EndSplineSet
EndChar

StartChar: Omacron
Encoding: 332 332 268
Width: 778
GlyphClass: 2
Flags: MW
HStem: -10 114<333 387> 585 113<333.5 442.5 333.5 451.5> 750 83<239 538 239 538>
VStem: 41 145<291.5 402.5> 239 299<750 833 750 833> 589 147<347 401.5 347 421>
LayerCount: 2
Fore
SplineSet
736 347 m 0
 738 133 599 -13 387 -10 c 0
 279 -10 194 22 133 85 c 0
 72 149 41 236 41 347 c 0
 41 458 72 544 133 605 c 0
 194 667 279 698 388 698 c 0
 497 698 583 667 644 604 c 0
 705 542 736 456 736 347 c 0
589 347 m 0
 589 495 515 585 388 585 c 0
 260 585 186 496 186 347 c 0
 186 196 263 104 387 104 c 0
 516 104 589 191 589 347 c 0
239 750 m 1
 239 833 l 1
 538 833 l 1
 538 750 l 1
 239 750 l 1
EndSplineSet
EndChar

StartChar: omacron
Encoding: 333 333 269
Width: 611
GlyphClass: 2
Flags: MW
HStem: -10 94<263.5 344 263.5 387> 444 94<266.5 347.5> 587 82<158 457 158 457>
VStem: 39 144<222.5 324.5 205.5 349.5> 158 299<587 669 587 669> 428 144<204.5 327.5>
LayerCount: 2
Fore
SplineSet
572 265 m 0xf4
 572 93 471 -10 303 -10 c 0
 221 -10 156 14 109 63 c 0
 62 112 39 180 39 265 c 0
 39 434 138 538 306 538 c 0
 479 538 572 441 572 265 c 0xf4
428 265 m 0
 428 390 387 444 308 444 c 0
 225 444 183 384 183 265 c 0
 183 146 225 84 302 84 c 0
 386 84 428 144 428 265 c 0
158 587 m 1xe8
 158 669 l 1
 457 669 l 1
 457 587 l 1
 158 587 l 1xe8
EndSplineSet
EndChar

StartChar: Obreve
Encoding: 334 334 270
Width: 778
GlyphClass: 2
Flags: MW
HStem: -10 114<333 387> 585 113<333.5 442.5 333.5 451.5> 742 74<361.5 407.5 361.5 430.5>
VStem: 41 145<291.5 402.5> 589 147<347 401.5 347 421>
LayerCount: 2
Fore
SplineSet
736 347 m 0
 738 133 599 -13 387 -10 c 0
 279 -10 194 22 133 85 c 0
 72 149 41 236 41 347 c 0
 41 458 72 544 133 605 c 0
 194 667 279 698 388 698 c 0
 497 698 583 667 644 604 c 0
 705 542 736 456 736 347 c 0
589 347 m 0
 589 495 515 585 388 585 c 0
 260 585 186 496 186 347 c 0
 186 196 263 104 387 104 c 0
 516 104 589 191 589 347 c 0
383 742 m 0
 336 742 296 755 264 781 c 0
 232 808 214 842 211 883 c 1
 291 883 l 1
 300 843 339 816 384 816 c 0
 431 816 468 842 477 883 c 1
 557 883 l 1
 544 796 478 742 383 742 c 0
EndSplineSet
EndChar

StartChar: obreve
Encoding: 335 335 271
Width: 611
GlyphClass: 2
Flags: MW
HStem: -10 94<263.5 344 263.5 387> 444 94<266.5 347.5> 578 76<285.5 332.5 285.5 358>
VStem: 39 144<222.5 324.5 205.5 349.5> 428 144<204.5 327.5>
LayerCount: 2
Fore
SplineSet
572 265 m 0
 572 93 471 -10 303 -10 c 0
 221 -10 156 14 109 63 c 0
 62 112 39 180 39 265 c 0
 39 434 138 538 306 538 c 0
 479 538 572 441 572 265 c 0
428 265 m 0
 428 390 387 444 308 444 c 0
 225 444 183 384 183 265 c 0
 183 146 225 84 302 84 c 0
 386 84 428 144 428 265 c 0
308 578 m 0
 209 578 144 644 136 735 c 1
 216 735 l 1
 227 686 262 654 309 654 c 0
 356 654 393 684 402 735 c 1
 482 735 l 1
 470 639 408 578 308 578 c 0
EndSplineSet
EndChar

StartChar: Ohungarumlaut
Encoding: 336 336 272
Width: 778
GlyphClass: 2
Flags: MW
HStem: -10 114<333 387> 585 113<333.5 442.5 333.5 451.5> 866 21<339 454>
VStem: 41 145<291.5 402.5> 589 147<347 401.5 347 421>
LayerCount: 2
Fore
SplineSet
736 347 m 0
 738 133 599 -13 387 -10 c 0
 279 -10 194 22 133 85 c 0
 72 149 41 236 41 347 c 0
 41 458 72 544 133 605 c 0
 194 667 279 698 388 698 c 0
 497 698 583 667 644 604 c 0
 705 542 736 456 736 347 c 0
589 347 m 0
 589 495 515 585 388 585 c 0
 260 585 186 496 186 347 c 0
 186 196 263 104 387 104 c 0
 516 104 589 191 589 347 c 0
454 866 m 1
 298 747 l 1
 234 747 l 1
 234 764 l 1
 339 887 l 1
 454 887 l 1
 454 866 l 1
652 866 m 1
 497 747 l 1
 432 747 l 1
 432 764 l 1
 537 887 l 1
 652 887 l 1
 652 866 l 1
EndSplineSet
EndChar

StartChar: ohungarumlaut
Encoding: 337 337 273
Width: 611
GlyphClass: 2
Flags: MW
HStem: -10 94<263.5 344 263.5 387> 444 94<266.5 347.5> 704 21<253 368>
VStem: 39 144<222.5 324.5 205.5 349.5> 428 144<204.5 327.5>
LayerCount: 2
Fore
SplineSet
572 265 m 0
 572 93 471 -10 303 -10 c 0
 221 -10 156 14 109 63 c 0
 62 112 39 180 39 265 c 0
 39 434 138 538 306 538 c 0
 479 538 572 441 572 265 c 0
428 265 m 0
 428 390 387 444 308 444 c 0
 225 444 183 384 183 265 c 0
 183 146 225 84 302 84 c 0
 386 84 428 144 428 265 c 0
368 704 m 1
 212 578 l 1
 143 578 l 1
 143 595 l 1
 253 725 l 1
 368 725 l 1
 368 704 l 1
566 704 m 1
 411 578 l 1
 341 578 l 1
 341 595 l 1
 451 725 l 1
 566 725 l 1
 566 704 l 1
EndSplineSet
EndChar

StartChar: OE
Encoding: 338 338 274
Width: 1000
GlyphClass: 2
Flags: MW
HStem: -5 113<332.5 405> 0 108<324.5 961 324.5 484> 0 111<615 961 615 961> 296 108<615 911 615 911> 577 111<615 941 615 615> 580 113<323.5 399.5 278.5 404>
VStem: 41 145<292 421 272.5 457> 470 145<118 296 404 571 571 571>
LayerCount: 2
Fore
SplineSet
961 0 m 1x3b
 484 0 l 2
 460 -1 423 -5 387 -5 c 0
 278 -5 193 26 132 88 c 0
 71 151 41 237 41 347 c 0
 41 567 169 693 388 693 c 0x97
 411 693 444 691 487 688 c 2
 941 688 l 1
 941 577 l 1
 615 577 l 1
 615 404 l 1
 911 404 l 1
 911 296 l 1
 615 296 l 1
 615 111 l 1
 961 111 l 1
 961 0 l 1x3b
470 118 m 1x3b
 470 571 l 1
 447 577 420 580 388 580 c 0
 259 580 186 495 186 347 c 0
 186 198 262 108 387 108 c 0x57
 425 108 453 111 470 118 c 1x3b
EndSplineSet
EndChar

StartChar: oe
Encoding: 339 339 275
Width: 944
GlyphClass: 2
Flags: MW
HStem: -10 94<263.5 343.5> 232 92<574 779 574 912 573 779> 444 94<266.5 347.5> 452 86<643.5 706>
VStem: 39 144<222.5 324.5 205.5 349.5> 428 145<204.5 232 184.5 327.5> 779 133<232 324>
LayerCount: 2
Fore
SplineSet
676 -10 m 0xee
 599 -10 539 16 496 68 c 1
 449 16 384 -10 303 -10 c 0
 221 -10 156 14 109 63 c 0
 62 112 39 180 39 265 c 0
 39 434 138 538 306 538 c 0
 389 538 454 513 499 463 c 1
 542 513 602 538 678 538 c 0
 830 538 912 435 912 242 c 2
 912 232 l 1
 573 232 l 1
 573 137 612 82 683 82 c 0
 731 82 761 103 774 145 c 1
 904 134 l 1
 867 38 791 -10 676 -10 c 0xee
428 265 m 0
 428 390 387 444 308 444 c 0
 225 444 183 384 183 265 c 0
 183 146 225 84 302 84 c 0
 386 84 428 144 428 265 c 0
676 452 m 0xde
 611 452 575 404 574 324 c 1
 779 324 l 1
 774 409 736 452 676 452 c 0xde
EndSplineSet
EndChar

StartChar: Racute
Encoding: 340 340 276
Width: 722
GlyphClass: 2
Flags: MW
HStem: 0 21G<67 211 67 67 540 702 540 540> 261 112<211 380 211 399> 576 112<211 396 211 211> 865 21<391 517>
VStem: 67 144<0 261 0 373 373 576> 522 145<444.5 510>
LayerCount: 2
Fore
SplineSet
702 0 m 1
 540 0 l 1
 380 261 l 1
 211 261 l 1
 211 0 l 1
 67 0 l 1
 67 688 l 1
 411 688 l 2
 575 688 667 615 667 483 c 0
 667 387 608 312 516 289 c 1
 702 0 l 1
522 477 m 0
 522 543 480 576 396 576 c 2
 211 576 l 1
 211 373 l 1
 399 373 l 2
 480 373 522 412 522 477 c 0
351 747 m 1
 268 747 l 1
 268 762 l 1
 391 886 l 1
 517 886 l 1
 517 865 l 1
 351 747 l 1
EndSplineSet
EndChar

StartChar: racute
Encoding: 341 341 277
Width: 389
GlyphClass: 2
Flags: MW
HStem: 0 21G<70 207 70 70> 424 104<66 323.5> 424 115<310 323.5> 511 20G<374 374> 712 21<254 380>
VStem: 70 137<0 259>
LayerCount: 2
Fore
SplineSet
207 0 m 1x9c
 70 0 l 1
 70 404 l 2
 70 463 67 499 66 528 c 1
 197 528 l 1
 198 523 199 505 200 475 c 0xcc
 202 445 203 425 203 416 c 1
 205 416 l 1
 218 453 230 479 240 494 c 0
 261 525 288 539 332 539 c 0xac
 349 539 363 536 374 531 c 1x9c
 374 417 l 1
 352 422 332 424 315 424 c 0xac
 247 424 207 368 207 259 c 2
 207 0 l 1x9c
214 578 m 1
 131 578 l 1
 131 593 l 1
 254 733 l 1
 380 733 l 1
 380 712 l 1
 214 578 l 1
EndSplineSet
EndChar

StartChar: Rcommaaccent
Encoding: 342 342 278
Width: 722
GlyphClass: 2
Flags: MW
HStem: -139 101<303 355 303 422> 0 21G<67 211 67 67 540 702 540 540> 261 112<211 380 211 399> 576 112<211 396 211 211>
VStem: 67 144<0 261 0 373 373 576> 303 119<-123.5 -100 -100 -38 -123.5 -38> 522 145<444.5 510>
LayerCount: 2
Fore
SplineSet
702 0 m 1
 540 0 l 1
 380 261 l 1
 211 261 l 1
 211 0 l 1
 67 0 l 1
 67 688 l 1
 411 688 l 2
 575 688 667 615 667 483 c 0
 667 387 608 312 516 289 c 1
 702 0 l 1
522 477 m 0
 522 543 480 576 396 576 c 2
 211 576 l 1
 211 373 l 1
 399 373 l 2
 480 373 522 412 522 477 c 0
422 -38 m 1
 422 -100 l 2
 422 -147 409 -182 376 -222 c 1
 310 -222 l 1
 340 -189 355 -162 355 -139 c 1
 303 -139 l 1
 303 -38 l 1
 422 -38 l 1
EndSplineSet
EndChar

StartChar: rcommaaccent
Encoding: 343 343 279
Width: 389
GlyphClass: 2
Flags: MW
HStem: -139 101<78 131 78 198> 0 21G<70 207 70 70> 424 104<66 323.5> 424 115<310 323.5> 511 20G<374 374>
VStem: 70 137<0 259> 131 67<-150.5 -100>
LayerCount: 2
Fore
SplineSet
207 0 m 1xcc
 70 0 l 1
 70 404 l 2
 70 463 67 499 66 528 c 1
 197 528 l 1
 198 523 199 505 200 475 c 0xe4
 202 445 203 425 203 416 c 1
 205 416 l 1
 218 453 230 479 240 494 c 0
 261 525 288 539 332 539 c 0xd4
 349 539 363 536 374 531 c 1xcc
 374 417 l 1
 352 422 332 424 315 424 c 0xd4
 247 424 207 368 207 259 c 2
 207 0 l 1xcc
198 -38 m 1
 198 -100 l 2
 198 -147 185 -182 152 -222 c 1xcc
 85 -222 l 1
 116 -189 131 -162 131 -139 c 1xca
 78 -139 l 1
 78 -38 l 1
 198 -38 l 1
EndSplineSet
EndChar

StartChar: Rcaron
Encoding: 344 344 280
Width: 722
GlyphClass: 2
Flags: MW
HStem: 0 21G<67 211 67 67 540 702 540 540> 261 112<211 380 211 399> 576 112<211 396 211 211> 747 149<162 399 162 288>
VStem: 67 144<0 261 0 373 373 576> 522 145<444.5 510>
LayerCount: 2
Fore
SplineSet
702 0 m 1
 540 0 l 1
 380 261 l 1
 211 261 l 1
 211 0 l 1
 67 0 l 1
 67 688 l 1
 411 688 l 2
 575 688 667 615 667 483 c 0
 667 387 608 312 516 289 c 1
 702 0 l 1
522 477 m 0
 522 543 480 576 396 576 c 2
 211 576 l 1
 211 373 l 1
 399 373 l 2
 480 373 522 412 522 477 c 0
521 882 m 1
 399 747 l 1
 288 747 l 1
 162 882 l 1
 162 896 l 1
 240 896 l 1
 343 822 l 1
 345 822 l 1
 444 896 l 1
 521 896 l 1
 521 882 l 1
EndSplineSet
EndChar

StartChar: rcaron
Encoding: 345 345 281
Width: 389
GlyphClass: 2
Flags: MW
HStem: 0 21G<70 207 70 70> 424 104<66 323.5> 424 115<310 323.5> 511 20G<374 374> 578 169<27 265 27 153>
VStem: 70 137<0 259>
LayerCount: 2
Fore
SplineSet
207 0 m 1x9c
 70 0 l 1
 70 404 l 2
 70 463 67 499 66 528 c 1
 197 528 l 1
 198 523 199 505 200 475 c 0xcc
 202 445 203 425 203 416 c 1
 205 416 l 1
 218 453 230 479 240 494 c 0
 261 525 288 539 332 539 c 0xac
 349 539 363 536 374 531 c 1x9c
 374 417 l 1
 352 422 332 424 315 424 c 0xac
 247 424 207 368 207 259 c 2
 207 0 l 1x9c
387 732 m 1
 265 578 l 1
 153 578 l 1
 27 732 l 1
 27 747 l 1
 105 747 l 1
 208 652 l 1
 210 652 l 1
 310 747 l 1
 387 747 l 1
 387 732 l 1
EndSplineSet
EndChar

StartChar: Sacute
Encoding: 346 346 282
Width: 667
GlyphClass: 2
Flags: MW
HStem: -10 108<288.5 387.5 288.5 429.5> 596 102<288.5 373.5> 865 21<394 520>
VStem: 61 140<505 541.5 505 568> 488 140<159.5 199.5>
LayerCount: 2
Fore
SplineSet
628 198 m 0
 628 63 526 -10 333 -10 c 0
 157 -10 57 52 29 179 c 1
 168 202 l 1
 187 129 240 98 337 98 c 0
 438 98 488 129 488 190 c 0
 488 209 482 225 470 238 c 0
 459 251 442 261 421 270 c 0
 400 279 360 289 301 301 c 0
 250 313 214 323 193 330 c 0
 173 337 155 346 138 356 c 0
 91 386 61 433 61 506 c 0
 61 630 156 698 335 698 c 0
 506 698 585 649 610 526 c 1
 470 507 l 1
 455 566 415 596 332 596 c 0
 245 596 201 569 201 514 c 0
 201 496 206 481 215 470 c 0
 224 459 238 449 256 441 c 0
 275 433 312 423 367 411 c 0
 433 397 480 384 509 372 c 0
 538 360 560 346 577 330 c 0
 610 299 628 255 628 198 c 0
354 747 m 1
 271 747 l 1
 271 762 l 1
 394 886 l 1
 520 886 l 1
 520 865 l 1
 354 747 l 1
EndSplineSet
EndChar

StartChar: sacute
Encoding: 347 347 283
Width: 556
GlyphClass: 2
Flags: MW
HStem: -10 91<237 317 237 353> 447 92<247.5 313.5> 712 21<318 444>
VStem: 56 126<377.5 412.5 377.5 428.5> 389 126<120.5 154 103.5 158.5>
LayerCount: 2
Fore
SplineSet
515 154 m 1
 515 53 427 -10 279 -10 c 0
 134 -10 60 35 35 132 c 1
 156 150 l 1
 169 99 195 81 279 81 c 0
 355 81 389 99 389 142 c 0
 389 175 364 194 296 207 c 0
 219 222 166 237 139 250 c 0
 86 277 56 318 56 378 c 0
 56 479 137 539 280 539 c 0
 405 539 484 488 503 396 c 1
 381 383 l 1
 373 427 347 447 280 447 c 0
 215 447 182 432 182 393 c 0
 182 362 205 346 264 334 c 0
 433 299 510 276 515 154 c 1
278 578 m 1
 195 578 l 1
 195 593 l 1
 318 733 l 1
 444 733 l 1
 444 712 l 1
 278 578 l 1
EndSplineSet
EndChar

StartChar: Scircumflex
Encoding: 348 348 284
Width: 667
GlyphClass: 2
Flags: MW
HStem: -10 108<288.5 387.5 288.5 429.5> 596 102<288.5 373.5> 747 149<167 405 167 405 293 527 293 449>
VStem: 61 140<505 541.5 505 568> 488 140<159.5 199.5>
LayerCount: 2
Fore
SplineSet
628 198 m 0
 628 63 526 -10 333 -10 c 0
 157 -10 57 52 29 179 c 1
 168 202 l 1
 187 129 240 98 337 98 c 0
 438 98 488 129 488 190 c 0
 488 209 482 225 470 238 c 0
 459 251 442 261 421 270 c 0
 400 279 360 289 301 301 c 0
 250 313 214 323 193 330 c 0
 173 337 155 346 138 356 c 0
 91 386 61 433 61 506 c 0
 61 630 156 698 335 698 c 0
 506 698 585 649 610 526 c 1
 470 507 l 1
 455 566 415 596 332 596 c 0
 245 596 201 569 201 514 c 0
 201 496 206 481 215 470 c 0
 224 459 238 449 256 441 c 0
 275 433 312 423 367 411 c 0
 433 397 480 384 509 372 c 0
 538 360 560 346 577 330 c 0
 610 299 628 255 628 198 c 0
405 896 m 1
 527 761 l 1
 527 747 l 1
 449 747 l 1
 350 821 l 1
 348 821 l 1
 245 747 l 1
 167 747 l 1
 167 761 l 1
 293 896 l 1
 405 896 l 1
EndSplineSet
EndChar

StartChar: scircumflex
Encoding: 349 349 285
Width: 556
GlyphClass: 2
Flags: MW
HStem: -10 91<237 317 237 353> 447 92<247.5 313.5> 578 169<97 334 97 334 223 457 223 379>
VStem: 56 126<377.5 412.5 377.5 428.5> 389 126<120.5 154 103.5 158.5>
LayerCount: 2
Fore
SplineSet
515 154 m 1
 515 53 427 -10 279 -10 c 0
 134 -10 60 35 35 132 c 1
 156 150 l 1
 169 99 195 81 279 81 c 0
 355 81 389 99 389 142 c 0
 389 175 364 194 296 207 c 0
 219 222 166 237 139 250 c 0
 86 277 56 318 56 378 c 0
 56 479 137 539 280 539 c 0
 405 539 484 488 503 396 c 1
 381 383 l 1
 373 427 347 447 280 447 c 0
 215 447 182 432 182 393 c 0
 182 362 205 346 264 334 c 0
 433 299 510 276 515 154 c 1
334 747 m 1
 457 591 l 1
 457 578 l 1
 379 578 l 1
 280 671 l 1
 278 671 l 1
 175 578 l 1
 97 578 l 1
 97 591 l 1
 223 747 l 1
 334 747 l 1
EndSplineSet
EndChar

StartChar: Scedilla
Encoding: 350 350 286
Width: 667
GlyphClass: 2
Flags: MW
HStem: -208 58<294.5 316.5 286 350> -83 43<295 360> -10 10<306 376 306 429.5> -10 108<288.5 387.5 288.5 429.5> 596 102<288.5 373.5>
VStem: 61 140<505 541.5 505 568> 361 89<-128 -105.5> 488 140<159.5 199.5>
LayerCount: 2
Fore
SplineSet
628 198 m 0xaf
 628 63 526 -10 333 -10 c 0xaf
 157 -10 57 52 29 179 c 1
 168 202 l 1
 187 129 240 98 337 98 c 0
 438 98 488 129 488 190 c 0x9f
 488 209 482 225 470 238 c 0
 459 251 442 261 421 270 c 0
 400 279 360 289 301 301 c 0
 250 313 214 323 193 330 c 0
 173 337 155 346 138 356 c 0
 91 386 61 433 61 506 c 0
 61 630 156 698 335 698 c 0
 506 698 585 649 610 526 c 1
 470 507 l 1
 455 566 415 596 332 596 c 0
 245 596 201 569 201 514 c 0
 201 496 206 481 215 470 c 0
 224 459 238 449 256 441 c 0
 275 433 312 423 367 411 c 0
 433 397 480 384 509 372 c 0
 538 360 560 346 577 330 c 0
 610 299 628 255 628 198 c 0xaf
450 -115 m 0xef
 450 -176 398 -208 302 -208 c 0
 287 -208 271 -207 253 -205 c 1
 253 -147 l 1
 264 -149 278 -150 294 -150 c 0
 339 -150 361 -139 361 -117 c 0
 361 -94 344 -83 301 -83 c 0
 289 -83 281 -83 276 -84 c 1xef
 306 0 l 1
 376 0 l 1xaf
 360 -40 l 1
 421 -43 450 -72 450 -115 c 0xef
EndSplineSet
EndChar

StartChar: scedilla
Encoding: 351 351 287
Width: 556
GlyphClass: 2
Flags: MW
HStem: -208 58<228.5 250 220 284> -83 43<228.5 293> -10 10<240 310 240 353> -10 91<237 317 237 353> 447 92<247.5 313.5>
VStem: 56 126<377.5 412.5 377.5 428.5> 294 90<-128 -105.5> 389 126<120.5 154 103.5 158.5>
LayerCount: 2
Fore
SplineSet
515 154 m 1xad
 515 53 427 -10 279 -10 c 0xad
 134 -10 60 35 35 132 c 1
 156 150 l 1
 169 99 195 81 279 81 c 0
 355 81 389 99 389 142 c 0x9d
 389 175 364 194 296 207 c 0
 219 222 166 237 139 250 c 0
 86 277 56 318 56 378 c 0
 56 479 137 539 280 539 c 0
 405 539 484 488 503 396 c 1
 381 383 l 1
 373 427 347 447 280 447 c 0
 215 447 182 432 182 393 c 0
 182 362 205 346 264 334 c 0
 433 299 510 276 515 154 c 1xad
384 -115 m 0xee
 384 -176 332 -208 236 -208 c 0
 221 -208 205 -207 187 -205 c 1
 187 -147 l 1
 198 -149 212 -150 228 -150 c 0
 272 -150 294 -139 294 -117 c 0
 294 -94 278 -83 235 -83 c 0
 222 -83 214 -83 209 -84 c 1xee
 240 0 l 1
 310 0 l 1xae
 293 -40 l 1
 354 -43 384 -72 384 -115 c 0xee
EndSplineSet
EndChar

StartChar: Scaron
Encoding: 352 352 288
Width: 667
GlyphClass: 2
Flags: MW
HStem: -10 108<288.5 387.5 288.5 429.5> 596 102<288.5 373.5> 747 149<156 394 156 282>
VStem: 61 140<505 541.5 505 568> 488 140<159.5 199.5>
LayerCount: 2
Fore
SplineSet
628 198 m 0
 628 63 526 -10 333 -10 c 0
 157 -10 57 52 29 179 c 1
 168 202 l 1
 187 129 240 98 337 98 c 0
 438 98 488 129 488 190 c 0
 488 209 482 225 470 238 c 0
 459 251 442 261 421 270 c 0
 400 279 360 289 301 301 c 0
 250 313 214 323 193 330 c 0
 173 337 155 346 138 356 c 0
 91 386 61 433 61 506 c 0
 61 630 156 698 335 698 c 0
 506 698 585 649 610 526 c 1
 470 507 l 1
 455 566 415 596 332 596 c 0
 245 596 201 569 201 514 c 0
 201 496 206 481 215 470 c 0
 224 459 238 449 256 441 c 0
 275 433 312 423 367 411 c 0
 433 397 480 384 509 372 c 0
 538 360 560 346 577 330 c 0
 610 299 628 255 628 198 c 0
516 882 m 1
 394 747 l 1
 282 747 l 1
 156 882 l 1
 156 896 l 1
 234 896 l 1
 337 822 l 1
 339 822 l 1
 438 896 l 1
 516 896 l 1
 516 882 l 1
EndSplineSet
EndChar

StartChar: scaron
Encoding: 353 353 289
Width: 556
GlyphClass: 2
Flags: MW
HStem: -10 91<237 317 237 353> 447 92<247.5 313.5> 578 169<100 338 100 226>
VStem: 56 126<377.5 412.5 377.5 428.5> 389 126<120.5 154 103.5 158.5>
LayerCount: 2
Fore
SplineSet
515 154 m 1
 515 53 427 -10 279 -10 c 0
 134 -10 60 35 35 132 c 1
 156 150 l 1
 169 99 195 81 279 81 c 0
 355 81 389 99 389 142 c 0
 389 175 364 194 296 207 c 0
 219 222 166 237 139 250 c 0
 86 277 56 318 56 378 c 0
 56 479 137 539 280 539 c 0
 405 539 484 488 503 396 c 1
 381 383 l 1
 373 427 347 447 280 447 c 0
 215 447 182 432 182 393 c 0
 182 362 205 346 264 334 c 0
 433 299 510 276 515 154 c 1
460 732 m 1
 338 578 l 1
 226 578 l 1
 100 732 l 1
 100 747 l 1
 178 747 l 1
 281 652 l 1
 283 652 l 1
 382 747 l 1
 460 747 l 1
 460 732 l 1
EndSplineSet
EndChar

StartChar: uni0162
Encoding: 354 354 290
Width: 611
GlyphClass: 2
Flags: MW
HStem: -208 58<259.5 281.5 251 315> -83 83<260 287.5> 0 21G<233 377 233 233 271 341 341 341> 577 111<11 233 11 600 377 600 377 377>
VStem: 233 144<0 577 0 577> 326 89<-128 -105.5>
LayerCount: 2
Fore
SplineSet
600 577 m 1xb8
 377 577 l 1
 377 0 l 1
 233 0 l 1
 233 577 l 1
 11 577 l 1
 11 688 l 1
 600 688 l 1
 600 577 l 1xb8
415 -115 m 0xd4
 415 -176 363 -208 267 -208 c 0
 252 -208 236 -207 218 -205 c 1
 218 -147 l 1
 229 -149 243 -150 259 -150 c 0
 304 -150 326 -139 326 -117 c 0
 326 -94 309 -83 266 -83 c 0
 254 -83 246 -83 241 -84 c 1
 271 0 l 1xd4
 341 0 l 1xb4
 325 -40 l 1
 386 -43 415 -72 415 -115 c 0xd4
EndSplineSet
EndChar

StartChar: uni0163
Encoding: 355 355 291
Width: 333
GlyphClass: 2
Flags: MW
HStem: -208 58<156.5 177.5 147 211.5> -83 43<156.5 221> -9 9<167 226.5> 436 92<12 79 12 86 215 315>
VStem: 79 136<135.5 161 161 436> 222 90<-128 -105.5>
LayerCount: 2
Fore
SplineSet
205 -9 m 0
 125 -9 79 35 79 124 c 2
 79 436 l 1
 12 436 l 1
 12 528 l 1
 86 528 l 1
 129 652 l 1
 215 652 l 1
 215 528 l 1
 315 528 l 1
 315 436 l 1
 215 436 l 1
 215 161 l 2
 215 110 234 86 275 86 c 0
 286 86 301 88 321 93 c 1
 321 8 l 1
 287 -3 248 -9 205 -9 c 0
312 -115 m 0
 312 -176 259 -208 164 -208 c 0
 149 -208 133 -207 114 -205 c 1
 114 -147 l 1
 125 -149 139 -150 155 -150 c 0
 200 -150 222 -139 222 -117 c 0
 222 -94 206 -83 163 -83 c 0
 150 -83 142 -83 137 -84 c 1
 167 0 l 1
 237 0 l 1
 221 -40 l 1
 282 -43 312 -72 312 -115 c 0
EndSplineSet
EndChar

StartChar: Tcaron
Encoding: 356 356 292
Width: 611
GlyphClass: 2
Flags: MW
HStem: 0 21G<233 377 233 233> 577 111<11 233 11 600 377 600 377 377> 747 149<128 366 128 254>
VStem: 233 144<0 577 0 577>
LayerCount: 2
Fore
SplineSet
600 577 m 1
 377 577 l 1
 377 0 l 1
 233 0 l 1
 233 577 l 1
 11 577 l 1
 11 688 l 1
 600 688 l 1
 600 577 l 1
488 882 m 1
 366 747 l 1
 254 747 l 1
 128 882 l 1
 128 896 l 1
 206 896 l 1
 309 822 l 1
 311 822 l 1
 410 896 l 1
 488 896 l 1
 488 882 l 1
EndSplineSet
EndChar

StartChar: tcaron
Encoding: 357 357 293
Width: 479
GlyphClass: 2
Flags: MW
HStem: -9 95<165 280.5> 436 92<12 79 12 86 215 315> 624 101<359 412 359 479>
VStem: 79 136<135.5 161 161 436> 359 120<629.5 653 653 725 629.5 725>
LayerCount: 2
Fore
SplineSet
205 -9 m 0
 125 -9 79 35 79 124 c 2
 79 436 l 1
 12 436 l 1
 12 528 l 1
 86 528 l 1
 129 652 l 1
 215 652 l 1
 215 528 l 1
 315 528 l 1
 315 436 l 1
 215 436 l 1
 215 161 l 2
 215 110 234 86 275 86 c 0
 286 86 301 88 321 93 c 1
 321 8 l 1
 287 -3 248 -9 205 -9 c 0
479 725 m 1
 479 653 l 2
 479 606 466 570 433 531 c 1
 366 531 l 1
 397 564 412 595 412 624 c 1
 359 624 l 1
 359 725 l 1
 479 725 l 1
EndSplineSet
EndChar

StartChar: Tbar
Encoding: 358 358 294
Width: 611
GlyphClass: 2
Flags: MW
HStem: 0 21G<233 377 233 233> 306 92<123 233 123 233 377 489> 577 111<11 233 11 600 377 600 377 377>
VStem: 233 144<0 306 0 306 398 577>
LayerCount: 2
Fore
SplineSet
600 577 m 1
 377 577 l 1
 377 398 l 1
 489 398 l 1
 489 306 l 1
 377 306 l 1
 377 0 l 1
 233 0 l 1
 233 306 l 1
 123 306 l 1
 123 398 l 1
 233 398 l 1
 233 577 l 1
 11 577 l 1
 11 688 l 1
 600 688 l 1
 600 577 l 1
EndSplineSet
EndChar

StartChar: tbar
Encoding: 359 359 295
Width: 333
GlyphClass: 2
Flags: MW
HStem: -9 95<165 280.5> 231 93<17 79 17 79 215 305> 436 92<12 79 12 86 215 315>
VStem: 79 136<135.5 161 161 231 135.5 231 324 436>
LayerCount: 2
Fore
SplineSet
205 -9 m 0
 125 -9 79 35 79 124 c 2
 79 231 l 1
 17 231 l 1
 17 324 l 1
 79 324 l 1
 79 436 l 1
 12 436 l 1
 12 528 l 1
 86 528 l 1
 129 652 l 1
 215 652 l 1
 215 528 l 1
 315 528 l 1
 315 436 l 1
 215 436 l 1
 215 324 l 1
 305 324 l 1
 305 231 l 1
 215 231 l 1
 215 161 l 2
 215 110 234 86 275 86 c 0
 286 86 301 88 321 93 c 1
 321 8 l 1
 287 -3 248 -9 205 -9 c 0
EndSplineSet
EndChar

StartChar: Utilde
Encoding: 360 360 296
Width: 722
GlyphClass: 2
Flags: MW
HStem: -10 113<307 408.5 307 451> 668 20G<60 204 204 204 517 661 661 661> 747 83<418 449.5 418 475.5> 807 83<280 304>
VStem: 60 144<258 269 269 688> 517 144<274 688>
LayerCount: 2
Fore
SplineSet
353 -10 m 0xec
 164 -10 60 86 60 258 c 2
 60 688 l 1
 204 688 l 1
 204 269 l 2
 204 161 257 103 357 103 c 0
 460 103 517 163 517 274 c 2
 517 688 l 1
 661 688 l 1
 661 265 l 2
 661 90 549 -10 353 -10 c 0xec
442 747 m 0
 385 747 323 807 285 807 c 0xdc
 258 807 246 798 237 747 c 1
 170 747 l 1xec
 179 852 206 884 280 890 c 1xdc
 339 890 399 830 437 830 c 0
 462 830 476 842 485 890 c 1
 551 890 l 1
 546 787 509 747 442 747 c 0
EndSplineSet
EndChar

StartChar: utilde
Encoding: 361 361 297
Width: 611
GlyphClass: 2
Flags: MW
HStem: -10 103<261.5 274.5> 0 93<261.5 545 261.5 414> 508 20G<62 199 199 199 404 541 541 541> 578 83<360 391.5 360 417.5> 638 83<222 246>
VStem: 62 137<193 232 232 528> 404 137<245 528>
LayerCount: 2
Fore
SplineSet
62 528 m 1xb6
 199 528 l 1
 199 232 l 2
 199 139 230 93 293 93 c 0xb6
 360 93 404 156 404 245 c 2
 404 528 l 1
 541 528 l 1
 541 118 l 2
 541 73 542 34 545 0 c 1
 414 0 l 1x76
 410 47 408 82 408 105 c 1
 406 105 l 1
 369 25 313 -10 236 -10 c 0
 124 -10 62 60 62 193 c 2
 62 528 l 1xb6
384 578 m 0
 327 578 265 638 227 638 c 0xae
 200 638 188 627 179 578 c 1
 112 578 l 1xb6
 121 683 148 715 222 721 c 1xae
 281 721 342 661 378 661 c 0
 405 661 418 673 427 721 c 1
 493 721 l 1
 488 618 451 578 384 578 c 0
EndSplineSet
EndChar

StartChar: Umacron
Encoding: 362 362 298
Width: 722
GlyphClass: 2
Flags: MW
HStem: -10 113<307 408.5 307 451> 668 20G<60 204 204 204 517 661 661 661> 748 82<211 510 211 510>
VStem: 60 144<258 269 269 688> 211 299<748 830 748 830> 517 144<274 688>
CounterMasks: 1 1c
LayerCount: 2
Fore
SplineSet
353 -10 m 0
 164 -10 60 86 60 258 c 2
 60 688 l 1
 204 688 l 1
 204 269 l 2
 204 161 257 103 357 103 c 0
 460 103 517 163 517 274 c 2
 517 688 l 1
 661 688 l 1
 661 265 l 2
 661 90 549 -10 353 -10 c 0
211 748 m 1
 211 830 l 1
 510 830 l 1
 510 748 l 1
 211 748 l 1
EndSplineSet
EndChar

StartChar: umacron
Encoding: 363 363 299
Width: 611
GlyphClass: 2
Flags: MW
HStem: -10 103<261.5 274.5> 0 93<261.5 545 261.5 414> 508 20G<62 199 199 199 404 541 541 541> 587 82<152 451 152 451>
VStem: 62 137<193 232 232 528> 404 137<245 528>
LayerCount: 2
Fore
SplineSet
62 528 m 1xbc
 199 528 l 1
 199 232 l 2
 199 139 230 93 293 93 c 0xbc
 360 93 404 156 404 245 c 2
 404 528 l 1
 541 528 l 1
 541 118 l 2
 541 73 542 34 545 0 c 1
 414 0 l 1x7c
 410 47 408 82 408 105 c 1
 406 105 l 1
 369 25 313 -10 236 -10 c 0
 124 -10 62 60 62 193 c 2
 62 528 l 1xbc
152 587 m 1
 152 669 l 1
 451 669 l 1
 451 587 l 1
 152 587 l 1
EndSplineSet
EndChar

StartChar: Ubreve
Encoding: 364 364 300
Width: 722
GlyphClass: 2
Flags: MW
HStem: -10 113<307 408.5 307 451> 668 20G<60 204 204 204 517 661 661 661> 742 74<338.5 384.5 338.5 407.5>
VStem: 60 144<258 269 269 688> 517 144<274 688>
LayerCount: 2
Fore
SplineSet
353 -10 m 0
 164 -10 60 86 60 258 c 2
 60 688 l 1
 204 688 l 1
 204 269 l 2
 204 161 257 103 357 103 c 0
 460 103 517 163 517 274 c 2
 517 688 l 1
 661 688 l 1
 661 265 l 2
 661 90 549 -10 353 -10 c 0
360 742 m 0
 313 742 273 755 241 781 c 0
 209 808 191 842 188 883 c 1
 268 883 l 1
 277 843 316 816 361 816 c 0
 408 816 445 842 454 883 c 1
 534 883 l 1
 521 796 455 742 360 742 c 0
EndSplineSet
EndChar

StartChar: ubreve
Encoding: 365 365 301
Width: 611
GlyphClass: 2
Flags: MW
HStem: -10 103<261.5 274.5> 0 93<261.5 545 261.5 414> 508 20G<62 199 199 199 404 541 541 541> 578 76<281.5 327.5 281.5 353.5>
VStem: 62 137<193 232 232 528> 404 137<245 528>
LayerCount: 2
Fore
SplineSet
62 528 m 1xbc
 199 528 l 1
 199 232 l 2
 199 139 230 93 293 93 c 0xbc
 360 93 404 156 404 245 c 2
 404 528 l 1
 541 528 l 1
 541 118 l 2
 541 73 542 34 545 0 c 1
 414 0 l 1x7c
 410 47 408 82 408 105 c 1
 406 105 l 1
 369 25 313 -10 236 -10 c 0
 124 -10 62 60 62 193 c 2
 62 528 l 1xbc
304 578 m 0
 255 578 214 593 183 622 c 0
 152 652 135 690 132 735 c 1
 211 735 l 1
 222 686 258 654 305 654 c 0
 350 654 389 684 397 735 c 1
 478 735 l 1
 466 639 403 578 304 578 c 0
EndSplineSet
EndChar

StartChar: Uring
Encoding: 366 366 302
Width: 722
GlyphClass: 2
Flags: MW
HStem: -10 113<307 408.5 307 451> 668 20G<60 204 204 204 517 661 661 661> 718 61<344.5 378.5 344.5 378.5> 903 63<344.5 378.5 344 379>
VStem: 60 144<258 269 269 688> 237 63<825 859> 423 62<825 858.5> 517 144<274 688>
LayerCount: 2
Fore
SplineSet
353 -10 m 0
 164 -10 60 86 60 258 c 2
 60 688 l 1
 204 688 l 1
 204 269 l 2
 204 161 257 103 357 103 c 0
 460 103 517 163 517 274 c 2
 517 688 l 1
 661 688 l 1
 661 265 l 2
 661 90 549 -10 353 -10 c 0
485 842 m 0
 485 808 473 779 449 754 c 0
 426 730 396 718 361 718 c 0
 326 718 297 730 273 754 c 0
 249 779 237 808 237 842 c 0
 237 876 249 905 273 929 c 0
 298 954 327 966 361 966 c 0
 396 966 425 954 449 929 c 0
 473 905 485 876 485 842 c 0
423 842 m 0
 423 875 397 903 361 903 c 0
 328 903 300 877 300 842 c 0
 300 805 328 779 361 779 c 0
 396 779 423 806 423 842 c 0
EndSplineSet
EndChar

StartChar: uring
Encoding: 367 367 303
Width: 611
GlyphClass: 2
Flags: MW
HStem: -10 103<261.5 274.5> 0 93<261.5 545 261.5 414> 508 20G<62 199 199 199 404 541 541 541> 555 61<286.5 320.5 286.5 320.5> 740 63<286.5 320 286 321>
VStem: 62 137<193 232 232 528> 179 63<661.5 696> 365 62<661.5 695.5> 404 137<245 528>
LayerCount: 2
Fore
SplineSet
62 528 m 1xac80
 199 528 l 1
 199 232 l 2
 199 139 230 93 293 93 c 0xac80
 360 93 404 156 404 245 c 2
 404 528 l 1
 541 528 l 1
 541 118 l 2
 541 73 542 34 545 0 c 1
 414 0 l 1x6c80
 410 47 408 82 408 105 c 1
 406 105 l 1
 369 25 313 -10 236 -10 c 0
 124 -10 62 60 62 193 c 2
 62 528 l 1xac80
427 679 m 0xbb
 427 644 415 615 391 591 c 0
 367 567 338 555 303 555 c 0
 268 555 239 567 215 591 c 0
 191 615 179 644 179 679 c 0
 179 713 191 742 215 766 c 0
 240 791 269 803 303 803 c 0
 337 803 366 791 390 766 c 0
 415 742 427 713 427 679 c 0xbb
365 679 m 0
 365 712 339 740 303 740 c 0
 270 740 242 714 242 679 c 0
 242 642 270 616 303 616 c 0
 338 616 365 643 365 679 c 0
EndSplineSet
EndChar

StartChar: Uhungarumlaut
Encoding: 368 368 304
Width: 722
GlyphClass: 2
Flags: MW
HStem: -10 113<307 408.5 307 451> 668 20G<60 204 204 204 517 661 661 661> 866 21<297 412>
VStem: 60 144<258 269 269 688> 517 144<274 688>
LayerCount: 2
Fore
SplineSet
353 -10 m 0
 164 -10 60 86 60 258 c 2
 60 688 l 1
 204 688 l 1
 204 269 l 2
 204 161 257 103 357 103 c 0
 460 103 517 163 517 274 c 2
 517 688 l 1
 661 688 l 1
 661 265 l 2
 661 90 549 -10 353 -10 c 0
412 866 m 1
 256 747 l 1
 192 747 l 1
 192 764 l 1
 297 887 l 1
 412 887 l 1
 412 866 l 1
610 866 m 1
 455 747 l 1
 390 747 l 1
 390 764 l 1
 495 887 l 1
 610 887 l 1
 610 866 l 1
EndSplineSet
EndChar

StartChar: uhungarumlaut
Encoding: 369 369 305
Width: 611
GlyphClass: 2
Flags: MW
HStem: -10 103<261.5 274.5> 0 93<261.5 545 261.5 414> 508 20G<62 199 199 199 404 541 541 541> 704 21<235 350>
VStem: 62 137<193 232 232 528> 404 137<245 528>
LayerCount: 2
Fore
SplineSet
62 528 m 1xbc
 199 528 l 1
 199 232 l 2
 199 139 230 93 293 93 c 0xbc
 360 93 404 156 404 245 c 2
 404 528 l 1
 541 528 l 1
 541 118 l 2
 541 73 542 34 545 0 c 1
 414 0 l 1x7c
 410 47 408 82 408 105 c 1
 406 105 l 1
 369 25 313 -10 236 -10 c 0
 124 -10 62 60 62 193 c 2
 62 528 l 1xbc
350 704 m 1
 195 578 l 1
 125 578 l 1
 125 595 l 1
 235 725 l 1
 350 725 l 1
 350 704 l 1
548 704 m 1
 393 578 l 1
 324 578 l 1
 324 595 l 1
 434 725 l 1
 548 725 l 1
 548 704 l 1
EndSplineSet
EndChar

StartChar: Uogonek
Encoding: 370 370 306
Width: 722
GlyphClass: 2
Flags: MW
HStem: -208 70<423.5 432.5> -10 20<380 451> -10 113<307 408.5 307 451> 668 20G<60 204 204 204 517 661 661 661>
VStem: 60 144<258 269 269 688> 303 89<-106 -85.5> 517 144<274 688>
LayerCount: 2
Fore
SplineSet
353 -10 m 0xda
 164 -10 60 86 60 258 c 2
 60 688 l 1
 204 688 l 1
 204 269 l 2
 204 161 257 103 357 103 c 0xba
 460 103 517 163 517 274 c 2
 517 688 l 1
 661 688 l 1
 661 265 l 2
 661 90 549 -10 353 -10 c 0xda
418 -208 m 0xde
 346 -208 303 -170 303 -110 c 0
 303 -61 333 -14 380 10 c 1
 455 10 l 1
 414 -17 392 -57 392 -92 c 0
 392 -120 409 -138 438 -138 c 0
 455 -138 473 -134 492 -125 c 1
 492 -191 l 1
 471 -202 447 -208 418 -208 c 0xde
EndSplineSet
EndChar

StartChar: uogonek
Encoding: 371 371 307
Width: 611
GlyphClass: 2
Flags: MW
HStem: -208 70<472.5 482.5> -10 103<261.5 274.5> 0 10<429 504 429 545> 508 20G<62 199 199 199 404 541 541 541>
VStem: 62 137<193 232 232 528> 352 89<-106 -85.5> 404 137<245 528>
LayerCount: 2
Fore
SplineSet
62 528 m 1xba
 199 528 l 1
 199 232 l 2
 199 139 230 93 293 93 c 0xda
 360 93 404 156 404 245 c 2
 404 528 l 1
 541 528 l 1
 541 118 l 2
 541 73 542 34 545 0 c 1
 414 0 l 1xba
 410 47 408 82 408 105 c 1
 406 105 l 1
 369 25 313 -10 236 -10 c 0xda
 124 -10 62 60 62 193 c 2
 62 528 l 1xba
468 -208 m 0xbc
 396 -208 352 -170 352 -110 c 0
 352 -61 384 -14 429 10 c 1
 504 10 l 1
 463 -17 441 -57 441 -92 c 0
 441 -120 458 -138 487 -138 c 0
 504 -138 523 -134 542 -125 c 1
 542 -191 l 1
 521 -202 497 -208 468 -208 c 0xbc
EndSplineSet
EndChar

StartChar: Wcircumflex
Encoding: 372 372 308
Width: 944
GlyphClass: 2
Flags: MW
HStem: 0 21G<178 349 178 178 594 765 594 594> 0 136<269 269 269 349 178 269> 545 143 668 20G<1 147 147 147 393 554 554 554 797 943 943 943> 747 149<293 531 293 531 419 653 419 575>
VStem: 1 942<688 688>
LayerCount: 2
Fore
SplineSet
943 688 m 1x9c
 765 0 l 1
 594 0 l 1
 501 398 l 2
 490 445 480 494 472 545 c 1
 464 502 458 470 453 447 c 0xac
 448 425 414 276 349 0 c 1
 178 0 l 1
 1 688 l 1
 147 688 l 1
 247 244 l 1
 269 136 l 1
 296 266 l 2
 305 307 337 448 393 688 c 1
 554 688 l 1
 641 322 l 2
 648 295 659 233 676 136 c 1
 688 193 l 1x5c
 714 305 l 1
 797 688 l 1
 943 688 l 1x9c
531 896 m 1
 653 761 l 1
 653 747 l 1
 575 747 l 1
 476 821 l 1
 474 821 l 1
 371 747 l 1
 293 747 l 1
 293 761 l 1
 419 896 l 1
 531 896 l 1
EndSplineSet
EndChar

StartChar: wcircumflex
Encoding: 373 373 309
Width: 778
GlyphClass: 2
Flags: MW
HStem: 0 21G<134 279 134 134 496 641 496 496> 0 125<213 213 213 279 134 213> 431 97<389 389> 508 20G<-3 126 126 126 315 462 462 462 653 780 780 780> 578 169<209 447 209 447 335 569 335 492>
VStem: -3 783<528 528>
LayerCount: 2
Fore
SplineSet
780 528 m 1x9c
 641 0 l 1
 496 0 l 1
 412 322 l 2
 408 337 400 373 389 431 c 1xac
 364 321 l 1
 279 0 l 1
 134 0 l 1
 -3 528 l 1
 126 528 l 1
 213 125 l 1
 220 161 l 1
 232 218 l 1
 315 528 l 1
 462 528 l 1
 543 218 l 2
 548 201 554 170 563 125 c 1
 577 189 l 1x5c
 653 528 l 1
 780 528 l 1x9c
447 747 m 1
 569 591 l 1
 569 578 l 1
 492 578 l 1
 393 671 l 1
 391 671 l 1
 288 578 l 1
 209 578 l 1
 209 591 l 1
 335 747 l 1
 447 747 l 1
EndSplineSet
EndChar

StartChar: Ycircumflex
Encoding: 374 374 310
Width: 667
GlyphClass: 2
Flags: MW
HStem: 0 21G<262 406 262 262> 668 20G<17 168 168 168 500 651 651 651> 747 149<154 392 154 392 280 514 280 437>
VStem: 262 144<0 282 0 282>
LayerCount: 2
Fore
SplineSet
651 688 m 1
 406 282 l 1
 406 0 l 1
 262 0 l 1
 262 282 l 1
 17 688 l 1
 168 688 l 1
 333 397 l 1
 500 688 l 1
 651 688 l 1
392 896 m 1
 514 761 l 1
 514 747 l 1
 437 747 l 1
 337 821 l 1
 335 821 l 1
 232 747 l 1
 154 747 l 1
 154 761 l 1
 280 896 l 1
 392 896 l 1
EndSplineSet
EndChar

StartChar: ycircumflex
Encoding: 375 375 311
Width: 556
GlyphClass: 2
Flags: MW
HStem: -208 101<92 161.5> 508 20G<8 153 153 153 407 551 551 551> 578 169<104 341 104 341 229 463 229 386>
VStem: 8 543<528 528>
LayerCount: 2
Fore
SplineSet
138 -208 m 0
 105 -208 77 -206 52 -201 c 1
 52 -104 l 1
 69 -106 85 -107 99 -107 c 0
 159 -102 178 -95 217 5 c 1
 8 528 l 1
 153 528 l 1
 236 281 l 2
 249 246 265 191 285 118 c 1
 297 164 l 1
 329 279 l 1
 407 528 l 1
 551 528 l 1
 342 -28 l 2
 314 -95 285 -142 254 -168 c 0
 224 -195 185 -208 138 -208 c 0
341 747 m 1
 463 591 l 1
 463 578 l 1
 386 578 l 1
 287 671 l 1
 285 671 l 1
 182 578 l 1
 104 578 l 1
 104 591 l 1
 229 747 l 1
 341 747 l 1
EndSplineSet
EndChar

StartChar: Ydieresis
Encoding: 376 376 312
Width: 667
GlyphClass: 2
Flags: MW
HStem: 0 21G<262 406 262 262> 668 20G<17 168 168 168 500 651 651 651> 747 107<172 267 172 267 394 490>
VStem: 172 95<747 854> 262 144<0 282 0 282> 394 96<747 854>
LayerCount: 2
Fore
SplineSet
651 688 m 1xe8
 406 282 l 1
 406 0 l 1
 262 0 l 1
 262 282 l 1
 17 688 l 1
 168 688 l 1
 333 397 l 1
 500 688 l 1
 651 688 l 1xe8
490 747 m 1xf4
 394 747 l 1
 394 854 l 1
 490 854 l 1
 490 747 l 1xf4
267 747 m 1
 172 747 l 1
 172 854 l 1
 267 854 l 1
 267 747 l 1
EndSplineSet
EndChar

StartChar: Zacute
Encoding: 377 377 313
Width: 611
GlyphClass: 2
Flags: MW
HStem: 0 113<190 582 190 582> 575 113<67 402 67 562> 865 21<354 480>
VStem: 30 552<0 102 102 102>
LayerCount: 2
Fore
SplineSet
582 113 m 1
 582 0 l 1
 30 0 l 1
 30 102 l 1
 402 575 l 1
 67 575 l 1
 67 688 l 1
 562 688 l 1
 562 588 l 1
 190 113 l 1
 582 113 l 1
314 747 m 1
 231 747 l 1
 231 762 l 1
 354 886 l 1
 480 886 l 1
 480 865 l 1
 314 747 l 1
EndSplineSet
EndChar

StartChar: zacute
Encoding: 378 378 314
Width: 500
GlyphClass: 2
Flags: MW
HStem: 0 100<193 464 193 464> 429 99<60 289 60 440> 712 21<287 413>
VStem: 40 424<0 97 97 97>
LayerCount: 2
Fore
SplineSet
464 0 m 1
 40 0 l 1
 40 97 l 1
 289 429 l 1
 60 429 l 1
 60 528 l 1
 440 528 l 1
 440 430 l 1
 193 100 l 1
 464 100 l 1
 464 0 l 1
247 578 m 1
 164 578 l 1
 164 593 l 1
 287 733 l 1
 413 733 l 1
 413 712 l 1
 247 578 l 1
EndSplineSet
EndChar

StartChar: Zdotaccent
Encoding: 379 379 315
Width: 611
GlyphClass: 2
Flags: MW
HStem: 0 113<190 582 190 582> 575 113<67 402 67 562> 755 101<242 379 242 379>
VStem: 242 137<755 856 755 856>
LayerCount: 2
Fore
SplineSet
582 113 m 1
 582 0 l 1
 30 0 l 1
 30 102 l 1
 402 575 l 1
 67 575 l 1
 67 688 l 1
 562 688 l 1
 562 588 l 1
 190 113 l 1
 582 113 l 1
379 755 m 1
 242 755 l 1
 242 856 l 1
 379 856 l 1
 379 755 l 1
EndSplineSet
EndChar

StartChar: zdotaccent
Encoding: 380 380 316
Width: 500
GlyphClass: 2
Flags: MW
HStem: 0 100<193 464 193 464> 429 99<60 289 60 440> 624 101<190 327 190 327>
VStem: 190 137<624 725 624 725>
LayerCount: 2
Fore
SplineSet
464 0 m 1
 40 0 l 1
 40 97 l 1
 289 429 l 1
 60 429 l 1
 60 528 l 1
 440 528 l 1
 440 430 l 1
 193 100 l 1
 464 100 l 1
 464 0 l 1
327 624 m 1
 190 624 l 1
 190 725 l 1
 327 725 l 1
 327 624 l 1
EndSplineSet
EndChar

StartChar: Zcaron
Encoding: 381 381 317
Width: 611
GlyphClass: 2
Flags: MW
HStem: 0 113<190 582 190 582> 575 113<67 402 67 562> 747 149<134 372 134 260>
VStem: 30 552<0 102 102 102>
LayerCount: 2
Fore
SplineSet
582 113 m 1
 582 0 l 1
 30 0 l 1
 30 102 l 1
 402 575 l 1
 67 575 l 1
 67 688 l 1
 562 688 l 1
 562 588 l 1
 190 113 l 1
 582 113 l 1
494 882 m 1
 372 747 l 1
 260 747 l 1
 134 882 l 1
 134 896 l 1
 212 896 l 1
 315 822 l 1
 317 822 l 1
 416 896 l 1
 494 896 l 1
 494 882 l 1
EndSplineSet
EndChar

StartChar: zcaron
Encoding: 382 382 318
Width: 500
GlyphClass: 2
Flags: MW
HStem: 0 100<193 464 193 464> 429 99<60 289 60 440> 578 169<70 308 70 196>
VStem: 40 424<0 97 97 97>
LayerCount: 2
Fore
SplineSet
464 0 m 1
 40 0 l 1
 40 97 l 1
 289 429 l 1
 60 429 l 1
 60 528 l 1
 440 528 l 1
 440 430 l 1
 193 100 l 1
 464 100 l 1
 464 0 l 1
430 732 m 1
 308 578 l 1
 196 578 l 1
 70 732 l 1
 70 747 l 1
 148 747 l 1
 251 652 l 1
 253 652 l 1
 352 747 l 1
 430 747 l 1
 430 732 l 1
EndSplineSet
EndChar

StartChar: longs
Encoding: 383 383 319
Width: 278
GlyphClass: 2
Flags: MW
HStem: 0 21G<69 69 69 206> 633 92<171.5 276.5>
VStem: 69 137<0 570 0 583 0 631>
LayerCount: 2
Fore
SplineSet
69 0 m 1
 69 583 l 2
 69 679 120 725 223 725 c 0
 249 725 278 722 310 717 c 1
 310 628 l 1
 297 631 283 633 270 633 c 0
 223 633 206 617 206 570 c 2
 206 0 l 1
 69 0 l 1
EndSplineSet
EndChar

StartChar: uni0180
Encoding: 384 384 320
Width: 611
GlyphClass: 2
Flags: MW
HStem: -10 94<329.5 356 278.5 433> 0 84<66 356> 423 96<335 356.5> 574 83<5 70 5 70 207 358>
VStem: 70 137<503 574 657 725> 427 143<197.5 314>
LayerCount: 2
Fore
SplineSet
5 574 m 1xbc
 5 657 l 1
 70 657 l 1
 70 725 l 1
 207 725 l 1
 207 657 l 1
 358 657 l 1
 358 574 l 1
 207 574 l 1
 207 503 l 1
 205 417 l 1
 207 417 l 1
 238 485 294 519 376 519 c 0
 503 519 570 427 570 256 c 0
 570 84 499 -10 367 -10 c 0
 292 -10 235 25 207 85 c 1
 206 85 l 1
 206 74 205 58 204 38 c 0xbc
 203 18 201 5 199 0 c 1
 66 0 l 1x7c
 69 30 70 70 70 121 c 2
 70 574 l 1
 5 574 l 1xbc
427 256 m 0
 427 372 394 423 319 423 c 0
 240 423 205 364 205 252 c 0
 205 143 239 84 318 84 c 0
 394 84 427 139 427 256 c 0
EndSplineSet
EndChar

StartChar: uni0181
Encoding: 385 385 321
Width: 836
GlyphClass: 2
Flags: MW
HStem: 0 107<327 515 515 527> 304 107<327 492 492 509 327 492> 581 107<327 491 327 327>
VStem: 0 104<538.5 547.5 521.5 595.5> 183 144<107 304 107 411 411 581> 608 145<476.5 526.5> 648 144<174 240>
LayerCount: 2
Fore
SplineSet
163 688 m 2xfa
 498 688 l 2
 666 688 753 628 753 515 c 0xfc
 753 438 710 381 622 362 c 1
 733 349 792 291 792 196 c 0
 792 72 694 0 527 0 c 2
 183 0 l 1
 183 583 l 1
 169 583 l 2
 126 583 104 565 104 530 c 0
 104 513 109 491 119 464 c 1
 15 456 l 1
 5 490 0 523 0 554 c 0
 0 637 64 688 163 688 c 2xfa
648 208 m 0xfa
 648 272 602 304 509 304 c 2
 327 304 l 1
 327 107 l 1
 515 107 l 2
 606 107 648 140 648 208 c 0xfa
608 496 m 0xfc
 608 557 567 581 491 581 c 2
 327 581 l 1
 327 411 l 1
 492 411 l 2
 573 411 608 439 608 496 c 0xfc
EndSplineSet
EndChar

StartChar: uni0182
Encoding: 386 386 322
Width: 719
GlyphClass: 2
Flags: MW
HStem: 0 107<211 401 401 424> 304 107<211 398 211 440> 577 111<211 585 211 211>
VStem: 67 144<107 304 411 577> 533 146<174.5 238>
LayerCount: 2
Fore
SplineSet
679 210 m 0
 679 86 584 0 424 0 c 2
 67 0 l 1
 67 688 l 1
 585 688 l 1
 585 577 l 1
 211 577 l 1
 211 411 l 1
 440 411 l 2
 595 411 679 338 679 210 c 0
533 208 m 0
 533 268 487 304 398 304 c 2
 211 304 l 1
 211 107 l 1
 401 107 l 2
 489 107 533 141 533 208 c 0
EndSplineSet
EndChar

StartChar: uni0183
Encoding: 387 387 323
Width: 611
GlyphClass: 2
Flags: MW
HStem: -10 94<329.5 354.5 281.5 431> 0 84<66 354.5> 423 96<335 355> 621 104<207 432 207 207>
VStem: 70 137<503 621> 427 143<198.5 311.5>
LayerCount: 2
Fore
SplineSet
570 256 m 0xbc
 570 88 495 -10 367 -10 c 0
 292 -10 235 25 207 85 c 1
 206 85 l 1
 206 74 205 58 204 38 c 0xbc
 203 18 201 5 199 0 c 1
 66 0 l 1x7c
 69 30 70 70 70 121 c 2
 70 725 l 1
 432 725 l 1
 432 621 l 1
 207 621 l 1
 207 503 l 1
 205 417 l 1
 207 417 l 1
 238 485 294 519 376 519 c 0
 499 519 570 423 570 256 c 0xbc
427 256 m 0
 427 367 391 423 319 423 c 0
 247 423 205 363 205 252 c 0
 205 145 245 84 318 84 c 0
 391 84 427 141 427 256 c 0
EndSplineSet
EndChar

StartChar: uni0184
Encoding: 388 388 324
Width: 719
GlyphClass: 2
Flags: MW
HStem: 0 107<211 401 401 424> 304 107<211 398 211 440> 668 20G<174 211 211 211>
VStem: 67 144<107 304 411 490 490 490> 533 146<174.5 238>
LayerCount: 2
Fore
SplineSet
679 210 m 0
 679 86 584 0 424 0 c 2
 67 0 l 1
 67 490 l 1
 0 560 l 1
 0 577 l 1
 174 688 l 1
 211 688 l 1
 211 411 l 1
 440 411 l 2
 595 411 679 338 679 210 c 0
533 208 m 0
 533 268 487 304 398 304 c 2
 211 304 l 1
 211 107 l 1
 401 107 l 2
 489 107 533 141 533 208 c 0
EndSplineSet
EndChar

StartChar: uni0185
Encoding: 389 389 325
Width: 611
GlyphClass: 2
Flags: MW
HStem: -10 94<329.5 354.5 280.5 432.5> 0 84<66 354.5> 443 95<335 355.5>
VStem: 70 137<522 536 536 536> 427 143<205.5 326>
LayerCount: 2
Fore
SplineSet
207 725 m 1xb8
 207 522 l 1
 205 437 l 1
 207 437 l 1
 238 504 294 538 376 538 c 0
 501 538 570 439 570 266 c 0
 570 91 498 -10 367 -10 c 0
 292 -10 235 25 207 85 c 1
 206 85 l 1
 206 74 205 58 204 38 c 0xb8
 203 18 201 5 199 0 c 1
 66 0 l 1x78
 69 30 70 70 70 121 c 2
 70 536 l 1
 0 605 l 1
 0 623 l 1
 170 725 l 1
 207 725 l 1xb8
427 266 m 0
 427 386 392 443 319 443 c 0
 244 443 205 379 205 262 c 0
 205 150 243 84 318 84 c 0
 391 84 427 145 427 266 c 0
EndSplineSet
EndChar

StartChar: uni0186
Encoding: 390 390 326
Width: 722
GlyphClass: 2
Flags: MW
HStem: -10 114<294.5 402.5 294.5 450.5> 585 113<290.5 399.5>
VStem: 536 145<263.5 420.5>
LayerCount: 2
Fore
SplineSet
334 585 m 0
 247 585 187 541 153 454 c 1
 27 501 l 1
 82 634 189 698 334 698 c 0
 555 698 681 566 681 341 c 0
 681 116 561 -10 340 -10 c 0
 179 -10 77 55 36 182 c 1
 163 216 l 1
 184 148 252 104 337 104 c 0
 468 104 536 186 536 341 c 0
 536 500 465 585 334 585 c 0
EndSplineSet
EndChar

StartChar: uni0187
Encoding: 391 391 327
Width: 722
GlyphClass: 2
Flags: MW
HStem: -10 114<322.5 429.5 322.5 461.5> 585 113<319.5 416.5 271.5 427.5> 731 102<661 745.5>
VStem: 41 145<268.5 425 268.5 460.5> 556 130<663 663>
LayerCount: 2
Fore
SplineSet
686 507 m 1
 559 472 l 1
 538 541 470 585 385 585 c 0
 254 585 186 503 186 347 c 0
 186 190 257 104 388 104 c 0
 471 104 532 142 569 234 c 1
 695 187 l 1
 642 55 535 -10 388 -10 c 0
 167 -10 41 122 41 347 c 0
 41 574 161 698 382 698 c 0
 451 698 509 686 556 663 c 1
 556 692 l 2
 556 784 613 833 709 833 c 0
 734 833 759 830 784 825 c 1
 784 726 l 1
 765 729 750 731 741 731 c 0
 702 731 686 710 686 663 c 2
 686 507 l 1
EndSplineSet
EndChar

